<svg xmlns="http://www.w3.org/2000/svg" width="226" height="59" viewBox="0 0 226 59"><g fill="none" fill-rule="evenodd"><path fill="#91B1A7" fill-rule="nonzero" stroke="#91B1A7" stroke-width="4" d="M32.714 2.22c-.757 0-1.5.6-1.727 1.19-1.3 3.512-3.55 4.712-6.758 5.514-3.21.802-7.21.86-11 1.794-2.87.706-5.69 2.11-7.64 4.74l-.16-.263c-.34-.582-1.03-.947-1.71-.907-.64.032-1.24.412-1.54.965-.14.265-.19.566-.19.867 0 .325.073.648.25.925l23.34 38.682c.32.536.96.888 1.592.888.333 0 .65-.078.94-.246.835-.49 1.146-1.68.653-2.5L18.21 36.38c1.557-3.388 4.05-4.46 7.526-5.215 3.054-.664 6.854-.867 10.442-1.945 3.587-1.077 7.08-3.3 8.695-7.667.07-.196.114-.4.114-.606 0-.736-.517-1.468-1.23-1.72l-9.213-3.19V4.03c.01-.968-.82-1.813-1.843-1.813zM30.87 9.622v7.706c.005.74.52 1.452 1.23 1.7l8.485 2.945c-1.257 2.034-3.08 3.078-5.47 3.796-2.982.89-6.692 1.11-10.175 1.87-3.31.72-6.593 2.19-8.83 5.23l-7.123-11.8c-.395-.67-.824-1.38-1.21-2.02 1.34-2.96 3.365-4.07 6.335-4.8 3.196-.79 7.208-.86 11.02-1.82 2.034-.51 4.03-1.418 5.738-2.817z"/><text fill="#3E3E3F" font-family="Avenir-Heavy, Avenir" font-size="75" font-weight="600" transform="translate(2 -18)"><tspan x="64" y="75">Final</tspan></text></g></svg>
