<?xml version="1.0" standalone="no"?>
<!DOCTYPE svg PUBLIC "-//W3C//DTD SVG 1.1//EN" "http://www.w3.org/Graphics/SVG/1.1/DTD/svg11.dtd" >
<svg xmlns="http://www.w3.org/2000/svg" xmlns:xlink="http://www.w3.org/1999/xlink" version="1.1">
<metadata>
Created by FontForge 20150318 at Wed Mar 25 19:06:30 2015
 By uniteet7
Copyright (C) 1996, 2007 Hoefler &#38; Frere-Jones. http://www.typography.com
</metadata>
<defs>
<font id="MercuryDisplay-Bold" horiz-adv-x="598" >
  <font-face 
    font-family="Mercury Display Bold"
    font-weight="400"
    font-stretch="normal"
    units-per-em="1000"
    panose-1="0 0 0 0 0 0 0 0 0 0"
    ascent="800"
    descent="-200"
    x-height="454"
    cap-height="637"
    bbox="-106 -314 1506 1063.16"
    underline-thickness="50"
    underline-position="-50"
    stemh="33"
    stemv="128"
    unicode-range="U+0020-FB04"
  />
<missing-glyph horiz-adv-x="500" 
d="M0 -200v1000h500v-1000h-500zM71 750l179 -390l179 390h-358zM50 -76l172 376l-172 376v-752zM450 676l-172 -376l172 -376v752zM250 240l-179 -390h358z" />
    <glyph glyph-name="f_b" unicode="fb" horiz-adv-x="899" 
d="M409 0v396h-187v-358l62 -24v-14h-250v14l60 24v358h-90v17l90 45v18c0 98 32 161 85 209c36 33 97 56 163 56c48 0 84 -9 110 -22l81 23l4 -3v-333l4 -3c37 36 85 66 145 66c101 0 180 -88 180 -226c0 -155 -113 -259 -278 -259c-52 0 -122 7 -179 16zM729 209
c0 125 -46 184 -124 184c-21 0 -43 -3 -68 -9v-320c27 -33 60 -44 93 -44c55 0 99 50 99 189zM409 455v119c-36 15 -59 61 -54 133c-91 -13 -133 -80 -133 -204v-48h187z" />
    <glyph glyph-name="f_f" unicode="ff" horiz-adv-x="652" 
d="M537 455h125v-59h-125v-358l75 -24v-14h-263v14l60 24v358h-186v-358l62 -24v-14h-250v14l60 24v358h-91v17l91 45v18c0 98 31 161 85 209c37 33 96 56 162 56c80 0 122 -26 140 -58l18 16c38 30 86 42 132 42c83 0 131 -49 131 -91c0 -40 -21 -66 -63 -66
c-46 0 -82 46 -101 120c-46 -21 -62 -62 -62 -160v-89zM223 455h186v38c0 31 3 58 9 82c-44 7 -74 51 -69 132c-90 -13 -126 -80 -126 -204v-48z" />
    <glyph glyph-name="f_h" unicode="fh" horiz-adv-x="896" 
d="M588 0h-242v14l63 24v358h-187v-358l62 -24v-14h-250v14l60 24v358h-90v17l90 45v18c0 98 32 161 85 209c36 33 97 56 163 56c48 0 84 -9 110 -22l82 23l4 -3v-348l4 -2c59 56 112 80 166 80c90 0 125 -67 125 -138v-293l60 -24v-14h-238v14l50 24v253
c0 56 -15 97 -73 97c-35 0 -60 -5 -94 -19v-331l50 -24v-14zM409 455v119c-36 15 -59 61 -54 133c-91 -13 -133 -80 -133 -204v-48h187z" />
    <glyph glyph-name="fi" unicode="fi" horiz-adv-x="608" 
d="M222 396v-358l62 -24v-14h-250v14l60 24v358h-90v17l90 45v18c0 98 32 161 85 209c36 33 97 56 163 56c123 0 164 -56 164 -103c0 -41 -28 -70 -69 -70c-51 0 -88 50 -82 139c-91 -13 -133 -80 -133 -204v-48h238l73 17l4 -3v-431l60 -24v-14h-248v14l60 24v358h-187z
" />
    <glyph glyph-name="f_j" unicode="fj" horiz-adv-x="601" 
d="M409 396h-187v-358l62 -24v-14h-250v14l60 24v358h-90v17l90 45v18c0 98 32 161 85 209c36 33 97 56 163 56c123 0 164 -56 164 -103c0 -41 -28 -70 -69 -70c-51 0 -88 50 -82 139c-91 -13 -133 -80 -133 -204v-48h238l73 17l4 -3v-424c0 -111 -8 -144 -38 -184
c-36 -49 -103 -67 -161 -67c-93 0 -120 40 -120 78c0 39 29 60 66 60c47 0 75 -45 82 -103c36 18 43 51 43 121v446z" />
    <glyph glyph-name="f_k" unicode="fk" horiz-adv-x="862" 
d="M581 0h-235v14l63 24v358h-187v-358l62 -24v-14h-250v14l60 24v358h-90v17l90 45v18c0 98 32 161 85 209c36 33 97 56 163 56c48 0 84 -9 110 -22l81 23l4 -3v-490h33l117 158l-55 33v14h216v-14l-60 -24l-133 -134l172 -247l49 -21v-14h-236v14l38 21l-113 171h-28v-168
l44 -24v-14zM409 455v119c-36 15 -59 61 -54 133c-91 -13 -133 -80 -133 -204v-48h187z" />
    <glyph glyph-name="fl" unicode="fl" horiz-adv-x="611" 
d="M537 38l60 -24v-14h-251v14l63 24v358h-187v-358l62 -24v-14h-250v14l60 24v358h-90v17l90 45v18c0 98 32 161 85 209c36 33 97 56 163 56c48 0 84 -9 110 -22l81 23l4 -3v-701zM409 455v119c-36 15 -59 61 -54 133c-91 -13 -133 -80 -133 -204v-48h187z" />
    <glyph glyph-name="f_f_b" unicode="ffb" horiz-adv-x="1215" 
d="M767 719l82 23l4 -3v-333l4 -3c37 36 85 66 145 66c101 0 180 -88 180 -226c0 -155 -113 -259 -278 -259c-52 0 -122 7 -179 16v396h-188v-358l63 -24v-14h-251v14l60 24v358h-186v-358l62 -24v-14h-250v14l60 24v358h-91v17l91 45v18c0 98 31 161 85 209
c37 33 96 56 162 56c86 0 127 -30 144 -65l9 9c37 33 96 56 162 56c49 0 85 -9 110 -22zM1045 209c0 125 -46 184 -124 184c-21 0 -43 -3 -68 -9v-320c27 -33 60 -44 93 -44c55 0 99 50 99 189zM537 455h188v119c-36 15 -60 61 -55 133c-90 -13 -133 -80 -133 -204v-48z
M223 455h186v21c0 38 5 70 14 98c-47 5 -80 49 -74 133c-90 -13 -126 -80 -126 -204v-48z" />
    <glyph glyph-name="f_f_h" unicode="ffh" horiz-adv-x="1211" 
d="M903 0h-242v14l64 24v358h-188v-358l63 -24v-14h-251v14l60 24v358h-186v-358l62 -24v-14h-250v14l60 24v358h-91v17l91 45v18c0 98 31 161 85 209c37 33 96 56 162 56c86 0 127 -30 144 -65l9 9c37 33 96 56 162 56c49 0 85 -9 111 -22l81 23l4 -3v-348l4 -2
c59 56 112 80 166 80c90 0 125 -67 125 -138v-293l60 -24v-14h-238v14l50 24v253c0 56 -15 97 -73 97c-35 0 -60 -5 -94 -19v-331l50 -24v-14zM537 455h188v119c-36 15 -60 61 -55 133c-90 -13 -133 -80 -133 -204v-48zM223 455h186v21c0 38 5 70 14 98
c-47 5 -80 49 -74 133c-90 -13 -126 -80 -126 -204v-48z" />
    <glyph glyph-name="f_f_i" unicode="ffi" horiz-adv-x="924" 
d="M537 455h238l74 17l4 -3v-431l60 -24v-14h-249v14l61 24v358h-188v-358l63 -24v-14h-251v14l60 24v358h-186v-358l62 -24v-14h-250v14l60 24v358h-91v17l91 45v18c0 98 31 161 85 209c37 33 96 56 162 56c86 0 127 -30 144 -65l9 9c37 33 96 56 162 56
c123 0 164 -56 164 -103c0 -41 -27 -70 -68 -70c-52 0 -89 50 -83 139c-90 -13 -133 -80 -133 -204v-48zM223 455h186v21c0 38 5 70 14 98c-47 5 -80 49 -74 133c-90 -13 -126 -80 -126 -204v-48z" />
    <glyph glyph-name="f_f_j" unicode="ffj" horiz-adv-x="917" 
d="M725 396h-188v-358l63 -24v-14h-251v14l60 24v358h-186v-358l62 -24v-14h-250v14l60 24v358h-91v17l91 45v18c0 98 31 161 85 209c37 33 96 56 162 56c86 0 127 -30 144 -65l9 9c37 33 96 56 162 56c123 0 164 -56 164 -103c0 -41 -27 -70 -68 -70c-52 0 -89 50 -83 139
c-90 -13 -133 -80 -133 -204v-48h239l73 17l4 -3v-424c0 -111 -8 -144 -38 -184c-36 -49 -103 -67 -161 -67c-93 0 -120 40 -120 78c0 39 29 60 66 60c47 0 75 -45 82 -103c36 18 43 51 43 121v446zM223 455h186v21c0 38 5 70 14 98c-47 5 -80 49 -74 133
c-90 -13 -126 -80 -126 -204v-48z" />
    <glyph glyph-name="f_f_k" unicode="ffk" horiz-adv-x="1178" 
d="M897 0h-236v14l64 24v358h-188v-358l63 -24v-14h-251v14l60 24v358h-186v-358l62 -24v-14h-250v14l60 24v358h-91v17l91 45v18c0 98 31 161 85 209c37 33 96 56 162 56c86 0 127 -30 144 -65l9 9c37 33 96 56 162 56c49 0 85 -9 110 -22l82 23l4 -3v-490h33l117 158
l-55 33v14h216v-14l-60 -24l-133 -134l172 -247l49 -21v-14h-236v14l38 21l-113 171h-28v-168l44 -24v-14zM537 455h188v119c-36 15 -60 61 -55 133c-90 -13 -133 -80 -133 -204v-48zM223 455h186v21c0 38 5 70 14 98c-47 5 -80 49 -74 133c-90 -13 -126 -80 -126 -204v-48z
" />
    <glyph glyph-name="f_f_l" unicode="ffl" horiz-adv-x="927" 
d="M853 38l60 -24v-14h-252v14l64 24v358h-188v-358l63 -24v-14h-251v14l60 24v358h-186v-358l62 -24v-14h-250v14l60 24v358h-91v17l91 45v18c0 98 31 161 85 209c37 33 96 56 162 56c86 0 127 -30 144 -65l9 9c37 33 96 56 162 56c49 0 85 -9 110 -22l82 23l4 -3v-701z
M537 455h188v119c-36 15 -60 61 -55 133c-90 -13 -133 -80 -133 -204v-48zM223 455h186v21c0 38 5 70 14 98c-47 5 -80 49 -74 133c-90 -13 -126 -80 -126 -204v-48z" />
    <glyph glyph-name=".notdef" horiz-adv-x="500" 
d="M0 -200v1000h500v-1000h-500zM71 750l179 -390l179 390h-358zM50 -76l172 376l-172 376v-752zM450 676l-172 -376l172 -376v752zM250 240l-179 -390h358z" />
    <glyph glyph-name="A" unicode="A" horiz-adv-x="641" 
d="M573 46l80 -29v-17h-316v17l79 24l-60 174h-178l-58 -168l67 -30v-17h-204v17l68 33l236 593h63zM344 251l-76 218h-2l-75 -218h153z" />
    <glyph glyph-name="B" unicode="B" horiz-adv-x="653" 
d="M612 178c0 -94 -67 -178 -237 -178h-347v17l87 24v555l-87 24v17h321c170 0 237 -65 237 -140c0 -79 -56 -134 -180 -156v-5c142 -11 206 -85 206 -158zM265 347l53 2c71 3 119 47 119 130c0 82 -50 123 -119 124l-53 1v-257zM448 175c0 85 -52 140 -139 140h-44v-276
c19 -4 41 -7 69 -7c74 0 114 51 114 143z" />
    <glyph glyph-name="C" unicode="C" horiz-adv-x="670" 
d="M623 191l-21 -166c-65 -26 -123 -40 -214 -40c-207 0 -343 126 -343 327c0 185 146 340 352 340c50 0 115 -11 153 -31l34 34h14l14 -242l-25 -2c-49 124 -127 203 -208 203c-86 0 -169 -77 -169 -285c0 -187 78 -301 207 -301c28 0 42 2 72 9l119 158z" />
    <glyph glyph-name="D" unicode="D" horiz-adv-x="738" 
d="M115 596l-87 24v17h308c234 0 357 -138 357 -318c0 -181 -138 -319 -364 -319h-301v17l87 24v555zM528 319c0 199 -87 272 -213 280l-50 3v-566l73 4c117 6 190 80 190 279z" />
    <glyph glyph-name="E" unicode="E" horiz-adv-x="652" 
d="M570 637l14 -215l-19 -5l-78 110c-36 51 -61 69 -131 72l-91 4v-265h34c57 0 80 20 103 82l12 33h21v-269h-21l-12 31c-24 62 -46 82 -103 82h-34v-262l123 6c56 3 89 24 122 66l81 104l19 -4l-19 -207h-563v17l87 24v555l-87 24v17h542z" />
    <glyph glyph-name="F" unicode="F" horiz-adv-x="620" 
d="M585 422l-19 -5l-79 110c-36 51 -60 69 -130 72l-92 4v-281h35c65 0 84 20 106 82l12 34h21v-269h-22l-11 31c-22 62 -41 82 -106 82h-35v-241l93 -24v-17h-329v17l86 24v555l-86 24v17h542z" />
    <glyph glyph-name="G" unicode="G" horiz-adv-x="706" 
d="M618 413l-25 -2c-57 116 -126 203 -214 203s-169 -77 -169 -285c0 -210 105 -288 222 -288c17 0 35 2 52 5v204l-80 25v16h285v-16l-61 -25v-255l-16 -4l-86 49c-44 -30 -97 -55 -169 -55c-174 0 -312 134 -312 327c0 185 146 340 352 340c51 0 118 -11 156 -31l34 34h21
z" />
    <glyph glyph-name="H" unicode="H" horiz-adv-x="786" 
d="M521 353v243l-74 24v17h311v-17l-87 -24v-555l87 -24v-17h-311v17l74 24v267h-256v-267l74 -24v-17h-311v17l87 24v555l-87 24v17h311v-17l-74 -24v-243h256z" />
    <glyph glyph-name="I" unicode="I" horiz-adv-x="400" 
d="M275 41l86 -24v-17h-323v17l87 24v555l-87 24v17h323v-17l-86 -24v-555z" />
    <glyph glyph-name="J" unicode="J" horiz-adv-x="534" 
d="M429 226c0 -83 -14 -133 -56 -178c-34 -36 -114 -66 -199 -66c-116 0 -165 51 -165 109c0 48 37 85 78 85c67 0 99 -57 91 -156c76 24 101 65 101 161v415l-87 24v17h321v-17l-84 -24v-370z" />
    <glyph glyph-name="K" unicode="K" horiz-adv-x="717" 
d="M419 382l225 -330l73 -35v-17h-291v17l46 25l-155 250h-52v-251l74 -24v-17h-311v17l87 24v555l-87 24v17h311v-17l-74 -24v-258h61l179 238l-70 44v17h254v-17l-86 -36z" />
    <glyph glyph-name="L" unicode="L" horiz-adv-x="609" 
d="M578 217l-23 -217h-527v17l87 24v555l-87 24v17h324v-17l-87 -24v-561l89 4c56 3 90 26 122 68l85 113z" />
    <glyph glyph-name="M" unicode="M" horiz-adv-x="911" 
d="M795 41l86 -24v-17h-311v17l75 24v527h-7l-215 -568h-28l-228 568h-7v-518l85 -33v-17h-213v17l86 33v544l-86 26v17h271l39 -103l119 -322h5l119 322l38 103h258v-17l-86 -24v-555z" />
    <glyph glyph-name="N" unicode="N" horiz-adv-x="745" 
d="M120 53v534l-79 33v17h207l81 -102l256 -314h7v363l-85 36v17h213v-17l-85 -36v-590h-56l-82 102l-327 394h-7v-437l85 -36v-17h-213v17z" />
    <glyph glyph-name="O" unicode="O" horiz-adv-x="732" 
d="M687 319c0 -181 -116 -334 -324 -334c-217 0 -318 153 -318 334c0 180 116 333 324 333c218 0 318 -153 318 -333zM523 319c0 200 -65 301 -165 301c-92 0 -149 -76 -149 -301c0 -226 65 -301 165 -301c92 0 149 101 149 301z" />
    <glyph glyph-name="P" unicode="P" horiz-adv-x="631" 
d="M602 450c0 -100 -87 -192 -233 -192c-32 0 -72 4 -104 9v-226l99 -24v-17h-336v17l87 24v555l-87 24v17h333c176 0 241 -89 241 -187zM447 450c0 88 -42 148 -119 150l-63 2v-300l63 2c77 2 119 58 119 146z" />
    <glyph glyph-name="Q" unicode="Q" horiz-adv-x="732" 
d="M687 319c0 -151 -81 -283 -229 -322c22 -38 53 -84 84 -106c36 -25 74 -39 117 -48l-4 -15h-114c-72 0 -118 7 -150 33c-19 15 -35 37 -64 94l-17 33c-180 23 -265 165 -265 331c0 180 116 333 324 333c218 0 318 -153 318 -333zM523 319c0 200 -65 301 -165 301
c-92 0 -149 -76 -149 -301c0 -226 65 -301 165 -301c92 0 149 101 149 301z" />
    <glyph glyph-name="R" unicode="R" horiz-adv-x="683" 
d="M612 481c0 -76 -55 -147 -189 -168v-5c92 -14 130 -58 151 -120c21 -63 38 -103 61 -131c17 -20 35 -32 58 -40v-17h-121c-78 0 -102 29 -135 112l-41 103c-22 56 -55 72 -120 72h-11v-246l86 -24v-17h-323v17l87 24v555l-87 24v17h377c142 0 207 -77 207 -156zM459 460
c0 88 -58 138 -132 140l-62 2v-281l62 2c74 2 132 49 132 137z" />
    <glyph glyph-name="S" unicode="S" horiz-adv-x="544" 
d="M503 198c0 -125 -103 -213 -228 -213c-68 0 -116 18 -157 38l-37 -35h-20l-13 225l26 2c60 -140 142 -192 208 -192c71 0 106 46 106 99c0 58 -22 85 -114 123c-32 13 -70 26 -101 41c-70 35 -112 96 -112 169c0 111 101 197 209 197c59 0 93 -15 128 -34l38 34h20
l17 -201l-25 -3c-53 106 -114 166 -177 166c-59 0 -92 -36 -92 -87c0 -47 18 -81 89 -113c35 -16 77 -29 114 -47c81 -39 121 -95 121 -169z" />
    <glyph glyph-name="T" unicode="T" horiz-adv-x="681" 
d="M657 414l-22 -5l-91 123c-39 53 -64 66 -114 70l-13 1v-562l90 -24v-17h-330v17l90 24v562l-17 -1c-50 -3 -74 -17 -113 -70l-92 -123l-21 5l28 223h577z" />
    <glyph glyph-name="U" unicode="U" horiz-adv-x="714" 
d="M575 587l-72 33v17h188v-17l-73 -33v-377c0 -145 -100 -225 -243 -225c-169 0 -270 77 -270 243v368l-86 24v17h323v-17l-87 -24v-388c0 -107 53 -162 160 -162c102 0 160 63 160 173v368z" />
    <glyph glyph-name="V" unicode="V" horiz-adv-x="671" 
d="M612 587l-249 -593h-37l-243 597l-80 29v17h317v-17l-79 -24l155 -421l147 406l-67 39v17h197v-17z" />
    <glyph glyph-name="W" unicode="W" horiz-adv-x="939" 
d="M585 596l120 -399h2l105 384l-66 39v17h196v-17l-61 -33l-205 -593h-35l-159 444h-2l-175 -444h-35l-189 597l-80 29v17h307v-17l-69 -24l103 -404h2l116 310l-27 89l-61 29v17h286v-17z" />
    <glyph glyph-name="X" unicode="X" horiz-adv-x="704" 
d="M600 593c0 0 -187 -238 -187 -239l209 -314l72 -23v-17h-314v17l73 21l-132 213l-131 -207l63 -27v-17h-229v17l81 27l191 243l-200 310l-72 23v17h313v-17l-72 -20l122 -207l129 200l-64 27v17h233v-17z" />
    <glyph glyph-name="Y" unicode="Y" horiz-adv-x="637" 
d="M583 587l-179 -284v-255l90 -31v-17h-329v17l89 31v223l-182 314l-75 35v17h316v-17l-74 -30l139 -249l121 243l-60 36v17h211v-17z" />
    <glyph glyph-name="Z" unicode="Z" horiz-adv-x="630" 
d="M590 223l-16 -223h-544l-4 10l391 585l-138 -3c-52 -1 -84 -20 -135 -82l-64 -77l-18 5l17 199h514l4 -10l-387 -587l170 3c55 1 85 29 120 78l75 106z" />
    <glyph glyph-name="a" unicode="a" horiz-adv-x="483" 
d="M412 332v-253c0 -37 14 -61 68 -66l2 -12c-35 -9 -71 -19 -111 -19c-38 0 -78 14 -82 63l-5 2c-36 -37 -80 -63 -136 -63c-75 0 -121 43 -121 105c0 92 104 141 257 142v92c0 57 -23 97 -106 97c-14 0 -31 -1 -49 -4c28 -22 42 -53 42 -78c0 -33 -26 -64 -63 -64
c-41 0 -65 31 -65 66c0 84 133 129 227 129c89 0 142 -47 142 -137zM284 65v142c-92 -6 -123 -36 -123 -91c0 -44 27 -70 63 -70c20 0 37 6 60 19z" />
    <glyph glyph-name="b" unicode="b" horiz-adv-x="552" 
d="M519 243c0 -155 -113 -259 -278 -259c-52 0 -122 7 -179 16v630l-66 47v10l190 54l4 -3v-332l4 -3c37 36 85 66 145 66c101 0 180 -88 180 -226zM382 209c0 125 -46 184 -124 184c-21 0 -43 -3 -68 -9v-320c27 -33 60 -44 93 -44c55 0 99 50 99 189z" />
    <glyph glyph-name="c" unicode="c" horiz-adv-x="478" 
d="M457 361c0 -41 -27 -75 -67 -75c-45 0 -72 35 -72 71c0 30 12 57 25 75c-10 2 -16 2 -30 2c-82 0 -148 -55 -148 -188c0 -118 66 -193 146 -193c49 0 88 13 137 29l6 -12c-60 -56 -123 -86 -194 -86c-129 0 -230 94 -230 233c0 138 103 252 255 252
c105 0 172 -50 172 -108z" />
    <glyph glyph-name="d" unicode="d" horiz-adv-x="568" 
d="M495 55l66 -25v-10l-180 -37l-4 2l-8 54l-4 2l-15 -12c-35 -28 -76 -45 -119 -45c-104 0 -198 75 -198 229c0 156 117 256 250 256c35 0 59 -4 83 -11v172l-65 47v10l189 54l5 -3v-683zM170 245c0 -129 47 -194 132 -194c20 0 45 9 64 21v314c-25 32 -48 49 -92 49
c-51 0 -104 -50 -104 -190z" />
    <glyph glyph-name="e" unicode="e" horiz-adv-x="499" 
d="M471 251h-306c1 -122 27 -198 141 -198c50 0 92 9 154 26l6 -13c-60 -47 -139 -82 -203 -82c-145 0 -233 94 -233 233c0 145 118 252 238 252c140 0 206 -93 203 -218zM166 280l179 11c-2 100 -29 146 -84 146c-53 0 -90 -62 -95 -157z" />
    <glyph glyph-name="f" unicode="f" horiz-adv-x="337" 
d="M347 396h-125v-358l75 -24v-14h-263v14l60 24v358h-90v17l90 45v35c0 99 32 160 90 206c38 30 87 42 133 42c83 0 124 -49 124 -91c0 -40 -20 -66 -63 -66c-42 0 -79 42 -94 120c-46 -21 -62 -62 -62 -160v-89h125v-59z" />
    <glyph glyph-name="g" unicode="g" horiz-adv-x="513" 
d="M441 320c0 -89 -83 -150 -200 -150c-31 0 -61 4 -86 12c-7 -13 -11 -34 -11 -50c0 -22 15 -35 61 -36l126 -2c106 -2 162 -47 162 -120c0 -80 -107 -181 -275 -181c-136 0 -215 52 -215 109c0 35 32 70 110 92l-1 6c-42 8 -60 30 -60 56c0 35 21 71 81 130v5
c-57 25 -96 71 -96 129c0 88 86 149 204 149c56 0 105 -13 140 -37c44 35 82 62 121 62c43 0 64 -28 64 -59c0 -30 -25 -57 -57 -57s-54 20 -57 50l-49 -10l-2 -4c26 -25 40 -57 40 -94zM310 323c0 73 -23 117 -74 117c-44 0 -73 -26 -73 -117c0 -96 27 -123 78 -123
c44 0 69 50 69 123zM394 -83c0 35 -27 69 -105 70l-154 1c-16 -13 -24 -39 -24 -61c0 -62 46 -98 151 -98c85 0 132 37 132 88z" />
    <glyph glyph-name="h" unicode="h" horiz-adv-x="561" 
d="M370 291c0 56 -15 97 -73 97c-35 0 -60 -5 -94 -19v-331l50 -24v-14h-238v14l60 24v592l-66 47v10l190 54l4 -3v-347l4 -2c59 56 112 80 166 80c90 0 125 -67 125 -138v-293l60 -24v-14h-238v14l50 24v253z" />
    <glyph glyph-name="i" unicode="i" horiz-adv-x="279" 
d="M66 609c0 43 36 84 82 84c44 0 74 -33 74 -76s-35 -83 -82 -83c-43 0 -74 32 -74 75zM80 373l-59 47v10l183 42l4 -3v-431l60 -24v-14h-251v14l63 24v335z" />
    <glyph glyph-name="j" unicode="j" horiz-adv-x="277" 
d="M71 609c0 43 35 84 82 84c43 0 74 -33 74 -76s-36 -83 -82 -83c-43 0 -74 32 -74 75zM213 45c0 -111 -8 -144 -38 -184c-36 -49 -103 -67 -161 -67c-93 0 -120 40 -120 78c0 39 29 60 66 60c47 0 75 -45 82 -103c36 18 43 51 43 121v423l-59 47v10l183 42l4 -3v-424z" />
    <glyph glyph-name="k" unicode="k" horiz-adv-x="528" 
d="M321 282l172 -247l49 -21v-14h-236v14l38 21l-113 171h-28v-168l44 -24v-14h-232v14l60 24v592l-65 47v10l189 54l4 -3v-489h33l117 158l-55 33v14h216v-14l-60 -24z" />
    <glyph glyph-name="l" unicode="l" horiz-adv-x="277" 
d="M203 38l60 -24v-14h-251v14l63 24v592l-65 47v10l189 54l4 -3v-700z" />
    <glyph glyph-name="m" unicode="m" horiz-adv-x="836" 
d="M645 292c0 56 -11 97 -73 97c-35 0 -50 -12 -84 -25v-326l50 -24v-14h-228v14l50 24v254c0 56 -6 97 -68 97c-35 0 -50 -5 -84 -19v-332l50 -24v-14h-238v14l60 24v335l-60 47v10l178 42l4 -3l-2 -80l4 -2c59 56 109 83 163 83c68 0 103 -34 115 -83l4 -2
c60 56 111 87 165 87c90 0 122 -69 122 -140v-294l60 -24v-14h-238v14l50 24v254z" />
    <glyph glyph-name="n" unicode="n" horiz-adv-x="561" 
d="M498 331v-293l60 -24v-14h-238v14l50 24v253c0 56 -14 97 -71 97c-35 0 -57 -5 -91 -19v-331l50 -24v-14h-238v14l60 24v335l-60 47v10l178 42l4 -3l-2 -81l4 -2c59 56 117 83 171 83c90 0 123 -67 123 -138z" />
    <glyph glyph-name="o" unicode="o" horiz-adv-x="540" 
d="M510 227c0 -120 -85 -243 -246 -243s-234 114 -234 243c0 120 86 242 246 242c161 0 234 -114 234 -242zM373 227c0 125 -31 210 -103 210s-103 -85 -103 -210s31 -210 103 -210s103 85 103 210z" />
    <glyph glyph-name="p" unicode="p" horiz-adv-x="560" 
d="M527 240c0 -135 -98 -256 -267 -256c-20 0 -41 2 -62 6v-160l70 -24v-13h-258v13l60 24v542l-60 47v10l178 43l4 -3l-1 -67l4 -2c37 35 96 69 155 69c97 0 177 -91 177 -229zM390 209c0 128 -44 184 -124 184c-21 0 -43 -3 -68 -9v-313c24 -37 50 -55 94 -55
c51 0 98 52 98 193z" />
    <glyph glyph-name="q" unicode="q" horiz-adv-x="552" 
d="M554 -207h-257v13l69 24v207l-4 2l-12 -10c-33 -28 -72 -45 -115 -45c-119 0 -202 90 -202 228c0 135 98 257 267 257c40 0 88 -12 125 -26l59 48l10 -3v-658l60 -24v-13zM302 51c21 0 39 3 64 9v334c-25 29 -48 42 -92 42c-51 0 -104 -51 -104 -191
c0 -129 47 -194 132 -194z" />
    <glyph glyph-name="r" unicode="r" horiz-adv-x="428" 
d="M420 396c0 -41 -26 -75 -68 -75c-38 0 -67 25 -76 68c-31 -2 -50 -15 -68 -37v-314l69 -24v-14h-257v14l60 24v335l-59 47v10l178 42l4 -3l-4 -92l4 -2c45 67 100 95 143 95c44 0 74 -29 74 -74z" />
    <glyph glyph-name="s" unicode="s" horiz-adv-x="415" 
d="M385 136c0 -93 -90 -152 -186 -152c-60 0 -111 9 -157 27l-3 137l20 2c73 -99 110 -132 162 -132c40 0 64 28 64 68c0 50 -53 70 -110 93c-65 27 -135 58 -135 146c0 79 78 144 186 144c39 0 97 -8 125 -18l3 -124l-20 -4c-60 81 -86 112 -134 112c-39 0 -61 -31 -61 -61
c0 -51 54 -71 111 -94c65 -26 135 -57 135 -144z" />
    <glyph glyph-name="t" unicode="t" horiz-adv-x="363" 
d="M364 29c-34 -21 -112 -45 -174 -45c-80 0 -109 43 -109 116v293h-77v15l104 93l88 100h13v-147h152v-61h-152v-246c0 -45 8 -70 28 -84s40 -18 72 -18c16 0 37 1 53 1z" />
    <glyph glyph-name="u" unicode="u" horiz-adv-x="558" 
d="M488 66l60 -29v-10l-178 -44l-4 2l2 80l-4 3c-59 -56 -116 -84 -170 -84c-91 0 -124 68 -124 139v258l-57 39v10l181 42l4 -3v-306c0 -56 14 -97 72 -97c35 0 56 5 90 18v297l-57 39v10l181 42l4 -3v-403z" />
    <glyph glyph-name="v" unicode="v" horiz-adv-x="503" 
d="M193 414l101 -267h4l46 122l47 138l-53 33v14h174v-14l-63 -35l-181 -416h-34l-181 425l-60 26v14h260v-14z" />
    <glyph glyph-name="w" unicode="w" horiz-adv-x="738" 
d="M474 414l65 -265h5l86 258l-52 33v14h181v-14l-65 -35l-181 -416h-28l-99 280l-140 -280h-28l-159 425l-60 26v14h244v-14l-44 -26l81 -270h5l82 176c1 0 -33 94 -33 94l-48 26v14h244v-14z" />
    <glyph glyph-name="x" unicode="x" horiz-adv-x="518" 
d="M287 288l81 129l-46 23v14h182v-14l-64 -27l-131 -160l152 -218l55 -21v-14h-260v14l55 21l-81 132l-89 -131l48 -22v-14h-179v14l60 27l136 162l-147 217l-55 20v14h257v-14l-52 -20z" />
    <glyph glyph-name="y" unicode="y" horiz-adv-x="494" 
d="M451 405l-154 -379c-67 -164 -118 -233 -186 -233c-59 0 -88 33 -88 71c0 34 32 65 67 65c38 0 60 -17 86 -48c19 24 48 69 58 91l5 11l-179 431l-60 26v14h259v-14l-59 -26l99 -275h5l89 268l-53 33v14h173v-14z" />
    <glyph glyph-name="z" unicode="z" horiz-adv-x="471" 
d="M457 441l-290 -403h147l114 133l18 -6l-12 -165h-412l-9 14l290 402h-139l-106 -133l-18 6l9 165h399z" />
    <glyph glyph-name="a.sc" horiz-adv-x="537" 
d="M289 182l-68 182h-2l-64 -182h134zM143 147l-36 -102l61 -30v-15h-183v15l66 33l188 456h63l182 -465l58 -24v-15h-258v13l59 24l-41 110h-159z" />
    <glyph glyph-name="b.sc" horiz-adv-x="551" 
d="M515 135c0 -71 -58 -135 -197 -135h-292v16l68 22v421l-68 22v16h274c144 0 195 -47 195 -112s-42 -107 -152 -121v-5c111 -4 172 -62 172 -124zM229 270l40 2c60 3 95 38 95 99c0 66 -36 91 -91 94l-44 2v-197zM372 134c0 66 -42 107 -110 107h-33v-208
c17 -2 34 -3 50 -3c60 0 93 27 93 104z" />
    <glyph glyph-name="c.sc" horiz-adv-x="548" 
d="M508 167l-19 -153c-37 -17 -93 -29 -149 -29c-153 0 -304 58 -304 257c0 149 116 270 284 270c43 0 92 -12 124 -29l28 30h12l15 -198l-21 -2c-60 109 -111 164 -170 164c-66 0 -126 -64 -126 -220c0 -168 75 -235 173 -235c9 0 24 2 31 4l107 145z" />
    <glyph glyph-name="d.sc" 
d="M94 459l-68 22v16h253c188 0 288 -99 288 -246c0 -150 -109 -251 -292 -251h-249v16l68 22v421zM420 249c0 147 -63 208 -150 214l-41 3v-434l56 3c80 4 135 66 135 214z" />
    <glyph glyph-name="e.sc" horiz-adv-x="544" 
d="M481 497l11 -171l-17 -5l-61 83c-27 37 -52 57 -105 59l-80 3v-198h38c41 0 60 14 78 62l9 24h19v-211h-19l-10 24c-20 47 -36 61 -77 61h-38v-196l100 5c41 2 74 21 98 52l64 82l17 -5l-15 -166h-467v16l68 22v421l-68 22v16h455z" />
    <glyph glyph-name="f.sc" horiz-adv-x="513" 
d="M491 321l-17 -5l-62 88c-26 37 -52 57 -105 59l-78 3v-209h41c41 0 61 17 78 62l9 24h19v-211h-19l-10 24c-20 47 -36 61 -77 61h-41v-179l74 -22v-16h-277v16l68 22v421l-68 22v16h454z" />
    <glyph glyph-name="g.sc" horiz-adv-x="574" 
d="M502 321l-21 -2c-57 101 -111 158 -173 158c-66 0 -126 -57 -126 -218c0 -173 78 -228 163 -228c13 0 25 2 38 4v160l-66 23v15h238v-15l-46 -23v-202l-14 -4l-75 40c-43 -30 -92 -44 -141 -44c-124 0 -243 89 -243 254c0 157 116 273 284 273c47 0 95 -12 127 -29l29 30
h16z" />
    <glyph glyph-name="h.sc" horiz-adv-x="653" 
d="M424 277v183l-63 21v16h266v-16l-68 -22v-421l68 -22v-16h-266v16l63 21v201h-195v-201l63 -21v-16h-266v16l68 22v421l-68 22v16h266v-16l-63 -21v-183h195z" />
    <glyph glyph-name="i.sc" horiz-adv-x="339" 
d="M237 38l68 -22v-16h-271v16l68 22v421l-68 22v16h271v-16l-68 -22v-421z" />
    <glyph glyph-name="j.sc" horiz-adv-x="450" 
d="M366 192c0 -70 -12 -113 -48 -151c-29 -31 -86 -57 -173 -57c-94 0 -139 44 -139 93c0 41 31 73 70 73c53 0 81 -51 73 -134c57 9 84 47 84 123v316l-73 20v22h271v-22l-65 -20v-263z" />
    <glyph glyph-name="k.sc" horiz-adv-x="599" 
d="M358 307l189 -264l53 -27v-16h-254v16l49 19l-127 193h-39v-191l61 -21v-16h-264v16l68 22v421l-68 22v16h264v-16l-61 -21v-193h47l142 177l-65 37v16h222v-22l-76 -26z" />
    <glyph glyph-name="l.sc" horiz-adv-x="504" 
d="M480 186l-20 -186h-434v16l68 22v421l-68 22v16h278v-16l-75 -21v-428l62 2c47 2 74 21 99 54l75 100z" />
    <glyph glyph-name="m.sc" horiz-adv-x="758" 
d="M664 38l68 -22v-16h-265v16l63 21v393h-7l-168 -431h-30l-180 431h-7v-384l69 -30v-16h-179v16l69 30v411l-69 24v16h235l32 -78l90 -234h5l88 234l28 78h226v-16l-68 -22v-421z" />
    <glyph glyph-name="n.sc" horiz-adv-x="620" 
d="M100 49v402l-66 30v16h177l67 -82l200 -241h6v274l-70 33v16h178v-16l-70 -33v-454h-62l-74 90l-242 283h-6v-318l69 -34v-15h-177v15z" />
    <glyph glyph-name="o.sc" 
d="M562 249c0 -142 -88 -264 -264 -264c-185 0 -262 122 -262 264c0 141 89 263 266 263c184 0 260 -122 260 -263zM416 249c0 158 -49 233 -123 233c-67 0 -111 -58 -111 -233c0 -177 50 -233 123 -233c67 0 111 76 111 233z" />
    <glyph glyph-name="p.sc" horiz-adv-x="518" 
d="M497 349c0 -91 -74 -154 -192 -154c-24 0 -53 2 -76 5v-163l83 -21v-16h-286v16l68 22v421l-68 22v16h275c132 0 196 -63 196 -148zM358 347c0 76 -31 115 -91 118l-38 2v-239l35 1c61 2 94 46 94 118z" />
    <glyph glyph-name="q.sc" 
d="M562 249c0 -118 -61 -222 -182 -254c22 -36 40 -58 62 -72c27 -19 57 -30 94 -37l-4 -16h-105c-61 0 -96 5 -121 26c-14 11 -27 27 -47 67l-13 25c-148 21 -210 133 -210 261c0 141 89 263 266 263c184 0 260 -122 260 -263zM416 249c0 158 -49 233 -123 233
c-67 0 -111 -58 -111 -233c0 -177 50 -233 123 -233c67 0 111 76 111 233z" />
    <glyph glyph-name="r.sc" horiz-adv-x="565" 
d="M508 375c0 -64 -40 -116 -156 -132v-5c77 -10 109 -40 127 -91c15 -44 30 -79 45 -98c11 -14 26 -24 50 -32v-17h-113c-58 0 -79 23 -103 86l-30 77c-17 43 -40 57 -91 57h-8v-182l68 -22v-16h-271v16l68 22v421l-68 22v16h310c122 0 172 -52 172 -122zM371 358
c0 72 -36 103 -98 106l-44 2v-216l42 2c57 2 100 35 100 106z" />
    <glyph glyph-name="s.sc" horiz-adv-x="462" 
d="M425 158c0 -105 -86 -172 -187 -172c-54 0 -104 12 -138 26l-31 -29h-19l-10 188l22 2c67 -116 123 -154 177 -154s85 30 85 74c0 47 -24 64 -92 90c-26 10 -58 19 -85 32c-71 33 -96 73 -96 135c0 94 85 161 172 161c47 0 85 -10 117 -24l31 26h19l14 -173l-21 -2
c-63 100 -104 140 -160 140c-42 0 -67 -28 -67 -65c0 -41 19 -62 71 -85c29 -13 63 -22 94 -36c76 -33 104 -70 104 -134z" />
    <glyph glyph-name="t.sc" horiz-adv-x="555" 
d="M533 309l-18 -4l-77 103c-30 41 -51 56 -80 58l-14 1v-429l71 -22v-16h-277v16l71 22v429l-13 -1c-29 -2 -49 -17 -79 -58l-77 -103l-18 4l20 189h471z" />
    <glyph glyph-name="u.sc" 
d="M476 450l-61 31v16h164v-16l-62 -31v-274c0 -127 -87 -191 -205 -191c-136 0 -222 61 -222 201v273l-68 22v16h271v-16l-68 -22v-286c0 -89 41 -134 127 -134c78 0 124 51 124 144v267z" />
    <glyph glyph-name="v.sc" horiz-adv-x="560" 
d="M501 448l-197 -455h-42l-198 464l-63 24v16h271v-16l-63 -22l124 -310l112 296l-64 35v17h185v-17z" />
    <glyph glyph-name="w.sc" horiz-adv-x="792" 
d="M383 386l-25 71l-48 24v16h244v-16l-59 -22l95 -294h2l82 280l-65 35v17h185v-17l-61 -32l-163 -455h-46l-121 338h-2l-132 -338h-44l-157 464l-63 24v16h261v-16l-55 -22l84 -294h2z" />
    <glyph glyph-name="x.sc" horiz-adv-x="569" 
d="M315 308l99 150l-56 23v16h194v-16l-71 -23l-140 -180l165 -242l58 -20v-16h-269v16l59 18l-99 163l-105 -158l56 -23v-16h-192v16l69 23l146 184l-157 238l-58 20v16h268v-16l-58 -17z" />
    <glyph glyph-name="y.sc" horiz-adv-x="536" 
d="M479 452l-135 -229v-179l71 -28v-16h-276v16l70 28v156l-143 250l-61 31v16h270v-16l-61 -26l107 -200l96 195l-59 31v16h184v-16z" />
    <glyph glyph-name="z.sc" horiz-adv-x="523" 
d="M487 191l-12 -191h-452l-4 9l316 450l-104 -1c-45 0 -65 -13 -108 -66l-59 -73l-13 3l14 175h430l4 -9l-314 -451l128 2c48 1 67 22 96 63l65 92z" />
    <glyph glyph-name="Aacute" unicode="&#xc1;" horiz-adv-x="641" 
d="M573 46l80 -29v-17h-316v17l79 24l-60 174h-178l-58 -168l67 -30v-17h-204v17l68 33l236 593h63zM344 251l-76 218h-2l-75 -218h153zM424 906c27 -17 32 -55 8 -86c-29 -38 -81 -80 -135 -123l-13 9c15 67 34 131 58 173c18 32 54 45 82 27z" />
    <glyph glyph-name="aacute" unicode="&#xe1;" horiz-adv-x="483" 
d="M412 332v-253c0 -37 14 -61 68 -66l2 -12c-35 -9 -71 -19 -111 -19c-38 0 -78 14 -82 63l-5 2c-36 -37 -80 -63 -136 -63c-75 0 -121 43 -121 105c0 92 104 141 257 142v92c0 57 -23 97 -106 97c-14 0 -31 -1 -49 -4c28 -22 42 -53 42 -78c0 -33 -26 -64 -63 -64
c-41 0 -65 31 -65 66c0 84 133 129 227 129c89 0 142 -47 142 -137zM284 65v142c-92 -6 -123 -36 -123 -91c0 -44 27 -70 63 -70c20 0 37 6 60 19zM340 713c27 -17 32 -55 8 -86c-29 -38 -81 -80 -135 -123l-13 9c15 67 34 131 58 173c18 32 54 45 82 27z" />
    <glyph glyph-name="aacute.sc" horiz-adv-x="537" 
d="M289 182l-68 182h-2l-64 -182h134zM143 147l-36 -102l61 -30v-15h-183v15l66 33l188 456h63l182 -465l58 -24v-15h-258v13l59 24l-41 110h-159zM375 760c27 -17 32 -55 8 -86c-29 -38 -81 -80 -135 -123l-13 9c15 67 34 131 58 173c18 32 54 45 82 27z" />
    <glyph glyph-name="Abreve" unicode="&#x102;" horiz-adv-x="641" 
d="M573 46l80 -29v-17h-316v17l79 24l-60 174h-178l-58 -168l67 -30v-17h-204v17l68 33l236 593h63zM344 251l-76 218h-2l-75 -218h153zM320 810c57 0 108 28 128 71l22 -6c-12 -93 -62 -157 -150 -157c-87 0 -139 64 -147 157l22 6c17 -43 68 -71 125 -71z" />
    <glyph glyph-name="abreve" unicode="&#x103;" horiz-adv-x="483" 
d="M412 332v-253c0 -37 14 -61 68 -66l2 -12c-35 -9 -71 -19 -111 -19c-38 0 -78 14 -82 63l-5 2c-36 -37 -80 -63 -136 -63c-75 0 -121 43 -121 105c0 92 104 141 257 142v92c0 57 -23 97 -106 97c-14 0 -31 -1 -49 -4c28 -22 42 -53 42 -78c0 -33 -26 -64 -63 -64
c-41 0 -65 31 -65 66c0 84 133 129 227 129c89 0 142 -47 142 -137zM284 65v142c-92 -6 -123 -36 -123 -91c0 -44 27 -70 63 -70c20 0 37 6 60 19zM236 617c57 0 108 28 128 71l22 -6c-12 -93 -62 -157 -150 -157c-87 0 -139 64 -147 157l22 6c17 -43 68 -71 125 -71z" />
    <glyph glyph-name="abreve.sc" horiz-adv-x="537" 
d="M289 182l-68 182h-2l-64 -182h134zM143 147l-36 -102l61 -30v-15h-183v15l66 33l188 456h63l182 -465l58 -24v-15h-258v13l59 24l-41 110h-159zM271 664c57 0 108 28 128 71l22 -6c-12 -93 -62 -157 -150 -157c-87 0 -139 64 -147 157l22 6c17 -43 68 -71 125 -71z" />
    <glyph glyph-name="Acircumflex" unicode="&#xc2;" horiz-adv-x="641" 
d="M573 46l80 -29v-17h-316v17l79 24l-60 174h-178l-58 -168l67 -30v-17h-204v17l68 33l236 593h63zM344 251l-76 218h-2l-75 -218h153zM319 764l-128 -74l-15 13l136 183h21l129 -183l-15 -13z" />
    <glyph glyph-name="acircumflex" unicode="&#xe2;" horiz-adv-x="483" 
d="M412 332v-253c0 -37 14 -61 68 -66l2 -12c-35 -9 -71 -19 -111 -19c-38 0 -78 14 -82 63l-5 2c-36 -37 -80 -63 -136 -63c-75 0 -121 43 -121 105c0 92 104 141 257 142v92c0 57 -23 97 -106 97c-14 0 -31 -1 -49 -4c28 -22 42 -53 42 -78c0 -33 -26 -64 -63 -64
c-41 0 -65 31 -65 66c0 84 133 129 227 129c89 0 142 -47 142 -137zM284 65v142c-92 -6 -123 -36 -123 -91c0 -44 27 -70 63 -70c20 0 37 6 60 19zM235 581l-128 -74l-15 13l136 183h21l129 -183l-15 -13z" />
    <glyph glyph-name="acircumflex.sc" horiz-adv-x="537" 
d="M289 182l-68 182h-2l-64 -182h134zM143 147l-36 -102l61 -30v-15h-183v15l66 33l188 456h63l182 -465l58 -24v-15h-258v13l59 24l-41 110h-159zM270 628l-128 -74l-15 13l136 183h21l129 -183l-15 -13z" />
    <glyph glyph-name="Adieresis" unicode="&#xc4;" horiz-adv-x="641" 
d="M573 46l80 -29v-17h-316v17l79 24l-60 174h-178l-58 -168l67 -30v-17h-204v17l68 33l236 593h63zM344 251l-76 218h-2l-75 -218h153zM412 713c-40 0 -69 31 -69 71s33 78 77 78c40 0 69 -30 69 -71c0 -40 -33 -78 -77 -78zM221 713c-41 0 -69 31 -69 71s33 78 76 78
c41 0 69 -30 69 -71c0 -40 -33 -78 -76 -78z" />
    <glyph glyph-name="adieresis" unicode="&#xe4;" horiz-adv-x="483" 
d="M412 332v-253c0 -37 14 -61 68 -66l2 -12c-35 -9 -71 -19 -111 -19c-38 0 -78 14 -82 63l-5 2c-36 -37 -80 -63 -136 -63c-75 0 -121 43 -121 105c0 92 104 141 257 142v92c0 57 -23 97 -106 97c-14 0 -31 -1 -49 -4c28 -22 42 -53 42 -78c0 -33 -26 -64 -63 -64
c-41 0 -65 31 -65 66c0 84 133 129 227 129c89 0 142 -47 142 -137zM284 65v142c-92 -6 -123 -36 -123 -91c0 -44 27 -70 63 -70c20 0 37 6 60 19zM328 528c-40 0 -69 31 -69 71s33 78 77 78c40 0 69 -30 69 -71c0 -40 -33 -78 -77 -78zM137 528c-41 0 -69 31 -69 71
s33 78 76 78c41 0 69 -30 69 -71c0 -40 -33 -78 -76 -78z" />
    <glyph glyph-name="adieresis.sc" horiz-adv-x="537" 
d="M289 182l-68 182h-2l-64 -182h134zM143 147l-36 -102l61 -30v-15h-183v15l66 33l188 456h63l182 -465l58 -24v-15h-258v13l59 24l-41 110h-159zM363 575c-40 0 -69 31 -69 71s33 78 77 78c40 0 69 -30 69 -71c0 -40 -33 -78 -77 -78zM172 575c-41 0 -69 31 -69 71
s33 78 76 78c41 0 69 -30 69 -71c0 -40 -33 -78 -76 -78z" />
    <glyph glyph-name="AE" unicode="&#xc6;" horiz-adv-x="949" 
d="M225 240l-122 -193l67 -30v-17h-203v17l68 33l377 546l-87 24v17h542l14 -215l-19 -5l-79 110c-36 51 -60 69 -130 72l-91 4v-265h34c57 0 80 20 103 82l12 33h21v-269h-22l-11 31c-22 62 -46 82 -103 82h-34v-262l123 6c56 3 89 24 122 66l81 104l19 -4l-19 -207h-563
v17l87 24v199h-187zM412 276v256h-2l-162 -256h164z" />
    <glyph glyph-name="ae" unicode="&#xe6;" horiz-adv-x="741" 
d="M713 251h-306c1 -121 27 -198 142 -198c49 0 92 10 153 26l6 -13c-60 -47 -139 -82 -203 -82c-83 0 -143 31 -179 82l-5 2c-36 -37 -89 -84 -161 -84c-84 0 -133 43 -133 105c0 92 105 141 258 142v92c0 57 -23 97 -107 97c-14 0 -30 -1 -48 -4c27 -22 41 -53 41 -78
c0 -33 -25 -64 -62 -64c-41 0 -65 32 -65 66c0 84 132 129 227 129c51 0 87 -16 107 -47c38 30 84 47 132 47c141 0 206 -93 203 -218zM503 437c-53 0 -90 -62 -96 -156l180 10c-2 100 -28 146 -84 146zM315 84c-19 34 -29 76 -30 123c-89 -7 -124 -38 -124 -91
c0 -44 28 -70 63 -70c33 0 64 17 91 38z" />
    <glyph glyph-name="ae.sc" horiz-adv-x="794" 
d="M758 166l-15 -166h-467v16l68 22v142h-159l-91 -138l60 -27v-15h-182v15l61 30l294 410l-75 27v15h479l11 -171l-17 -5l-61 83c-27 37 -52 57 -105 59l-80 3v-198h38c41 0 60 14 78 62l9 24h19v-211h-19l-10 24c-20 47 -36 61 -77 61h-38v-196l100 5c41 2 74 21 98 52
l64 82zM344 215v203h-2l-134 -203h136z" />
    <glyph glyph-name="AEacute" unicode="&#x1fc;" horiz-adv-x="949" 
d="M225 240l-122 -193l67 -30v-17h-203v17l68 33l377 546l-87 24v17h542l14 -215l-19 -5l-79 110c-36 51 -60 69 -130 72l-91 4v-265h34c57 0 80 20 103 82l12 33h21v-269h-22l-11 31c-22 62 -46 82 -103 82h-34v-262l123 6c56 3 89 24 122 66l81 104l19 -4l-19 -207h-563
v17l87 24v199h-187zM412 276v256h-2l-162 -256h164zM633 899c27 -17 32 -55 8 -86c-29 -38 -81 -80 -135 -123l-13 9c15 67 34 131 58 173c18 32 54 45 82 27z" />
    <glyph glyph-name="aeacute" unicode="&#x1fd;" horiz-adv-x="741" 
d="M713 251h-306c1 -121 27 -198 142 -198c49 0 92 10 153 26l6 -13c-60 -47 -139 -82 -203 -82c-83 0 -143 31 -179 82l-5 2c-36 -37 -89 -84 -161 -84c-84 0 -133 43 -133 105c0 92 105 141 258 142v92c0 57 -23 97 -107 97c-14 0 -30 -1 -48 -4c27 -22 41 -53 41 -78
c0 -33 -25 -64 -62 -64c-41 0 -65 32 -65 66c0 84 132 129 227 129c51 0 87 -16 107 -47c38 30 84 47 132 47c141 0 206 -93 203 -218zM503 437c-53 0 -90 -62 -96 -156l180 10c-2 100 -28 146 -84 146zM315 84c-19 34 -29 76 -30 123c-89 -7 -124 -38 -124 -91
c0 -44 28 -70 63 -70c33 0 64 17 91 38zM481 713c27 -17 32 -55 8 -86c-29 -38 -81 -80 -135 -123l-13 9c15 67 34 131 58 173c18 32 54 45 82 27z" />
    <glyph glyph-name="aeacute.sc" horiz-adv-x="794" 
d="M758 166l-15 -166h-467v16l68 22v142h-159l-91 -138l60 -27v-15h-182v15l61 30l294 410l-75 27v15h479l11 -171l-17 -5l-61 83c-27 37 -52 57 -105 59l-80 3v-198h38c41 0 60 14 78 62l9 24h19v-211h-19l-10 24c-20 47 -36 61 -77 61h-38v-196l100 5c41 2 74 21 98 52
l64 82zM344 215v203h-2l-134 -203h136zM558 753c27 -17 32 -55 8 -86c-29 -38 -81 -80 -135 -123l-13 9c15 67 34 131 58 173c18 32 54 45 82 27z" />
    <glyph glyph-name="Agrave" unicode="&#xc0;" horiz-adv-x="641" 
d="M573 46l80 -29v-17h-316v17l79 24l-60 174h-178l-58 -168l67 -30v-17h-204v17l68 33l236 593h63zM344 251l-76 218h-2l-75 -218h153zM371 706l-13 -9c-54 43 -106 85 -135 123c-24 31 -19 68 9 86c27 17 65 5 82 -27c23 -42 41 -104 57 -173z" />
    <glyph glyph-name="agrave" unicode="&#xe0;" horiz-adv-x="483" 
d="M412 332v-253c0 -37 14 -61 68 -66l2 -12c-35 -9 -71 -19 -111 -19c-38 0 -78 14 -82 63l-5 2c-36 -37 -80 -63 -136 -63c-75 0 -121 43 -121 105c0 92 104 141 257 142v92c0 57 -23 97 -106 97c-14 0 -31 -1 -49 -4c28 -22 42 -53 42 -78c0 -33 -26 -64 -63 -64
c-41 0 -65 31 -65 66c0 84 133 129 227 129c89 0 142 -47 142 -137zM284 65v142c-92 -6 -123 -36 -123 -91c0 -44 27 -70 63 -70c20 0 37 6 60 19zM287 513l-13 -9c-54 43 -106 85 -135 123c-24 31 -19 68 9 86c27 17 65 5 82 -27c23 -42 41 -104 57 -173z" />
    <glyph glyph-name="agrave.sc" horiz-adv-x="537" 
d="M289 182l-68 182h-2l-64 -182h134zM143 147l-36 -102l61 -30v-15h-183v15l66 33l188 456h63l182 -465l58 -24v-15h-258v13l59 24l-41 110h-159zM322 560l-13 -9c-54 43 -106 85 -135 123c-24 31 -19 68 9 86c27 17 65 5 82 -27c23 -42 41 -104 57 -173z" />
    <glyph glyph-name="Amacron" unicode="&#x100;" horiz-adv-x="641" 
d="M573 46l80 -29v-17h-316v17l79 24l-60 174h-178l-58 -168l67 -30v-17h-204v17l68 33l236 593h63zM344 251l-76 218h-2l-75 -218h153zM458 799v-67h-276v67h276z" />
    <glyph glyph-name="amacron" unicode="&#x101;" horiz-adv-x="483" 
d="M412 332v-253c0 -37 14 -61 68 -66l2 -12c-35 -9 -71 -19 -111 -19c-38 0 -78 14 -82 63l-5 2c-36 -37 -80 -63 -136 -63c-75 0 -121 43 -121 105c0 92 104 141 257 142v92c0 57 -23 97 -106 97c-14 0 -31 -1 -49 -4c28 -22 42 -53 42 -78c0 -33 -26 -64 -63 -64
c-41 0 -65 31 -65 66c0 84 133 129 227 129c89 0 142 -47 142 -137zM284 65v142c-92 -6 -123 -36 -123 -91c0 -44 27 -70 63 -70c20 0 37 6 60 19zM374 606v-67h-276v67h276z" />
    <glyph glyph-name="amacron.sc" horiz-adv-x="537" 
d="M289 182l-68 182h-2l-64 -182h134zM143 147l-36 -102l61 -30v-15h-183v15l66 33l188 456h63l182 -465l58 -24v-15h-258v13l59 24l-41 110h-159zM409 653v-67h-276v67h276z" />
    <glyph glyph-name="Aogonek" unicode="&#x104;" horiz-adv-x="641" 
d="M573 46l80 -29v-17h-67c-64 -58 -70 -109 -70 -131c0 -37 17 -68 54 -68c22 0 36 7 43 15l11 -8c-17 -35 -52 -61 -95 -61c-61 0 -99 43 -99 95c0 51 40 112 119 158h-212v17l79 24l-60 174h-178l-58 -168l67 -30v-17h-204v17l68 33l236 593h63zM344 251l-76 218h-2
l-75 -218h153z" />
    <glyph glyph-name="aogonek" unicode="&#x105;" horiz-adv-x="483" 
d="M412 332v-253c0 -37 14 -61 68 -66l2 -12c-66 -35 -103 -92 -103 -135c0 -34 19 -65 54 -65c22 0 36 7 43 15l11 -8c-17 -35 -52 -61 -95 -61c-61 0 -99 43 -99 95s40 107 113 143c-11 -2 -23 -3 -35 -3c-38 0 -78 14 -82 63l-5 2c-36 -37 -80 -63 -136 -63
c-75 0 -121 43 -121 105c0 92 104 141 257 142v92c0 57 -23 97 -106 97c-14 0 -31 -1 -49 -4c28 -22 42 -53 42 -78c0 -33 -26 -64 -63 -64c-41 0 -65 31 -65 66c0 84 133 129 227 129c89 0 142 -47 142 -137zM284 65v142c-92 -6 -123 -36 -123 -91c0 -44 27 -70 63 -70
c20 0 37 6 60 19z" />
    <glyph glyph-name="aogonek.sc" horiz-adv-x="537" 
d="M143 147l-36 -102l61 -30v-15h-183v15l66 33l188 456h63l182 -465l58 -24v-15h-43c-64 -58 -70 -109 -70 -131c0 -37 17 -68 54 -68c22 0 36 7 43 15l11 -8c-17 -35 -52 -61 -95 -61c-61 0 -99 43 -99 95c0 51 40 112 119 158h-178v13l59 24l-41 110h-159zM289 182
l-68 182h-2l-64 -182h134z" />
    <glyph glyph-name="Aring" unicode="&#xc5;" horiz-adv-x="641" 
d="M573 46l80 -29v-17h-316v17l79 24l-60 174h-178l-58 -168l67 -30v-17h-204v17l68 33l232 584c-43 13 -65 51 -65 92c0 48 38 96 105 96c66 0 99 -44 99 -95c0 -39 -24 -79 -69 -93zM266 469l-75 -218h153l-76 218h-2zM284 725c0 -44 11 -69 37 -69c28 0 35 26 35 71
c0 44 -9 69 -37 69c-26 0 -35 -26 -35 -71z" />
    <glyph glyph-name="aring" unicode="&#xe5;" horiz-adv-x="483" 
d="M412 332v-253c0 -37 14 -61 68 -66l2 -12c-35 -9 -71 -19 -111 -19c-38 0 -78 14 -82 63l-5 2c-36 -37 -80 -63 -136 -63c-75 0 -121 43 -121 105c0 92 104 141 257 142v92c0 57 -23 97 -106 97c-14 0 -31 -1 -49 -4c28 -22 42 -53 42 -78c0 -33 -26 -64 -63 -64
c-41 0 -65 31 -65 66c0 84 133 129 227 129c89 0 142 -47 142 -137zM284 65v142c-92 -6 -123 -36 -123 -91c0 -44 27 -70 63 -70c20 0 37 6 60 19zM338 598c0 -48 -37 -98 -104 -98c-66 0 -100 46 -100 97c0 48 38 96 105 96c66 0 99 -44 99 -95zM272 598c0 44 -9 69 -37 69
c-26 0 -35 -26 -35 -71c0 -44 11 -69 37 -69c28 0 35 26 35 71z" />
    <glyph glyph-name="aring.sc" horiz-adv-x="537" 
d="M289 182l-68 182h-2l-64 -182h134zM306 583c0 44 -9 69 -37 69c-26 0 -35 -26 -35 -71c0 -44 11 -69 37 -69c28 0 35 26 35 71zM233 490c-43 13 -65 51 -65 92c0 48 38 96 105 96c66 0 99 -44 99 -95c0 -38 -23 -77 -65 -92l177 -452l58 -24v-15h-258v13l59 24l-41 110
h-159l-36 -102l61 -30v-15h-183v15l66 33z" />
    <glyph glyph-name="Aringacute" unicode="&#x1fa;" horiz-adv-x="641" 
d="M573 46l80 -29v-17h-316v17l79 24l-60 174h-178l-58 -168l67 -30v-17h-204v17l68 33l232 584c-43 13 -65 51 -65 92c0 48 38 96 105 96c66 0 99 -44 99 -95c0 -39 -24 -79 -69 -93zM266 469l-75 -218h153l-76 218h-2zM284 725c0 -44 11 -69 37 -69c28 0 35 26 35 71
c0 44 -9 69 -37 69c-26 0 -35 -26 -35 -71zM431 1055c27 -17 32 -55 8 -86c-29 -38 -81 -80 -135 -123l-13 9c15 67 34 131 58 173c18 32 54 45 82 27z" />
    <glyph glyph-name="aringacute" unicode="&#x1fb;" horiz-adv-x="483" 
d="M412 332v-253c0 -37 14 -61 68 -66l2 -12c-35 -9 -71 -19 -111 -19c-38 0 -78 14 -82 63l-5 2c-36 -37 -80 -63 -136 -63c-75 0 -121 43 -121 105c0 92 104 141 257 142v92c0 57 -23 97 -106 97c-14 0 -31 -1 -49 -4c28 -22 42 -53 42 -78c0 -33 -26 -64 -63 -64
c-41 0 -65 31 -65 66c0 84 133 129 227 129c89 0 142 -47 142 -137zM284 65v142c-92 -6 -123 -36 -123 -91c0 -44 27 -70 63 -70c20 0 37 6 60 19zM349 596c0 -48 -37 -98 -104 -98c-66 0 -100 46 -100 97c0 48 38 96 105 96c66 0 99 -44 99 -95zM283 596c0 44 -9 69 -37 69
c-26 0 -35 -26 -35 -71c0 -44 11 -69 37 -69c28 0 35 26 35 71zM355 923c27 -17 32 -55 8 -86c-29 -38 -81 -80 -135 -123l-13 9c15 67 34 131 58 173c18 32 54 45 82 27z" />
    <glyph glyph-name="aringacute.sc" horiz-adv-x="537" 
d="M289 182l-68 182h-2l-64 -182h134zM306 583c0 44 -9 69 -37 69c-26 0 -35 -26 -35 -71c0 -44 11 -69 37 -69c28 0 35 26 35 71zM233 490c-43 13 -65 51 -65 92c0 48 38 96 105 96c66 0 99 -44 99 -95c0 -38 -23 -77 -65 -92l177 -452l58 -24v-15h-258v13l59 24l-41 110
h-159l-36 -102l61 -30v-15h-183v15l66 33zM379 911c27 -17 32 -55 8 -86c-29 -38 -81 -80 -135 -123l-13 9c15 67 34 131 58 173c18 32 54 45 82 27z" />
    <glyph glyph-name="Atilde" unicode="&#xc3;" horiz-adv-x="641" 
d="M573 46l80 -29v-17h-316v17l79 24l-60 174h-178l-58 -168l67 -30v-17h-204v17l68 33l236 593h63zM344 251l-76 218h-2l-75 -218h153zM170 717c13 85 37 128 100 128c57 0 97 -40 142 -40c22 0 39 12 53 47l22 -6c-6 -89 -30 -131 -93 -131c-58 0 -104 43 -149 43
c-22 0 -39 -12 -53 -47z" />
    <glyph glyph-name="atilde" unicode="&#xe3;" horiz-adv-x="483" 
d="M412 332v-253c0 -37 14 -61 68 -66l2 -12c-35 -9 -71 -19 -111 -19c-38 0 -78 14 -82 63l-5 2c-36 -37 -80 -63 -136 -63c-75 0 -121 43 -121 105c0 92 104 141 257 142v92c0 57 -23 97 -106 97c-14 0 -31 -1 -49 -4c28 -22 42 -53 42 -78c0 -33 -26 -64 -63 -64
c-41 0 -65 31 -65 66c0 84 133 129 227 129c89 0 142 -47 142 -137zM284 65v142c-92 -6 -123 -36 -123 -91c0 -44 27 -70 63 -70c20 0 37 6 60 19zM86 524c13 85 37 128 100 128c57 0 97 -40 142 -40c22 0 39 12 53 47l22 -6c-6 -89 -30 -131 -93 -131
c-58 0 -104 43 -149 43c-22 0 -39 -12 -53 -47z" />
    <glyph glyph-name="atilde.sc" horiz-adv-x="537" 
d="M289 182l-68 182h-2l-64 -182h134zM143 147l-36 -102l61 -30v-15h-183v15l66 33l188 456h63l182 -465l58 -24v-15h-258v13l59 24l-41 110h-159zM121 571c13 85 37 128 100 128c57 0 97 -40 142 -40c22 0 39 12 53 47l22 -6c-6 -89 -30 -131 -93 -131
c-58 0 -104 43 -149 43c-22 0 -39 -12 -53 -47z" />
    <glyph glyph-name="Cacute" unicode="&#x106;" horiz-adv-x="670" 
d="M623 191l-21 -166c-65 -26 -123 -40 -214 -40c-207 0 -343 126 -343 327c0 185 146 340 352 340c50 0 115 -11 153 -31l34 34h14l14 -242l-25 -2c-49 124 -127 203 -208 203c-86 0 -169 -77 -169 -285c0 -187 78 -301 207 -301c28 0 42 2 72 9l119 158zM488 906
c27 -17 32 -55 8 -86c-29 -38 -81 -80 -135 -123l-13 9c15 67 34 131 58 173c18 32 54 45 82 27z" />
    <glyph glyph-name="cacute" unicode="&#x107;" horiz-adv-x="478" 
d="M457 361c0 -41 -27 -75 -67 -75c-45 0 -72 35 -72 71c0 30 12 57 25 75c-10 2 -16 2 -30 2c-82 0 -148 -55 -148 -188c0 -118 66 -193 146 -193c49 0 88 13 137 29l6 -12c-60 -56 -123 -86 -194 -86c-129 0 -230 94 -230 233c0 138 103 252 255 252
c105 0 172 -50 172 -108zM376 713c27 -17 32 -55 8 -86c-29 -38 -81 -80 -135 -123l-13 9c15 67 34 131 58 173c18 32 54 45 82 27z" />
    <glyph glyph-name="cacute.sc" horiz-adv-x="548" 
d="M508 167l-19 -153c-37 -17 -93 -29 -149 -29c-153 0 -304 58 -304 257c0 149 116 270 284 270c43 0 92 -12 124 -29l28 30h12l15 -198l-21 -2c-60 109 -111 164 -170 164c-66 0 -126 -64 -126 -220c0 -168 75 -235 173 -235c9 0 24 2 31 4l107 145zM407 760
c27 -17 32 -55 8 -86c-29 -38 -81 -80 -135 -123l-13 9c15 67 34 131 58 173c18 32 54 45 82 27z" />
    <glyph glyph-name="Ccaron" unicode="&#x10c;" horiz-adv-x="670" 
d="M623 191l-21 -166c-65 -26 -123 -40 -214 -40c-207 0 -343 126 -343 327c0 185 146 340 352 340c50 0 115 -11 153 -31l34 34h14l14 -242l-25 -2c-49 124 -127 203 -208 203c-86 0 -169 -77 -169 -285c0 -187 78 -301 207 -301c28 0 42 2 72 9l119 158zM383 824l128 74
l15 -12l-136 -183h-21l-129 183l15 12z" />
    <glyph glyph-name="ccaron" unicode="&#x10d;" horiz-adv-x="478" 
d="M457 361c0 -41 -27 -75 -67 -75c-45 0 -72 35 -72 71c0 30 12 57 25 75c-10 2 -16 2 -30 2c-82 0 -148 -55 -148 -188c0 -118 66 -193 146 -193c49 0 88 13 137 29l6 -12c-60 -56 -123 -86 -194 -86c-129 0 -230 94 -230 233c0 138 103 252 255 252
c105 0 172 -50 172 -108zM271 631l128 74l15 -12l-136 -183h-21l-129 183l15 12z" />
    <glyph glyph-name="ccaron.sc" horiz-adv-x="548" 
d="M508 167l-19 -153c-37 -17 -93 -29 -149 -29c-153 0 -304 58 -304 257c0 149 116 270 284 270c43 0 92 -12 124 -29l28 30h12l15 -198l-21 -2c-60 109 -111 164 -170 164c-66 0 -126 -64 -126 -220c0 -168 75 -235 173 -235c9 0 24 2 31 4l107 145zM302 678l128 74
l15 -12l-136 -183h-21l-129 183l15 12z" />
    <glyph glyph-name="Ccedilla" unicode="&#xc7;" horiz-adv-x="670" 
d="M210 329c0 -187 78 -301 207 -301c25 0 41 1 72 9l119 158l15 -4l-21 -166c-53 -21 -102 -34 -167 -39l-64 -54c54 -13 80 -46 80 -94c0 -57 -50 -103 -120 -103c-51 0 -87 29 -87 60c0 23 16 40 37 40c24 0 36 -18 36 -39c0 -11 -5 -23 -14 -33c7 -2 12 -3 24 -3
c27 0 49 22 49 58c0 38 -26 59 -55 59c-14 0 -23 -1 -32 -4l-12 12l115 100c-212 0 -347 125 -347 327c0 185 146 340 352 340c50 0 115 -11 153 -31l34 34h14l14 -242l-25 -2c-49 124 -127 203 -208 203c-86 0 -169 -77 -169 -285z" />
    <glyph glyph-name="ccedilla" unicode="&#xe7;" horiz-adv-x="478" 
d="M165 246c0 -118 66 -193 146 -193c49 0 88 13 137 29l6 -12c-32 -30 -65 -53 -100 -67l-82 -71c54 -13 80 -46 80 -94c0 -57 -50 -103 -120 -103c-51 0 -87 29 -87 60c0 23 16 40 37 40c24 0 36 -18 36 -39c0 -11 -5 -23 -14 -33c7 -2 12 -3 24 -3c27 0 49 22 49 58
c0 38 -26 59 -55 59c-14 0 -23 -1 -32 -4l-12 12l115 101c-11 -1 -22 -2 -33 -2c-129 0 -230 94 -230 233c0 138 103 252 255 252c105 0 172 -50 172 -108c0 -41 -27 -75 -67 -75c-45 0 -72 35 -72 71c0 30 12 57 25 75c-10 2 -16 2 -30 2c-82 0 -148 -55 -148 -188z" />
    <glyph glyph-name="ccedilla.sc" horiz-adv-x="548" 
d="M315 -14h-4c-143 7 -275 70 -275 256c0 149 116 270 284 270c43 0 92 -12 124 -29l28 30h12l15 -198l-21 -2c-60 109 -111 164 -170 164c-66 0 -126 -64 -126 -220c0 -168 75 -235 168 -235c12 0 27 2 40 5l103 144l15 -4l-19 -153c-33 -15 -82 -27 -133 -29l-61 -53
c54 -13 80 -46 80 -94c0 -57 -50 -103 -120 -103c-51 0 -87 29 -87 60c0 23 16 40 37 40c24 0 36 -18 36 -39c0 -11 -5 -23 -14 -33c7 -2 12 -3 24 -3c27 0 49 22 49 58c0 38 -26 59 -55 59c-14 0 -23 -1 -32 -4l-12 12z" />
    <glyph glyph-name="Cdotaccent" unicode="&#x10a;" horiz-adv-x="670" 
d="M623 191l-21 -166c-65 -26 -123 -40 -214 -40c-207 0 -343 126 -343 327c0 185 146 340 352 340c50 0 115 -11 153 -31l34 34h14l14 -242l-25 -2c-49 124 -127 203 -208 203c-86 0 -169 -77 -169 -285c0 -187 78 -301 207 -301c28 0 42 2 72 9l119 158zM458 799
c0 -40 -33 -78 -76 -78c-41 0 -69 31 -69 71s33 78 76 78c41 0 69 -30 69 -71z" />
    <glyph glyph-name="cdotaccent" unicode="&#x10b;" horiz-adv-x="478" 
d="M457 361c0 -41 -27 -75 -67 -75c-45 0 -72 35 -72 71c0 30 12 57 25 75c-10 2 -16 2 -30 2c-82 0 -148 -55 -148 -188c0 -118 66 -193 146 -193c49 0 88 13 137 29l6 -12c-60 -56 -123 -86 -194 -86c-129 0 -230 94 -230 233c0 138 103 252 255 252
c105 0 172 -50 172 -108zM346 606c0 -40 -33 -78 -76 -78c-41 0 -69 31 -69 71s33 78 76 78c41 0 69 -30 69 -71z" />
    <glyph glyph-name="cdotaccent.sc" horiz-adv-x="548" 
d="M508 167l-19 -153c-37 -17 -93 -29 -149 -29c-153 0 -304 58 -304 257c0 149 116 270 284 270c43 0 92 -12 124 -29l28 30h12l15 -198l-21 -2c-60 109 -111 164 -170 164c-66 0 -126 -64 -126 -220c0 -168 75 -235 173 -235c9 0 24 2 31 4l107 145zM377 653
c0 -40 -33 -78 -76 -78c-41 0 -69 31 -69 71s33 78 76 78c41 0 69 -30 69 -71z" />
    <glyph glyph-name="Dcaron" unicode="&#x10e;" horiz-adv-x="738" 
d="M115 596l-87 24v17h308c234 0 357 -138 357 -318c0 -181 -138 -319 -364 -319h-301v17l87 24v555zM528 319c0 199 -87 272 -213 280l-50 3v-566l73 4c117 6 190 80 190 279zM349 817l128 74l15 -12l-136 -183h-21l-129 183l15 12z" />
    <glyph glyph-name="dcaron" unicode="&#x10f;" horiz-adv-x="568" 
d="M495 55l66 -25v-10l-180 -37l-4 2l-8 54l-4 2l-15 -12c-35 -28 -76 -45 -119 -45c-104 0 -198 75 -198 229c0 156 117 256 250 256c35 0 59 -4 83 -11v172l-65 47v10l189 54l5 -3v-683zM170 245c0 -129 47 -194 132 -194c20 0 45 9 64 21v314c-25 32 -48 49 -92 49
c-51 0 -104 -50 -104 -190zM553 505l-3 34c-2 26 -3 55 -3 78c0 66 8 124 63 124c29 0 49 -24 49 -55c0 -43 -48 -118 -91 -185z" />
    <glyph glyph-name="dcaron.sc" 
d="M94 459l-68 22v16h253c188 0 288 -99 288 -246c0 -150 -109 -251 -292 -251h-249v16l68 22v421zM420 249c0 147 -63 208 -150 214l-41 3v-434l56 3c80 4 135 66 135 214zM296 671l128 74l15 -12l-136 -183h-21l-129 183l15 12z" />
    <glyph glyph-name="Dcroat" unicode="&#x110;" horiz-adv-x="738" 
d="M693 319c0 -181 -138 -319 -364 -319h-301v17l87 24v264h-85v45h85v246l-87 24v17h308c234 0 357 -138 357 -318zM528 319c0 199 -87 272 -213 280l-50 3v-252h116v-45h-116v-269l73 4c117 6 190 80 190 279z" />
    <glyph glyph-name="dcroat" unicode="&#x111;" horiz-adv-x="568" 
d="M495 55l66 -25v-10l-180 -37l-4 2l-8 54l-4 2l-15 -12c-35 -28 -76 -45 -119 -45c-104 0 -198 75 -198 229c0 156 117 256 250 256c35 0 59 -4 83 -11v85h-127v43h127v44l-65 47v10l189 54l5 -3v-152h72v-43h-72v-488zM170 245c0 -129 47 -194 132 -194c20 0 45 9 64 21
v314c-25 32 -48 49 -92 49c-51 0 -104 -50 -104 -190z" />
    <glyph glyph-name="dcroat.sc" 
d="M229 278h97v-45h-97v-201l56 3c80 4 135 66 135 214c0 147 -63 208 -150 214l-41 3v-188zM94 233h-68v45h68v181l-68 22v16h253c188 0 288 -99 288 -246c0 -150 -109 -251 -292 -251h-249v16l68 22v195z" />
    <glyph glyph-name="Eacute" unicode="&#xc9;" horiz-adv-x="652" 
d="M570 637l14 -215l-19 -5l-78 110c-36 51 -61 69 -131 72l-91 4v-265h34c57 0 80 20 103 82l12 33h21v-269h-21l-12 31c-24 62 -46 82 -103 82h-34v-262l123 6c56 3 89 24 122 66l81 104l19 -4l-19 -207h-563v17l87 24v555l-87 24v17h542zM422 899c27 -17 32 -55 8 -86
c-29 -38 -81 -80 -135 -123l-13 9c15 67 34 131 58 173c18 32 54 45 82 27z" />
    <glyph glyph-name="eacute" unicode="&#xe9;" horiz-adv-x="499" 
d="M471 251h-306c1 -122 27 -198 141 -198c50 0 92 9 154 26l6 -13c-60 -47 -139 -82 -203 -82c-145 0 -233 94 -233 233c0 145 118 252 238 252c140 0 206 -93 203 -218zM166 280l179 11c-2 100 -29 146 -84 146c-53 0 -90 -62 -95 -157zM369 713c27 -17 32 -55 8 -86
c-29 -38 -81 -80 -135 -123l-13 9c15 67 34 131 58 173c18 32 54 45 82 27z" />
    <glyph glyph-name="eacute.sc" horiz-adv-x="544" 
d="M481 497l11 -171l-17 -5l-61 83c-27 37 -52 57 -105 59l-80 3v-198h38c41 0 60 14 78 62l9 24h19v-211h-19l-10 24c-20 47 -36 61 -77 61h-38v-196l100 5c41 2 74 21 98 52l64 82l17 -5l-15 -166h-467v16l68 22v421l-68 22v16h455zM368 753c27 -17 32 -55 8 -86
c-29 -38 -81 -80 -135 -123l-13 9c15 67 34 131 58 173c18 32 54 45 82 27z" />
    <glyph glyph-name="Ebreve" unicode="&#x114;" horiz-adv-x="652" 
d="M570 637l14 -215l-19 -5l-78 110c-36 51 -61 69 -131 72l-91 4v-265h34c57 0 80 20 103 82l12 33h21v-269h-21l-12 31c-24 62 -46 82 -103 82h-34v-262l123 6c56 3 89 24 122 66l81 104l19 -4l-19 -207h-563v17l87 24v555l-87 24v17h542zM318 803c57 0 108 28 128 71
l22 -6c-12 -93 -62 -157 -150 -157c-87 0 -139 64 -147 157l22 6c17 -43 68 -71 125 -71z" />
    <glyph glyph-name="ebreve" unicode="&#x115;" horiz-adv-x="499" 
d="M471 251h-306c1 -122 27 -198 141 -198c50 0 92 9 154 26l6 -13c-60 -47 -139 -82 -203 -82c-145 0 -233 94 -233 233c0 145 118 252 238 252c140 0 206 -93 203 -218zM166 280l179 11c-2 100 -29 146 -84 146c-53 0 -90 -62 -95 -157zM265 617c57 0 108 28 128 71l22 -6
c-12 -93 -62 -157 -150 -157c-87 0 -139 64 -147 157l22 6c17 -43 68 -71 125 -71z" />
    <glyph glyph-name="ebreve.sc" horiz-adv-x="544" 
d="M481 497l11 -171l-17 -5l-61 83c-27 37 -52 57 -105 59l-80 3v-198h38c41 0 60 14 78 62l9 24h19v-211h-19l-10 24c-20 47 -36 61 -77 61h-38v-196l100 5c41 2 74 21 98 52l64 82l17 -5l-15 -166h-467v16l68 22v421l-68 22v16h455zM264 657c57 0 108 28 128 71l22 -6
c-12 -93 -62 -157 -150 -157c-87 0 -139 64 -147 157l22 6c17 -43 68 -71 125 -71z" />
    <glyph glyph-name="Ecaron" unicode="&#x11a;" horiz-adv-x="652" 
d="M570 637l14 -215l-19 -5l-78 110c-36 51 -61 69 -131 72l-91 4v-265h34c57 0 80 20 103 82l12 33h21v-269h-21l-12 31c-24 62 -46 82 -103 82h-34v-262l123 6c56 3 89 24 122 66l81 104l19 -4l-19 -207h-563v17l87 24v555l-87 24v17h542zM317 817l128 74l15 -12
l-136 -183h-21l-129 183l15 12z" />
    <glyph glyph-name="ecaron" unicode="&#x11b;" horiz-adv-x="499" 
d="M471 251h-306c1 -122 27 -198 141 -198c50 0 92 9 154 26l6 -13c-60 -47 -139 -82 -203 -82c-145 0 -233 94 -233 233c0 145 118 252 238 252c140 0 206 -93 203 -218zM166 280l179 11c-2 100 -29 146 -84 146c-53 0 -90 -62 -95 -157zM264 631l128 74l15 -12l-136 -183
h-21l-129 183l15 12z" />
    <glyph glyph-name="ecaron.sc" horiz-adv-x="544" 
d="M481 497l11 -171l-17 -5l-61 83c-27 37 -52 57 -105 59l-80 3v-198h38c41 0 60 14 78 62l9 24h19v-211h-19l-10 24c-20 47 -36 61 -77 61h-38v-196l100 5c41 2 74 21 98 52l64 82l17 -5l-15 -166h-467v16l68 22v421l-68 22v16h455zM263 671l128 74l15 -12l-136 -183h-21
l-129 183l15 12z" />
    <glyph glyph-name="Ecircumflex" unicode="&#xca;" horiz-adv-x="652" 
d="M570 637l14 -215l-19 -5l-78 110c-36 51 -61 69 -131 72l-91 4v-265h34c57 0 80 20 103 82l12 33h21v-269h-21l-12 31c-24 62 -46 82 -103 82h-34v-262l123 6c56 3 89 24 122 66l81 104l19 -4l-19 -207h-563v17l87 24v555l-87 24v17h542zM317 767l-128 -74l-15 13
l136 183h21l129 -183l-15 -13z" />
    <glyph glyph-name="ecircumflex" unicode="&#xea;" horiz-adv-x="499" 
d="M471 251h-306c1 -122 27 -198 141 -198c50 0 92 9 154 26l6 -13c-60 -47 -139 -82 -203 -82c-145 0 -233 94 -233 233c0 145 118 252 238 252c140 0 206 -93 203 -218zM166 280l179 11c-2 100 -29 146 -84 146c-53 0 -90 -62 -95 -157zM264 581l-128 -74l-15 13l136 183
h21l129 -183l-15 -13z" />
    <glyph glyph-name="ecircumflex.sc" horiz-adv-x="544" 
d="M481 497l11 -171l-17 -5l-61 83c-27 37 -52 57 -105 59l-80 3v-198h38c41 0 60 14 78 62l9 24h19v-211h-19l-10 24c-20 47 -36 61 -77 61h-38v-196l100 5c41 2 74 21 98 52l64 82l17 -5l-15 -166h-467v16l68 22v421l-68 22v16h455zM263 621l-128 -74l-15 13l136 183h21
l129 -183l-15 -13z" />
    <glyph glyph-name="Edieresis" unicode="&#xcb;" horiz-adv-x="652" 
d="M570 637l14 -215l-19 -5l-78 110c-36 51 -61 69 -131 72l-91 4v-265h34c57 0 80 20 103 82l12 33h21v-269h-21l-12 31c-24 62 -46 82 -103 82h-34v-262l123 6c56 3 89 24 122 66l81 104l19 -4l-19 -207h-563v17l87 24v555l-87 24v17h542zM410 714c-40 0 -69 31 -69 71
s33 78 77 78c40 0 69 -30 69 -71c0 -40 -33 -78 -77 -78zM219 714c-41 0 -69 31 -69 71s33 78 76 78c41 0 69 -30 69 -71c0 -40 -33 -78 -76 -78z" />
    <glyph glyph-name="edieresis" unicode="&#xeb;" horiz-adv-x="499" 
d="M471 251h-306c1 -122 27 -198 141 -198c50 0 92 9 154 26l6 -13c-60 -47 -139 -82 -203 -82c-145 0 -233 94 -233 233c0 145 118 252 238 252c140 0 206 -93 203 -218zM166 280l179 11c-2 100 -29 146 -84 146c-53 0 -90 -62 -95 -157zM357 528c-40 0 -69 31 -69 71
s33 78 77 78c40 0 69 -30 69 -71c0 -40 -33 -78 -77 -78zM166 528c-41 0 -69 31 -69 71s33 78 76 78c41 0 69 -30 69 -71c0 -40 -33 -78 -76 -78z" />
    <glyph glyph-name="edieresis.sc" horiz-adv-x="544" 
d="M481 497l11 -171l-17 -5l-61 83c-27 37 -52 57 -105 59l-80 3v-198h38c41 0 60 14 78 62l9 24h19v-211h-19l-10 24c-20 47 -36 61 -77 61h-38v-196l100 5c41 2 74 21 98 52l64 82l17 -5l-15 -166h-467v16l68 22v421l-68 22v16h455zM356 568c-40 0 -69 31 -69 71
s33 78 77 78c40 0 69 -30 69 -71c0 -40 -33 -78 -77 -78zM165 568c-41 0 -69 31 -69 71s33 78 76 78c41 0 69 -30 69 -71c0 -40 -33 -78 -76 -78z" />
    <glyph glyph-name="Edotaccent" unicode="&#x116;" horiz-adv-x="652" 
d="M570 637l14 -215l-19 -5l-78 110c-36 51 -61 69 -131 72l-91 4v-265h34c57 0 80 20 103 82l12 33h21v-269h-21l-12 31c-24 62 -46 82 -103 82h-34v-262l123 6c56 3 89 24 122 66l81 104l19 -4l-19 -207h-563v17l87 24v555l-87 24v17h542zM392 792c0 -40 -33 -78 -76 -78
c-41 0 -69 31 -69 71s33 78 76 78c41 0 69 -30 69 -71z" />
    <glyph glyph-name="edotaccent" unicode="&#x117;" horiz-adv-x="499" 
d="M471 251h-306c1 -122 27 -198 141 -198c50 0 92 9 154 26l6 -13c-60 -47 -139 -82 -203 -82c-145 0 -233 94 -233 233c0 145 118 252 238 252c140 0 206 -93 203 -218zM166 280l179 11c-2 100 -29 146 -84 146c-53 0 -90 -62 -95 -157zM339 606c0 -40 -33 -78 -76 -78
c-41 0 -69 31 -69 71s33 78 76 78c41 0 69 -30 69 -71z" />
    <glyph glyph-name="edotaccent.sc" horiz-adv-x="544" 
d="M481 497l11 -171l-17 -5l-61 83c-27 37 -52 57 -105 59l-80 3v-198h38c41 0 60 14 78 62l9 24h19v-211h-19l-10 24c-20 47 -36 61 -77 61h-38v-196l100 5c41 2 74 21 98 52l64 82l17 -5l-15 -166h-467v16l68 22v421l-68 22v16h455zM338 646c0 -40 -33 -78 -76 -78
c-41 0 -69 31 -69 71s33 78 76 78c41 0 69 -30 69 -71z" />
    <glyph glyph-name="Egrave" unicode="&#xc8;" horiz-adv-x="652" 
d="M570 637l14 -215l-19 -5l-78 110c-36 51 -61 69 -131 72l-91 4v-265h34c57 0 80 20 103 82l12 33h21v-269h-21l-12 31c-24 62 -46 82 -103 82h-34v-262l123 6c56 3 89 24 122 66l81 104l19 -4l-19 -207h-563v17l87 24v555l-87 24v17h542zM369 699l-13 -9
c-54 43 -106 85 -135 123c-24 31 -19 68 9 86c27 17 65 5 82 -27c23 -42 41 -104 57 -173z" />
    <glyph glyph-name="egrave" unicode="&#xe8;" horiz-adv-x="499" 
d="M471 251h-306c1 -122 27 -198 141 -198c50 0 92 9 154 26l6 -13c-60 -47 -139 -82 -203 -82c-145 0 -233 94 -233 233c0 145 118 252 238 252c140 0 206 -93 203 -218zM166 280l179 11c-2 100 -29 146 -84 146c-53 0 -90 -62 -95 -157zM316 513l-13 -9
c-54 43 -106 85 -135 123c-24 31 -19 68 9 86c27 17 65 5 82 -27c23 -42 41 -104 57 -173z" />
    <glyph glyph-name="egrave.sc" horiz-adv-x="544" 
d="M481 497l11 -171l-17 -5l-61 83c-27 37 -52 57 -105 59l-80 3v-198h38c41 0 60 14 78 62l9 24h19v-211h-19l-10 24c-20 47 -36 61 -77 61h-38v-196l100 5c41 2 74 21 98 52l64 82l17 -5l-15 -166h-467v16l68 22v421l-68 22v16h455zM315 553l-13 -9
c-54 43 -106 85 -135 123c-24 31 -19 68 9 86c27 17 65 5 82 -27c23 -42 41 -104 57 -173z" />
    <glyph glyph-name="Emacron" unicode="&#x112;" horiz-adv-x="652" 
d="M570 637l14 -215l-19 -5l-78 110c-36 51 -61 69 -131 72l-91 4v-265h34c57 0 80 20 103 82l12 33h21v-269h-21l-12 31c-24 62 -46 82 -103 82h-34v-262l123 6c56 3 89 24 122 66l81 104l19 -4l-19 -207h-563v17l87 24v555l-87 24v17h542zM456 792v-67h-276v67h276z" />
    <glyph glyph-name="emacron" unicode="&#x113;" horiz-adv-x="499" 
d="M471 251h-306c1 -122 27 -198 141 -198c50 0 92 9 154 26l6 -13c-60 -47 -139 -82 -203 -82c-145 0 -233 94 -233 233c0 145 118 252 238 252c140 0 206 -93 203 -218zM166 280l179 11c-2 100 -29 146 -84 146c-53 0 -90 -62 -95 -157zM403 606v-67h-276v67h276z" />
    <glyph glyph-name="emacron.sc" horiz-adv-x="544" 
d="M481 497l11 -171l-17 -5l-61 83c-27 37 -52 57 -105 59l-80 3v-198h38c41 0 60 14 78 62l9 24h19v-211h-19l-10 24c-20 47 -36 61 -77 61h-38v-196l100 5c41 2 74 21 98 52l64 82l17 -5l-15 -166h-467v16l68 22v421l-68 22v16h455zM402 646v-67h-276v67h276z" />
    <glyph glyph-name="Eogonek" unicode="&#x118;" horiz-adv-x="652" 
d="M570 637l14 -215l-19 -5l-78 110c-36 51 -61 69 -131 72l-91 4v-265h34c57 0 80 20 103 82l12 33h21v-269h-21l-12 31c-24 62 -46 82 -103 82h-34v-262l123 6c56 3 89 24 122 66l81 104l19 -4l-19 -207h-41c-64 -58 -70 -109 -70 -131c0 -37 17 -68 54 -68
c22 0 36 7 43 15l11 -8c-17 -35 -52 -61 -95 -61c-61 0 -99 43 -99 95c0 51 40 112 119 158h-485v17l87 24v555l-87 24v17h542z" />
    <glyph glyph-name="eogonek" unicode="&#x119;" horiz-adv-x="499" 
d="M471 251h-306c1 -122 27 -198 141 -198c50 0 92 9 154 26l6 -13c-13 -13 -36 -28 -49 -39c-67 -56 -105 -112 -105 -158c0 -37 17 -68 54 -68c22 0 36 7 43 15l11 -8c-17 -35 -52 -61 -95 -61c-61 0 -99 43 -99 95s37 110 114 156c-28 -9 -52 -14 -77 -14
c-145 0 -233 94 -233 233c0 145 118 252 238 252c140 0 206 -93 203 -218zM166 280l179 11c-2 100 -29 146 -84 146c-53 0 -90 -62 -95 -157z" />
    <glyph glyph-name="eogonek.sc" horiz-adv-x="544" 
d="M481 497l11 -171l-17 -5l-61 83c-27 37 -52 57 -105 59l-80 3v-198h38c41 0 60 14 78 62l9 24h19v-211h-19l-10 24c-20 47 -36 61 -77 61h-38v-196l100 5c41 2 74 21 98 52l64 82l17 -5l-15 -166h-48c-64 -58 -70 -109 -70 -131c0 -37 17 -68 54 -68c22 0 36 7 43 15
l11 -8c-17 -35 -52 -61 -95 -61c-61 0 -99 43 -99 95c0 51 40 112 119 158h-382v16l68 22v421l-68 22v16h455z" />
    <glyph glyph-name="Eth" unicode="&#xd0;" horiz-adv-x="738" 
d="M693 319c0 -181 -138 -319 -364 -319h-301v17l87 24v264h-85v45h85v246l-87 24v17h308c234 0 357 -138 357 -318zM528 319c0 199 -87 272 -213 280l-50 3v-252h116v-45h-116v-269l73 4c117 6 190 80 190 279z" />
    <glyph glyph-name="eth" unicode="&#xf0;" horiz-adv-x="534" 
d="M512 289c0 -174 -100 -304 -255 -304c-141 0 -227 103 -227 240c0 149 100 245 205 245c51 0 86 -16 112 -40l3 2c-14 53 -35 102 -67 146l-107 -45l-17 42l96 40c-36 42 -82 79 -139 110l8 17c83 -22 153 -53 209 -94l106 45l17 -41l-84 -36c94 -84 140 -197 140 -327z
M372 249c0 51 -4 100 -13 147c-26 14 -45 19 -74 19c-73 0 -115 -67 -115 -197c0 -129 39 -199 108 -199c75 0 94 86 94 230z" />
    <glyph glyph-name="eth.sc" 
d="M229 278h97v-45h-97v-201l56 3c80 4 135 66 135 214c0 147 -63 208 -150 214l-41 3v-188zM94 233h-68v45h68v181l-68 22v16h253c188 0 288 -99 288 -246c0 -150 -109 -251 -292 -251h-249v16l68 22v195z" />
    <glyph glyph-name="Gbreve" unicode="&#x11e;" horiz-adv-x="706" 
d="M618 413l-25 -2c-57 116 -126 203 -214 203s-169 -77 -169 -285c0 -210 105 -288 222 -288c17 0 35 2 52 5v204l-80 25v16h285v-16l-61 -25v-255l-16 -4l-86 49c-44 -30 -97 -55 -169 -55c-174 0 -312 134 -312 327c0 185 146 340 352 340c51 0 118 -11 156 -31l34 34h21
zM377 810c57 0 108 28 128 71l22 -6c-12 -93 -62 -157 -150 -157c-87 0 -139 64 -147 157l22 6c17 -43 68 -71 125 -71z" />
    <glyph glyph-name="gbreve" unicode="&#x11f;" horiz-adv-x="513" 
d="M441 320c0 -89 -83 -150 -200 -150c-31 0 -61 4 -86 12c-7 -13 -11 -34 -11 -50c0 -22 15 -35 61 -36l126 -2c106 -2 162 -47 162 -120c0 -80 -107 -181 -275 -181c-136 0 -215 52 -215 109c0 35 32 70 110 92l-1 6c-42 8 -60 30 -60 56c0 35 21 71 81 130v5
c-57 25 -96 71 -96 129c0 88 86 149 204 149c56 0 105 -13 140 -37c44 35 82 62 121 62c43 0 64 -28 64 -59c0 -30 -25 -57 -57 -57s-54 20 -57 50l-49 -10l-2 -4c26 -25 40 -57 40 -94zM310 323c0 73 -23 117 -74 117c-44 0 -73 -26 -73 -117c0 -96 27 -123 78 -123
c44 0 69 50 69 123zM394 -83c0 35 -27 69 -105 70l-154 1c-16 -13 -24 -39 -24 -61c0 -62 46 -98 151 -98c85 0 132 37 132 88zM250 617c57 0 108 28 128 71l22 -6c-12 -93 -62 -157 -150 -157c-87 0 -139 64 -147 157l22 6c17 -43 68 -71 125 -71z" />
    <glyph glyph-name="gbreve.sc" horiz-adv-x="574" 
d="M502 321l-21 -2c-57 101 -111 158 -173 158c-66 0 -126 -57 -126 -218c0 -173 78 -228 163 -228c13 0 25 2 38 4v160l-66 23v15h238v-15l-46 -23v-202l-14 -4l-75 40c-43 -30 -92 -44 -141 -44c-124 0 -243 89 -243 254c0 157 116 273 284 273c47 0 95 -12 127 -29l29 30
h16zM288 664c57 0 108 28 128 71l22 -6c-12 -93 -62 -157 -150 -157c-87 0 -139 64 -147 157l22 6c17 -43 68 -71 125 -71z" />
    <glyph glyph-name="Gcommaaccent" unicode="&#x122;" horiz-adv-x="706" 
d="M618 413l-25 -2c-57 116 -126 203 -214 203s-169 -77 -169 -285c0 -210 105 -288 222 -288c17 0 35 2 52 5v204l-80 25v16h285v-16l-61 -25v-255l-16 -4l-86 49c-44 -30 -97 -55 -169 -55c-174 0 -312 134 -312 327c0 185 146 340 352 340c51 0 118 -11 156 -31l34 34h21
zM439 -160c0 -62 -47 -121 -128 -154l-9 12c63 46 84 86 88 115l-1 1l-11 -3c-8 -2 -16 -4 -24 -4c-30 0 -51 25 -51 56c0 35 27 65 63 65c45 0 73 -36 73 -88z" />
    <glyph glyph-name="gcommaaccent" unicode="&#x123;" horiz-adv-x="513" 
d="M441 320c0 -89 -83 -150 -200 -150c-31 0 -61 4 -86 12c-7 -13 -11 -34 -11 -50c0 -22 15 -35 61 -36l126 -2c106 -2 162 -47 162 -120c0 -80 -107 -181 -275 -181c-136 0 -215 52 -215 109c0 35 32 70 110 92l-1 6c-42 8 -60 30 -60 56c0 35 21 71 81 130v5
c-57 25 -96 71 -96 129c0 88 86 149 204 149c56 0 105 -13 140 -37c44 35 82 62 121 62c43 0 64 -28 64 -59c0 -30 -25 -57 -57 -57s-54 20 -57 50l-49 -10l-2 -4c26 -25 40 -57 40 -94zM310 323c0 73 -23 117 -74 117c-44 0 -73 -26 -73 -117c0 -96 27 -123 78 -123
c44 0 69 50 69 123zM394 -83c0 35 -27 69 -105 70l-154 1c-16 -13 -24 -39 -24 -61c0 -62 46 -98 151 -98c85 0 132 37 132 88zM173 608c0 62 47 121 128 154l9 -12c-63 -46 -84 -86 -88 -115l1 -1l11 3c8 2 16 4 24 4c30 0 51 -25 51 -56c0 -35 -27 -65 -63 -65
c-45 0 -73 36 -73 88z" />
    <glyph glyph-name="gcommaaccent.sc" horiz-adv-x="574" 
d="M502 321l-21 -2c-57 101 -111 158 -173 158c-66 0 -126 -57 -126 -218c0 -173 78 -228 163 -228c13 0 25 2 38 4v160l-66 23v15h238v-15l-46 -23v-202l-14 -4l-75 40c-43 -30 -92 -44 -141 -44c-124 0 -243 89 -243 254c0 157 116 273 284 273c47 0 95 -12 127 -29l29 30
h16zM357 -160c0 -62 -47 -121 -128 -154l-9 12c63 46 84 86 88 115l-1 1l-11 -3c-8 -2 -16 -4 -24 -4c-30 0 -51 25 -51 56c0 35 27 65 63 65c45 0 73 -36 73 -88z" />
    <glyph glyph-name="Gdotaccent" unicode="&#x120;" horiz-adv-x="706" 
d="M618 413l-25 -2c-57 116 -126 203 -214 203s-169 -77 -169 -285c0 -210 105 -288 222 -288c17 0 35 2 52 5v204l-80 25v16h285v-16l-61 -25v-255l-16 -4l-86 49c-44 -30 -97 -55 -169 -55c-174 0 -312 134 -312 327c0 185 146 340 352 340c51 0 118 -11 156 -31l34 34h21
zM451 799c0 -40 -33 -78 -76 -78c-41 0 -69 31 -69 71s33 78 76 78c41 0 69 -30 69 -71z" />
    <glyph glyph-name="gdotaccent" unicode="&#x121;" horiz-adv-x="513" 
d="M441 320c0 -89 -83 -150 -200 -150c-31 0 -61 4 -86 12c-7 -13 -11 -34 -11 -50c0 -22 15 -35 61 -36l126 -2c106 -2 162 -47 162 -120c0 -80 -107 -181 -275 -181c-136 0 -215 52 -215 109c0 35 32 70 110 92l-1 6c-42 8 -60 30 -60 56c0 35 21 71 81 130v5
c-57 25 -96 71 -96 129c0 88 86 149 204 149c56 0 105 -13 140 -37c44 35 82 62 121 62c43 0 64 -28 64 -59c0 -30 -25 -57 -57 -57s-54 20 -57 50l-49 -10l-2 -4c26 -25 40 -57 40 -94zM310 323c0 73 -23 117 -74 117c-44 0 -73 -26 -73 -117c0 -96 27 -123 78 -123
c44 0 69 50 69 123zM394 -83c0 35 -27 69 -105 70l-154 1c-16 -13 -24 -39 -24 -61c0 -62 46 -98 151 -98c85 0 132 37 132 88zM324 606c0 -40 -33 -78 -76 -78c-41 0 -69 31 -69 71s33 78 76 78c41 0 69 -30 69 -71z" />
    <glyph glyph-name="gdotaccent.sc" horiz-adv-x="574" 
d="M502 321l-21 -2c-57 101 -111 158 -173 158c-66 0 -126 -57 -126 -218c0 -173 78 -228 163 -228c13 0 25 2 38 4v160l-66 23v15h238v-15l-46 -23v-202l-14 -4l-75 40c-43 -30 -92 -44 -141 -44c-124 0 -243 89 -243 254c0 157 116 273 284 273c47 0 95 -12 127 -29l29 30
h16zM362 653c0 -40 -33 -78 -76 -78c-41 0 -69 31 -69 71s33 78 76 78c41 0 69 -30 69 -71z" />
    <glyph glyph-name="Hbar" unicode="&#x126;" horiz-adv-x="786" 
d="M762 500v-43h-91v-416l87 -24v-17h-311v17l74 24v267h-256v-267l74 -24v-17h-311v17l87 24v416h-91v43h91v96l-87 24v17h311v-17l-74 -24v-96h256v96l-74 24v17h311v-17l-87 -24v-96h91zM521 353v104h-256v-104h256z" />
    <glyph glyph-name="hbar" unicode="&#x127;" horiz-adv-x="561" 
d="M370 291c0 56 -15 97 -73 97c-35 0 -60 -5 -94 -19v-331l50 -24v-14h-238v14l60 24v505h-72v43h72v44l-66 47v10l190 54l4 -3v-152h128v-43h-128v-152l4 -2c59 56 112 80 166 80c90 0 125 -67 125 -138v-293l60 -24v-14h-238v14l50 24v253z" />
    <glyph glyph-name="hbar.sc" horiz-adv-x="653" 
d="M609 391v-38h-50v-315l68 -22v-16h-266v16l63 21v201h-195v-201l63 -21v-16h-266v16l68 22v315h-51v38h51v68l-68 22v16h266v-16l-63 -21v-69h195v69l-63 21v16h266v-16l-68 -22v-68h50zM424 277v76h-195v-76h195z" />
    <glyph glyph-name="Iacute" unicode="&#xcd;" horiz-adv-x="400" 
d="M275 41l86 -24v-17h-323v17l87 24v555l-87 24v17h323v-17l-86 -24v-555zM303 899c27 -17 32 -55 8 -86c-29 -38 -81 -80 -135 -123l-13 9c15 67 34 131 58 173c18 32 54 45 82 27z" />
    <glyph glyph-name="iacute" unicode="&#xed;" horiz-adv-x="279" 
d="M80 38v335l-59 47v10l183 42l4 -3v-431l60 -24v-14h-251v14zM237 713c27 -17 32 -55 8 -86c-29 -38 -81 -80 -135 -123l-13 9c15 67 34 131 58 173c18 32 54 45 82 27z" />
    <glyph glyph-name="iacute.sc" horiz-adv-x="339" 
d="M237 38l68 -22v-16h-271v16l68 22v421l-68 22v16h271v-16l-68 -22v-421zM273 753c27 -17 32 -55 8 -86c-29 -38 -81 -80 -135 -123l-13 9c15 67 34 131 58 173c18 32 54 45 82 27z" />
    <glyph glyph-name="Ibreve" unicode="&#x12c;" horiz-adv-x="400" 
d="M275 41l86 -24v-17h-323v17l87 24v555l-87 24v17h323v-17l-86 -24v-555zM199 803c57 0 108 28 128 71l22 -6c-12 -93 -62 -157 -150 -157c-87 0 -139 64 -147 157l22 6c17 -43 68 -71 125 -71z" />
    <glyph glyph-name="ibreve" unicode="&#x12d;" horiz-adv-x="279" 
d="M80 38v335l-59 47v10l183 42l4 -3v-431l60 -24v-14h-251v14zM133 617c57 0 108 28 128 71l22 -6c-12 -93 -62 -157 -150 -157c-87 0 -139 64 -147 157l22 6c17 -43 68 -71 125 -71z" />
    <glyph glyph-name="ibreve.sc" horiz-adv-x="339" 
d="M237 38l68 -22v-16h-271v16l68 22v421l-68 22v16h271v-16l-68 -22v-421zM169 657c57 0 108 28 128 71l22 -6c-12 -93 -62 -157 -150 -157c-87 0 -139 64 -147 157l22 6c17 -43 68 -71 125 -71z" />
    <glyph glyph-name="Icircumflex" unicode="&#xce;" horiz-adv-x="400" 
d="M275 41l86 -24v-17h-323v17l87 24v555l-87 24v17h323v-17l-86 -24v-555zM198 767l-128 -74l-15 13l136 183h21l129 -183l-15 -13z" />
    <glyph glyph-name="icircumflex" unicode="&#xee;" horiz-adv-x="279" 
d="M80 38v335l-59 47v10l183 42l4 -3v-431l60 -24v-14h-251v14zM132 581l-128 -74l-15 13l136 183h21l129 -183l-15 -13z" />
    <glyph glyph-name="icircumflex.sc" horiz-adv-x="339" 
d="M237 38l68 -22v-16h-271v16l68 22v421l-68 22v16h271v-16l-68 -22v-421zM168 621l-128 -74l-15 13l136 183h21l129 -183l-15 -13z" />
    <glyph glyph-name="Idieresis" unicode="&#xcf;" horiz-adv-x="400" 
d="M275 41l86 -24v-17h-323v17l87 24v555l-87 24v17h323v-17l-86 -24v-555zM291 714c-40 0 -69 31 -69 71s33 78 77 78c40 0 69 -30 69 -71c0 -40 -33 -78 -77 -78zM100 714c-41 0 -69 31 -69 71s33 78 76 78c41 0 69 -30 69 -71c0 -40 -33 -78 -76 -78z" />
    <glyph glyph-name="idieresis" unicode="&#xef;" horiz-adv-x="279" 
d="M80 38v335l-59 47v10l183 42l4 -3v-431l60 -24v-14h-251v14zM225 528c-40 0 -69 31 -69 71s33 78 77 78c40 0 69 -30 69 -71c0 -40 -33 -78 -77 -78zM34 528c-41 0 -69 31 -69 71s33 78 76 78c41 0 69 -30 69 -71c0 -40 -33 -78 -76 -78z" />
    <glyph glyph-name="idieresis.sc" horiz-adv-x="339" 
d="M237 38l68 -22v-16h-271v16l68 22v421l-68 22v16h271v-16l-68 -22v-421zM261 568c-40 0 -69 31 -69 71s33 78 77 78c40 0 69 -30 69 -71c0 -40 -33 -78 -77 -78zM70 568c-41 0 -69 31 -69 71s33 78 76 78c41 0 69 -30 69 -71c0 -40 -33 -78 -76 -78z" />
    <glyph glyph-name="Idotaccent" unicode="&#x130;" horiz-adv-x="400" 
d="M275 41l86 -24v-17h-323v17l87 24v555l-87 24v17h323v-17l-86 -24v-555zM273 792c0 -40 -33 -78 -76 -78c-41 0 -69 31 -69 71s33 78 76 78c41 0 69 -30 69 -71z" />
    <glyph glyph-name="idotaccent.sc" horiz-adv-x="339" 
d="M237 38l68 -22v-16h-271v16l68 22v421l-68 22v16h271v-16l-68 -22v-421zM243 646c0 -40 -33 -78 -76 -78c-41 0 -69 31 -69 71s33 78 76 78c41 0 69 -30 69 -71z" />
    <glyph glyph-name="dotlessi" unicode="&#x131;" horiz-adv-x="279" 
d="M80 38v335l-59 47v10l183 42l4 -3v-431l60 -24v-14h-251v14z" />
    <glyph glyph-name="dotlessi.sc" horiz-adv-x="339" 
d="M237 38l68 -22v-16h-271v16l68 22v421l-68 22v16h271v-16l-68 -22v-421z" />
    <glyph glyph-name="Igrave" unicode="&#xcc;" horiz-adv-x="400" 
d="M275 41l86 -24v-17h-323v17l87 24v555l-87 24v17h323v-17l-86 -24v-555zM250 699l-13 -9c-54 43 -106 85 -135 123c-24 31 -19 68 9 86c27 17 65 5 82 -27c23 -42 41 -104 57 -173z" />
    <glyph glyph-name="igrave" unicode="&#xec;" horiz-adv-x="279" 
d="M80 38v335l-59 47v10l183 42l4 -3v-431l60 -24v-14h-251v14zM184 513l-13 -9c-54 43 -106 85 -135 123c-24 31 -19 68 9 86c27 17 65 5 82 -27c23 -42 41 -104 57 -173z" />
    <glyph glyph-name="igrave.sc" horiz-adv-x="339" 
d="M237 38l68 -22v-16h-271v16l68 22v421l-68 22v16h271v-16l-68 -22v-421zM220 553l-13 -9c-54 43 -106 85 -135 123c-24 31 -19 68 9 86c27 17 65 5 82 -27c23 -42 41 -104 57 -173z" />
    <glyph glyph-name="Imacron" unicode="&#x12a;" horiz-adv-x="400" 
d="M275 41l86 -24v-17h-323v17l87 24v555l-87 24v17h323v-17l-86 -24v-555zM337 792v-67h-276v67h276z" />
    <glyph glyph-name="imacron" unicode="&#x12b;" horiz-adv-x="279" 
d="M80 38v335l-59 47v10l183 42l4 -3v-431l60 -24v-14h-251v14zM271 606v-67h-276v67h276z" />
    <glyph glyph-name="imacron.sc" horiz-adv-x="339" 
d="M237 38l68 -22v-16h-271v16l68 22v421l-68 22v16h271v-16l-68 -22v-421zM307 646v-67h-276v67h276z" />
    <glyph glyph-name="Iogonek" unicode="&#x12e;" horiz-adv-x="400" 
d="M275 41l86 -24v-17h-102c-64 -58 -70 -109 -70 -131c0 -37 17 -68 54 -68c22 0 36 7 43 15l11 -8c-17 -35 -52 -61 -95 -61c-61 0 -99 43 -99 95c0 51 40 112 119 158h-184v17l87 24v555l-87 24v17h323v-17l-86 -24v-555z" />
    <glyph glyph-name="iogonek" unicode="&#x12f;" horiz-adv-x="279" 
d="M80 373l-59 47v10l183 42l4 -3v-431l60 -24v-14h-68c-64 -58 -70 -109 -70 -131c0 -37 17 -68 54 -68c22 0 36 7 43 15l11 -8c-17 -35 -52 -61 -95 -61c-61 0 -99 43 -99 95c0 51 40 112 119 158h-146v14l63 24v335zM66 609c0 43 36 84 82 84c44 0 74 -33 74 -76
s-35 -83 -82 -83c-43 0 -74 32 -74 75z" />
    <glyph glyph-name="iogonek.sc" horiz-adv-x="339" 
d="M237 38l68 -22v-16h-81c-64 -58 -70 -109 -70 -131c0 -37 17 -68 54 -68c22 0 36 7 43 15l11 -8c-17 -35 -52 -61 -95 -61c-61 0 -99 43 -99 95c0 51 40 112 119 158h-153v16l68 22v421l-68 22v16h271v-16l-68 -22v-421z" />
    <glyph glyph-name="Kcommaaccent" unicode="&#x136;" horiz-adv-x="717" 
d="M419 382l225 -330l73 -35v-17h-291v17l46 25l-155 250h-52v-251l74 -24v-17h-311v17l87 24v555l-87 24v17h311v-17l-74 -24v-258h61l179 238l-70 44v17h254v-17l-86 -36zM437 -160c0 -62 -47 -121 -128 -154l-9 12c63 46 84 86 88 115l-1 1l-11 -3c-8 -2 -16 -4 -24 -4
c-30 0 -51 25 -51 56c0 35 27 65 63 65c45 0 73 -36 73 -88z" />
    <glyph glyph-name="kcommaaccent" unicode="&#x137;" horiz-adv-x="528" 
d="M321 282l172 -247l49 -21v-14h-236v14l38 21l-113 171h-28v-168l44 -24v-14h-232v14l60 24v592l-65 47v10l189 54l4 -3v-489h33l117 158l-55 33v14h216v-14l-60 -24zM340 -160c0 -62 -47 -121 -128 -154l-9 12c63 46 84 86 88 115l-1 1l-11 -3c-8 -2 -16 -4 -24 -4
c-30 0 -51 25 -51 56c0 35 27 65 63 65c45 0 73 -36 73 -88z" />
    <glyph glyph-name="kcommaaccent.sc" horiz-adv-x="599" 
d="M358 307l189 -264l53 -27v-16h-254v16l49 19l-127 193h-39v-191l61 -21v-16h-264v16l68 22v421l-68 22v16h264v-16l-61 -21v-193h47l142 177l-65 37v16h222v-22l-76 -26zM377 -160c0 -62 -47 -121 -128 -154l-9 12c63 46 84 86 88 115l-1 1l-11 -3c-8 -2 -16 -4 -24 -4
c-30 0 -51 25 -51 56c0 35 27 65 63 65c45 0 73 -36 73 -88z" />
    <glyph glyph-name="Lacute" unicode="&#x139;" horiz-adv-x="609" 
d="M578 217l-23 -217h-527v17l87 24v555l-87 24v17h324v-17l-87 -24v-561l89 4c56 3 90 26 122 68l85 113zM306 899c27 -17 32 -55 8 -86c-29 -38 -81 -80 -135 -123l-13 9c15 67 34 131 58 173c18 32 54 45 82 27z" />
    <glyph glyph-name="lacute" unicode="&#x13a;" horiz-adv-x="277" 
d="M203 38l60 -24v-14h-251v14l63 24v592l-65 47v10l189 54l4 -3v-700zM235 971c27 -17 32 -55 8 -86c-29 -38 -81 -80 -135 -123l-13 9c15 67 34 131 58 173c18 32 54 45 82 27z" />
    <glyph glyph-name="lacute.sc" horiz-adv-x="504" 
d="M480 186l-20 -186h-434v16l68 22v421l-68 22v16h278v-16l-75 -21v-428l62 2c47 2 74 21 99 54l75 100zM275 753c27 -17 32 -55 8 -86c-29 -38 -81 -80 -135 -123l-13 9c15 67 34 131 58 173c18 32 54 45 82 27z" />
    <glyph glyph-name="Lcaron" unicode="&#x13d;" horiz-adv-x="609" 
d="M578 217l-23 -217h-527v17l87 24v555l-87 24v17h324v-17l-87 -24v-561l89 4c56 3 90 26 122 68l85 113zM398 401l-3 34c-2 26 -3 55 -3 78c0 66 8 124 63 124c29 0 49 -24 49 -55c0 -43 -48 -118 -91 -185z" />
    <glyph glyph-name="lcaron" unicode="&#x13e;" horiz-adv-x="277" 
d="M203 38l60 -24v-14h-251v14l63 24v592l-65 47v10l189 54l4 -3v-700zM264 505l-3 34c-2 26 -3 55 -3 78c0 66 8 124 63 124c29 0 49 -24 49 -55c0 -43 -48 -118 -91 -185z" />
    <glyph glyph-name="lcaron.sc" horiz-adv-x="504" 
d="M480 186l-20 -186h-434v16l68 22v421l-68 22v16h278v-16l-75 -21v-428l62 2c47 2 74 21 99 54l75 100zM349 261l-3 34c-2 26 -3 55 -3 78c0 66 8 124 63 124c29 0 49 -24 49 -55c0 -43 -48 -118 -91 -185z" />
    <glyph glyph-name="Lcommaaccent" unicode="&#x13b;" horiz-adv-x="609" 
d="M578 217l-23 -217h-527v17l87 24v555l-87 24v17h324v-17l-87 -24v-561l89 4c56 3 90 26 122 68l85 113zM385 -160c0 -62 -47 -121 -128 -154l-9 12c63 46 84 86 88 115l-1 1l-11 -3c-8 -2 -16 -4 -24 -4c-30 0 -51 25 -51 56c0 35 27 65 63 65c45 0 73 -36 73 -88z" />
    <glyph glyph-name="lcommaaccent" unicode="&#x13c;" horiz-adv-x="277" 
d="M203 38l60 -24v-14h-251v14l63 24v592l-65 47v10l189 54l4 -3v-700zM204 -160c0 -62 -47 -121 -128 -154l-9 12c63 46 84 86 88 115l-1 1l-11 -3c-8 -2 -16 -4 -24 -4c-30 0 -51 25 -51 56c0 35 27 65 63 65c45 0 73 -36 73 -88z" />
    <glyph glyph-name="lcommaaccent.sc" horiz-adv-x="504" 
d="M480 186l-20 -186h-434v16l68 22v421l-68 22v16h278v-16l-75 -21v-428l62 2c47 2 74 21 99 54l75 100zM322 -160c0 -62 -47 -121 -128 -154l-9 12c63 46 84 86 88 115l-1 1l-11 -3c-8 -2 -16 -4 -24 -4c-30 0 -51 25 -51 56c0 35 27 65 63 65c45 0 73 -36 73 -88z" />
    <glyph glyph-name="Ldot" unicode="&#x13f;" horiz-adv-x="605" 
d="M565 380c0 -40 -31 -71 -70 -71s-71 31 -71 71c0 39 32 70 71 70s70 -31 70 -70zM578 217l-23 -217h-527v17l87 24v555l-87 24v17h324v-17l-87 -24v-561l89 4c56 3 90 26 122 68l85 113z" />
    <glyph glyph-name="ldot" unicode="&#x140;" horiz-adv-x="399" 
d="M405 344c0 -40 -31 -71 -70 -71s-71 31 -71 71c0 39 32 70 71 70s70 -31 70 -70zM203 38l60 -24v-14h-251v14l63 24v592l-65 47v10l189 54l4 -3v-700z" />
    <glyph glyph-name="ldot.sc" horiz-adv-x="500" 
d="M479 177l-19 -177h-434v16l68 22v421l-68 22v16h278v-16l-75 -21v-428l62 2c47 2 75 20 99 50l74 95zM481 311c0 -40 -31 -71 -70 -71s-71 31 -71 71c0 39 32 70 71 70s70 -31 70 -70z" />
    <glyph glyph-name="Lslash" unicode="&#x141;" horiz-adv-x="609" 
d="M578 217l-23 -217h-527v17l87 24v227l-66 -18l-12 44l78 21v281l-87 24v17h324v-17l-87 -24v-240l120 33l13 -44l-133 -36v-274l89 4c56 3 90 26 122 68l85 113z" />
    <glyph glyph-name="lslash" unicode="&#x142;" horiz-adv-x="307" 
d="M218 347v-309l60 -24v-14h-251v14l63 24v274c0 1 -65 -17 -65 -17l-11 43l76 20v272l-65 47v10l189 54l4 -3v-345l75 20l12 -43z" />
    <glyph glyph-name="lslash.sc" horiz-adv-x="504" 
d="M94 201l-54 -14l-12 44l66 17v211l-68 22v16h278v-16l-75 -21v-175l97 27l13 -44l-110 -30v-206l62 2c47 2 74 21 99 54l75 100l15 -2l-20 -186h-434v16l68 22v163z" />
    <glyph glyph-name="Nacute" unicode="&#x143;" horiz-adv-x="745" 
d="M120 53v534l-79 33v17h207l81 -102l256 -314h7v363l-85 36v17h213v-17l-85 -36v-590h-56l-82 102l-327 394h-7v-437l85 -36v-17h-213v17zM476 899c27 -17 32 -55 8 -86c-29 -38 -81 -80 -135 -123l-13 9c15 67 34 131 58 173c18 32 54 45 82 27z" />
    <glyph glyph-name="nacute" unicode="&#x144;" horiz-adv-x="561" 
d="M498 331v-293l60 -24v-14h-238v14l50 24v253c0 56 -14 97 -71 97c-35 0 -57 -5 -91 -19v-331l50 -24v-14h-238v14l60 24v335l-60 47v10l178 42l4 -3l-2 -81l4 -2c59 56 117 83 171 83c90 0 123 -67 123 -138zM382 713c27 -17 32 -55 8 -86c-29 -38 -81 -80 -135 -123
l-13 9c15 67 34 131 58 173c18 32 54 45 82 27z" />
    <glyph glyph-name="nacute.sc" horiz-adv-x="620" 
d="M100 49v402l-66 30v16h177l67 -82l200 -241h6v274l-70 33v16h178v-16l-70 -33v-454h-62l-74 90l-242 283h-6v-318l69 -34v-15h-177v15zM413 753c27 -17 32 -55 8 -86c-29 -38 -81 -80 -135 -123l-13 9c15 67 34 131 58 173c18 32 54 45 82 27z" />
    <glyph glyph-name="Ncaron" unicode="&#x147;" horiz-adv-x="745" 
d="M120 53v534l-79 33v17h207l81 -102l256 -314h7v363l-85 36v17h213v-17l-85 -36v-590h-56l-82 102l-327 394h-7v-437l85 -36v-17h-213v17zM371 817l128 74l15 -12l-136 -183h-21l-129 183l15 12z" />
    <glyph glyph-name="ncaron" unicode="&#x148;" horiz-adv-x="561" 
d="M498 331v-293l60 -24v-14h-238v14l50 24v253c0 56 -14 97 -71 97c-35 0 -57 -5 -91 -19v-331l50 -24v-14h-238v14l60 24v335l-60 47v10l178 42l4 -3l-2 -81l4 -2c59 56 117 83 171 83c90 0 123 -67 123 -138zM277 631l128 74l15 -12l-136 -183h-21l-129 183l15 12z" />
    <glyph glyph-name="ncaron.sc" horiz-adv-x="620" 
d="M100 49v402l-66 30v16h177l67 -82l200 -241h6v274l-70 33v16h178v-16l-70 -33v-454h-62l-74 90l-242 283h-6v-318l69 -34v-15h-177v15zM308 671l128 74l15 -12l-136 -183h-21l-129 183l15 12z" />
    <glyph glyph-name="Ncommaaccent" unicode="&#x145;" horiz-adv-x="745" 
d="M120 53v534l-79 33v17h207l81 -102l256 -314h7v363l-85 36v17h213v-17l-85 -36v-590h-56l-82 102l-327 394h-7v-437l85 -36v-17h-213v17zM441 -142c0 -62 -47 -121 -128 -154l-9 12c63 46 84 86 88 115l-1 1l-11 -3c-8 -2 -16 -4 -24 -4c-30 0 -51 25 -51 56
c0 35 27 65 63 65c45 0 73 -36 73 -88z" />
    <glyph glyph-name="ncommaaccent" unicode="&#x146;" horiz-adv-x="561" 
d="M498 331v-293l60 -24v-14h-238v14l50 24v253c0 56 -14 97 -71 97c-35 0 -57 -5 -91 -19v-331l50 -24v-14h-238v14l60 24v335l-60 47v10l178 42l4 -3l-2 -81l4 -2c59 56 117 83 171 83c90 0 123 -67 123 -138zM347 -160c0 -62 -47 -121 -128 -154l-9 12
c63 46 84 86 88 115l-1 1l-11 -3c-8 -2 -16 -4 -24 -4c-30 0 -51 25 -51 56c0 35 27 65 63 65c45 0 73 -36 73 -88z" />
    <glyph glyph-name="ncommaaccent.sc" horiz-adv-x="620" 
d="M100 49v402l-66 30v16h177l67 -82l200 -241h6v274l-70 33v16h178v-16l-70 -33v-454h-62l-74 90l-242 283h-6v-318l69 -34v-15h-177v15zM368 -146c0 -62 -47 -121 -128 -154l-9 12c63 46 84 86 88 115l-1 1l-11 -3c-8 -2 -16 -4 -24 -4c-30 0 -51 25 -51 56
c0 35 27 65 63 65c45 0 73 -36 73 -88z" />
    <glyph glyph-name="Ntilde" unicode="&#xd1;" horiz-adv-x="745" 
d="M120 53v534l-79 33v17h207l81 -102l256 -314h7v363l-85 36v17h213v-17l-85 -36v-590h-56l-82 102l-327 394h-7v-437l85 -36v-17h-213v17zM222 710c13 85 37 128 100 128c57 0 97 -40 142 -40c22 0 39 12 53 47l22 -6c-6 -89 -30 -131 -93 -131c-58 0 -104 43 -149 43
c-22 0 -39 -12 -53 -47z" />
    <glyph glyph-name="ntilde" unicode="&#xf1;" horiz-adv-x="561" 
d="M498 331v-293l60 -24v-14h-238v14l50 24v253c0 56 -14 97 -71 97c-35 0 -57 -5 -91 -19v-331l50 -24v-14h-238v14l60 24v335l-60 47v10l178 42l4 -3l-2 -81l4 -2c59 56 117 83 171 83c90 0 123 -67 123 -138zM128 524c13 85 37 128 100 128c57 0 97 -40 142 -40
c22 0 39 12 53 47l22 -6c-6 -89 -30 -131 -93 -131c-58 0 -104 43 -149 43c-22 0 -39 -12 -53 -47z" />
    <glyph glyph-name="ntilde.sc" horiz-adv-x="620" 
d="M100 49v402l-66 30v16h177l67 -82l200 -241h6v274l-70 33v16h178v-16l-70 -33v-454h-62l-74 90l-242 283h-6v-318l69 -34v-15h-177v15zM159 564c13 85 37 128 100 128c57 0 97 -40 142 -40c22 0 39 12 53 47l22 -6c-6 -89 -30 -131 -93 -131c-58 0 -104 43 -149 43
c-22 0 -39 -12 -53 -47z" />
    <glyph glyph-name="Oacute" unicode="&#xd3;" horiz-adv-x="732" 
d="M687 319c0 -181 -116 -334 -324 -334c-217 0 -318 153 -318 334c0 180 116 333 324 333c218 0 318 -153 318 -333zM523 319c0 200 -65 301 -165 301c-92 0 -149 -76 -149 -301c0 -226 65 -301 165 -301c92 0 149 101 149 301zM472 906c27 -17 32 -55 8 -86
c-29 -38 -81 -80 -135 -123l-13 9c15 67 34 131 58 173c18 32 54 45 82 27z" />
    <glyph glyph-name="oacute" unicode="&#xf3;" horiz-adv-x="540" 
d="M510 227c0 -120 -85 -243 -246 -243s-234 114 -234 243c0 120 86 242 246 242c161 0 234 -114 234 -242zM373 227c0 125 -31 210 -103 210s-103 -85 -103 -210s31 -210 103 -210s103 85 103 210zM380 713c27 -17 32 -55 8 -86c-29 -38 -81 -80 -135 -123l-13 9
c15 67 34 131 58 173c18 32 54 45 82 27z" />
    <glyph glyph-name="oacute.sc" 
d="M562 249c0 -142 -88 -264 -264 -264c-185 0 -262 122 -262 264c0 141 89 263 266 263c184 0 260 -122 260 -263zM416 249c0 158 -49 233 -123 233c-67 0 -111 -58 -111 -233c0 -177 50 -233 123 -233c67 0 111 76 111 233zM405 760c27 -17 32 -55 8 -86
c-29 -38 -81 -80 -135 -123l-13 9c15 67 34 131 58 173c18 32 54 45 82 27z" />
    <glyph glyph-name="Obreve" unicode="&#x14e;" horiz-adv-x="732" 
d="M687 319c0 -181 -116 -334 -324 -334c-217 0 -318 153 -318 334c0 180 116 333 324 333c218 0 318 -153 318 -333zM523 319c0 200 -65 301 -165 301c-92 0 -149 -76 -149 -301c0 -226 65 -301 165 -301c92 0 149 101 149 301zM368 810c57 0 108 28 128 71l22 -6
c-12 -93 -62 -157 -150 -157c-87 0 -139 64 -147 157l22 6c17 -43 68 -71 125 -71z" />
    <glyph glyph-name="obreve" unicode="&#x14f;" horiz-adv-x="540" 
d="M510 227c0 -120 -85 -243 -246 -243s-234 114 -234 243c0 120 86 242 246 242c161 0 234 -114 234 -242zM373 227c0 125 -31 210 -103 210s-103 -85 -103 -210s31 -210 103 -210s103 85 103 210zM276 617c57 0 108 28 128 71l22 -6c-12 -93 -62 -157 -150 -157
c-87 0 -139 64 -147 157l22 6c17 -43 68 -71 125 -71z" />
    <glyph glyph-name="obreve.sc" 
d="M562 249c0 -142 -88 -264 -264 -264c-185 0 -262 122 -262 264c0 141 89 263 266 263c184 0 260 -122 260 -263zM416 249c0 158 -49 233 -123 233c-67 0 -111 -58 -111 -233c0 -177 50 -233 123 -233c67 0 111 76 111 233zM301 664c57 0 108 28 128 71l22 -6
c-12 -93 -62 -157 -150 -157c-87 0 -139 64 -147 157l22 6c17 -43 68 -71 125 -71z" />
    <glyph glyph-name="Ocircumflex" unicode="&#xd4;" horiz-adv-x="732" 
d="M687 319c0 -181 -116 -334 -324 -334c-217 0 -318 153 -318 334c0 180 116 333 324 333c218 0 318 -153 318 -333zM523 319c0 200 -65 301 -165 301c-92 0 -149 -76 -149 -301c0 -226 65 -301 165 -301c92 0 149 101 149 301zM367 774l-128 -74l-15 13l136 183h21
l129 -183l-15 -13z" />
    <glyph glyph-name="ocircumflex" unicode="&#xf4;" horiz-adv-x="540" 
d="M510 227c0 -120 -85 -243 -246 -243s-234 114 -234 243c0 120 86 242 246 242c161 0 234 -114 234 -242zM373 227c0 125 -31 210 -103 210s-103 -85 -103 -210s31 -210 103 -210s103 85 103 210zM275 581l-128 -74l-15 13l136 183h21l129 -183l-15 -13z" />
    <glyph glyph-name="ocircumflex.sc" 
d="M562 249c0 -142 -88 -264 -264 -264c-185 0 -262 122 -262 264c0 141 89 263 266 263c184 0 260 -122 260 -263zM416 249c0 158 -49 233 -123 233c-67 0 -111 -58 -111 -233c0 -177 50 -233 123 -233c67 0 111 76 111 233zM300 628l-128 -74l-15 13l136 183h21l129 -183
l-15 -13z" />
    <glyph glyph-name="Odieresis" unicode="&#xd6;" horiz-adv-x="732" 
d="M687 319c0 -181 -116 -334 -324 -334c-217 0 -318 153 -318 334c0 180 116 333 324 333c218 0 318 -153 318 -333zM523 319c0 200 -65 301 -165 301c-92 0 -149 -76 -149 -301c0 -226 65 -301 165 -301c92 0 149 101 149 301zM460 721c-40 0 -69 31 -69 71s33 78 77 78
c40 0 69 -30 69 -71c0 -40 -33 -78 -77 -78zM269 721c-41 0 -69 31 -69 71s33 78 76 78c41 0 69 -30 69 -71c0 -40 -33 -78 -76 -78z" />
    <glyph glyph-name="odieresis" unicode="&#xf6;" horiz-adv-x="540" 
d="M510 227c0 -120 -85 -243 -246 -243s-234 114 -234 243c0 120 86 242 246 242c161 0 234 -114 234 -242zM373 227c0 125 -31 210 -103 210s-103 -85 -103 -210s31 -210 103 -210s103 85 103 210zM368 528c-40 0 -69 31 -69 71s33 78 77 78c40 0 69 -30 69 -71
c0 -40 -33 -78 -77 -78zM177 528c-41 0 -69 31 -69 71s33 78 76 78c41 0 69 -30 69 -71c0 -40 -33 -78 -76 -78z" />
    <glyph glyph-name="odieresis.sc" 
d="M562 249c0 -142 -88 -264 -264 -264c-185 0 -262 122 -262 264c0 141 89 263 266 263c184 0 260 -122 260 -263zM416 249c0 158 -49 233 -123 233c-67 0 -111 -58 -111 -233c0 -177 50 -233 123 -233c67 0 111 76 111 233zM393 575c-40 0 -69 31 -69 71s33 78 77 78
c40 0 69 -30 69 -71c0 -40 -33 -78 -77 -78zM202 575c-41 0 -69 31 -69 71s33 78 76 78c41 0 69 -30 69 -71c0 -40 -33 -78 -76 -78z" />
    <glyph glyph-name="OE" unicode="&#x152;" horiz-adv-x="1010" 
d="M968 207l-19 -207h-547c-234 0 -357 138 -357 319c0 180 138 318 364 318h519l14 -215l-18 -5l-79 110c-36 51 -61 69 -130 72l-92 4v-265h34c57 0 80 20 103 82l12 33h21v-269h-21l-12 31c-24 62 -46 82 -103 82h-34v-262l123 6c56 3 89 24 122 66l81 104zM210 319
c0 -199 87 -276 213 -281l50 -2v566l-73 -4c-117 -6 -190 -80 -190 -279z" />
    <glyph glyph-name="oe" unicode="&#x153;" horiz-adv-x="844" 
d="M510 251c1 -121 27 -198 141 -198c50 0 93 10 154 26l6 -13c-60 -47 -139 -82 -203 -82c-77 0 -134 27 -171 72c-38 -43 -95 -72 -173 -72c-161 0 -234 114 -234 243c0 120 85 242 246 242c83 0 139 -30 174 -77c42 48 100 77 163 77c140 0 206 -93 203 -218h-306z
M510 281l180 10c-2 100 -29 146 -84 146c-53 0 -90 -62 -96 -156zM373 227c0 125 -31 210 -103 210s-103 -85 -103 -210s31 -210 103 -210s103 85 103 210z" />
    <glyph glyph-name="oe.sc" horiz-adv-x="819" 
d="M783 166l-15 -166h-449c-188 0 -288 99 -288 246c0 150 109 251 292 251h433l11 -171l-17 -5l-61 83c-27 37 -52 57 -105 59l-80 3v-198h38c41 0 60 14 78 62l9 24h19v-211h-19l-10 24c-20 47 -36 61 -77 61h-38v-196l100 5c41 2 74 21 98 52l64 82zM369 31v434l-56 -3
c-80 -4 -135 -66 -135 -214c0 -147 63 -208 150 -214z" />
    <glyph glyph-name="Ograve" unicode="&#xd2;" horiz-adv-x="732" 
d="M687 319c0 -181 -116 -334 -324 -334c-217 0 -318 153 -318 334c0 180 116 333 324 333c218 0 318 -153 318 -333zM523 319c0 200 -65 301 -165 301c-92 0 -149 -76 -149 -301c0 -226 65 -301 165 -301c92 0 149 101 149 301zM419 706l-13 -9c-54 43 -106 85 -135 123
c-24 31 -19 68 9 86c27 17 65 5 82 -27c23 -42 41 -104 57 -173z" />
    <glyph glyph-name="ograve" unicode="&#xf2;" horiz-adv-x="540" 
d="M510 227c0 -120 -85 -243 -246 -243s-234 114 -234 243c0 120 86 242 246 242c161 0 234 -114 234 -242zM373 227c0 125 -31 210 -103 210s-103 -85 -103 -210s31 -210 103 -210s103 85 103 210zM327 513l-13 -9c-54 43 -106 85 -135 123c-24 31 -19 68 9 86
c27 17 65 5 82 -27c23 -42 41 -104 57 -173z" />
    <glyph glyph-name="ograve.sc" 
d="M562 249c0 -142 -88 -264 -264 -264c-185 0 -262 122 -262 264c0 141 89 263 266 263c184 0 260 -122 260 -263zM416 249c0 158 -49 233 -123 233c-67 0 -111 -58 -111 -233c0 -177 50 -233 123 -233c67 0 111 76 111 233zM352 560l-13 -9c-54 43 -106 85 -135 123
c-24 31 -19 68 9 86c27 17 65 5 82 -27c23 -42 41 -104 57 -173z" />
    <glyph glyph-name="Ohungarumlaut" unicode="&#x150;" horiz-adv-x="732" 
d="M687 319c0 -181 -116 -334 -324 -334c-217 0 -318 153 -318 334c0 180 116 333 324 333c218 0 318 -153 318 -333zM523 319c0 200 -65 301 -165 301c-92 0 -149 -76 -149 -301c0 -226 65 -301 165 -301c92 0 149 101 149 301zM558 821c-29 -37 -78 -78 -135 -120l-13 9
c17 65 41 128 66 169c19 31 54 43 80 26s26 -53 2 -84zM406 824c-29 -37 -77 -81 -132 -124l-14 8c17 69 38 130 61 171c18 32 53 46 79 29s30 -53 6 -84z" />
    <glyph glyph-name="ohungarumlaut" unicode="&#x151;" horiz-adv-x="540" 
d="M510 227c0 -120 -85 -243 -246 -243s-234 114 -234 243c0 120 86 242 246 242c161 0 234 -114 234 -242zM373 227c0 125 -31 210 -103 210s-103 -85 -103 -210s31 -210 103 -210s103 85 103 210zM466 628c-29 -37 -78 -78 -135 -120l-13 9c17 65 41 128 66 169
c19 31 54 43 80 26s26 -53 2 -84zM314 631c-29 -37 -77 -81 -132 -124l-14 8c17 69 38 130 61 171c18 32 53 46 79 29s30 -53 6 -84z" />
    <glyph glyph-name="ohungarumlaut.sc" 
d="M562 249c0 -142 -88 -264 -264 -264c-185 0 -262 122 -262 264c0 141 89 263 266 263c184 0 260 -122 260 -263zM416 249c0 158 -49 233 -123 233c-67 0 -111 -58 -111 -233c0 -177 50 -233 123 -233c67 0 111 76 111 233zM491 675c-29 -37 -78 -78 -135 -120l-13 9
c17 65 41 128 66 169c19 31 54 43 80 26s26 -53 2 -84zM339 678c-29 -37 -77 -81 -132 -124l-14 8c17 69 38 130 61 171c18 32 53 46 79 29s30 -53 6 -84z" />
    <glyph glyph-name="Omacron" unicode="&#x14c;" horiz-adv-x="732" 
d="M687 319c0 -181 -116 -334 -324 -334c-217 0 -318 153 -318 334c0 180 116 333 324 333c218 0 318 -153 318 -333zM523 319c0 200 -65 301 -165 301c-92 0 -149 -76 -149 -301c0 -226 65 -301 165 -301c92 0 149 101 149 301zM506 799v-67h-276v67h276z" />
    <glyph glyph-name="omacron" unicode="&#x14d;" horiz-adv-x="540" 
d="M510 227c0 -120 -85 -243 -246 -243s-234 114 -234 243c0 120 86 242 246 242c161 0 234 -114 234 -242zM373 227c0 125 -31 210 -103 210s-103 -85 -103 -210s31 -210 103 -210s103 85 103 210zM414 606v-67h-276v67h276z" />
    <glyph glyph-name="omacron.sc" 
d="M562 249c0 -142 -88 -264 -264 -264c-185 0 -262 122 -262 264c0 141 89 263 266 263c184 0 260 -122 260 -263zM416 249c0 158 -49 233 -123 233c-67 0 -111 -58 -111 -233c0 -177 50 -233 123 -233c67 0 111 76 111 233zM439 653v-67h-276v67h276z" />
    <glyph glyph-name="Oslash" unicode="&#xd8;" horiz-adv-x="732" 
d="M687 319c0 -181 -116 -334 -324 -334c-87 0 -155 25 -206 66l-69 -79l-28 27l69 78c-57 62 -84 148 -84 242c0 180 116 333 324 333c87 0 155 -24 206 -66l69 79l28 -28l-68 -78c56 -61 83 -147 83 -240zM220 181l278 318c-28 80 -77 121 -140 121
c-92 0 -149 -76 -149 -301c0 -54 4 -100 11 -138zM511 453l-280 -318c27 -85 78 -117 143 -117c92 0 149 101 149 301c0 51 -4 96 -12 134z" />
    <glyph glyph-name="oslash" unicode="&#xf8;" horiz-adv-x="540" 
d="M449 401c41 -45 61 -108 61 -174c0 -120 -85 -243 -246 -243c-60 0 -108 16 -144 43l-51 -58l-29 24l51 59c-41 45 -61 108 -61 175c0 120 86 242 246 242c60 0 108 -16 144 -43c27 30 51 58 51 58l29 -25s-24 -27 -51 -58zM357 354c-15 52 -44 83 -87 83
c-72 0 -103 -85 -103 -210c0 -30 2 -58 5 -83c0 0 185 211 185 210zM373 227c0 29 -2 57 -5 81c0 1 -185 -209 -185 -209c15 -52 44 -82 87 -82c72 0 103 85 103 210z" />
    <glyph glyph-name="oslash.sc" 
d="M105 55c-47 49 -69 119 -69 194c0 141 89 263 266 263c69 0 124 -17 164 -47l54 62l28 -26l-53 -61c46 -48 67 -117 67 -191c0 -142 -88 -264 -264 -264c-69 0 -123 17 -164 46l-54 -61l-28 25zM189 150l209 238c-21 63 -58 94 -105 94c-67 0 -111 -58 -111 -233
c0 -38 2 -71 7 -99zM409 343l-210 -238c21 -66 59 -89 106 -89c67 0 111 76 111 233c0 36 -2 67 -7 94z" />
    <glyph glyph-name="Oslashacute" unicode="&#x1fe;" horiz-adv-x="732" 
d="M687 319c0 -181 -116 -334 -324 -334c-87 0 -155 25 -206 66l-69 -79l-28 27l69 78c-57 62 -84 148 -84 242c0 180 116 333 324 333c87 0 155 -24 206 -66l69 79l28 -28l-68 -78c56 -61 83 -147 83 -240zM220 181l278 318c-28 80 -77 121 -140 121
c-92 0 -149 -76 -149 -301c0 -54 4 -100 11 -138zM511 453l-280 -318c27 -85 78 -117 143 -117c92 0 149 101 149 301c0 51 -4 96 -12 134zM473 906c27 -17 32 -55 8 -86c-29 -38 -81 -80 -135 -123l-13 9c15 67 34 131 58 173c18 32 54 45 82 27z" />
    <glyph glyph-name="oslashacute" unicode="&#x1ff;" horiz-adv-x="540" 
d="M449 401c41 -45 61 -108 61 -174c0 -120 -85 -243 -246 -243c-60 0 -108 16 -144 43l-51 -58l-29 24l51 59c-41 45 -61 108 -61 175c0 120 86 242 246 242c60 0 108 -16 144 -43c27 30 51 58 51 58l29 -25s-24 -27 -51 -58zM357 354c-15 52 -44 83 -87 83
c-72 0 -103 -85 -103 -210c0 -30 2 -58 5 -83c0 0 185 211 185 210zM373 227c0 29 -2 57 -5 81c0 1 -185 -209 -185 -209c15 -52 44 -82 87 -82c72 0 103 85 103 210zM381 713c27 -17 32 -55 8 -86c-29 -38 -81 -80 -135 -123l-13 9c15 67 34 131 58 173c18 32 54 45 82 27z
" />
    <glyph glyph-name="oslashacute.sc" 
d="M105 55c-47 49 -69 119 -69 194c0 141 89 263 266 263c69 0 124 -17 164 -47l54 62l28 -26l-53 -61c46 -48 67 -117 67 -191c0 -142 -88 -264 -264 -264c-69 0 -123 17 -164 46l-54 -61l-28 25zM189 150l209 238c-21 63 -58 94 -105 94c-67 0 -111 -58 -111 -233
c0 -38 2 -71 7 -99zM409 343l-210 -238c21 -66 59 -89 106 -89c67 0 111 76 111 233c0 36 -2 67 -7 94zM411 760c27 -17 32 -55 8 -86c-29 -38 -81 -80 -135 -123l-13 9c15 67 34 131 58 173c18 32 54 45 82 27z" />
    <glyph glyph-name="Otilde" unicode="&#xd5;" horiz-adv-x="732" 
d="M687 319c0 -181 -116 -334 -324 -334c-217 0 -318 153 -318 334c0 180 116 333 324 333c218 0 318 -153 318 -333zM523 319c0 200 -65 301 -165 301c-92 0 -149 -76 -149 -301c0 -226 65 -301 165 -301c92 0 149 101 149 301zM218 717c13 85 37 128 100 128
c57 0 97 -40 142 -40c22 0 39 12 53 47l22 -6c-6 -89 -30 -131 -93 -131c-58 0 -104 43 -149 43c-22 0 -39 -12 -53 -47z" />
    <glyph glyph-name="otilde" unicode="&#xf5;" horiz-adv-x="540" 
d="M510 227c0 -120 -85 -243 -246 -243s-234 114 -234 243c0 120 86 242 246 242c161 0 234 -114 234 -242zM373 227c0 125 -31 210 -103 210s-103 -85 -103 -210s31 -210 103 -210s103 85 103 210zM126 524c13 85 37 128 100 128c57 0 97 -40 142 -40c22 0 39 12 53 47
l22 -6c-6 -89 -30 -131 -93 -131c-58 0 -104 43 -149 43c-22 0 -39 -12 -53 -47z" />
    <glyph glyph-name="otilde.sc" 
d="M562 249c0 -142 -88 -264 -264 -264c-185 0 -262 122 -262 264c0 141 89 263 266 263c184 0 260 -122 260 -263zM416 249c0 158 -49 233 -123 233c-67 0 -111 -58 -111 -233c0 -177 50 -233 123 -233c67 0 111 76 111 233zM151 571c13 85 37 128 100 128
c57 0 97 -40 142 -40c22 0 39 12 53 47l22 -6c-6 -89 -30 -131 -93 -131c-58 0 -104 43 -149 43c-22 0 -39 -12 -53 -47z" />
    <glyph glyph-name="Racute" unicode="&#x154;" horiz-adv-x="683" 
d="M612 481c0 -76 -55 -147 -189 -168v-5c92 -14 130 -58 151 -120c21 -63 38 -103 61 -131c17 -20 35 -32 58 -40v-17h-121c-78 0 -102 29 -135 112l-41 103c-22 56 -55 72 -120 72h-11v-246l86 -24v-17h-323v17l87 24v555l-87 24v17h377c142 0 207 -77 207 -156zM459 460
c0 88 -58 138 -132 140l-62 2v-281l62 2c74 2 132 49 132 137zM433 899c27 -17 32 -55 8 -86c-29 -38 -81 -80 -135 -123l-13 9c15 67 34 131 58 173c18 32 54 45 82 27z" />
    <glyph glyph-name="racute" unicode="&#x155;" horiz-adv-x="428" 
d="M420 396c0 -41 -26 -75 -68 -75c-38 0 -67 25 -76 68c-31 -2 -50 -15 -68 -37v-314l69 -24v-14h-257v14l60 24v335l-59 47v10l178 42l4 -3l-4 -92l4 -2c45 67 100 95 143 95c44 0 74 -29 74 -74zM338 713c27 -17 32 -55 8 -86c-29 -38 -81 -80 -135 -123l-13 9
c15 67 34 131 58 173c18 32 54 45 82 27z" />
    <glyph glyph-name="racute.sc" horiz-adv-x="565" 
d="M508 375c0 -64 -40 -116 -156 -132v-5c77 -10 109 -40 127 -91c15 -44 30 -79 45 -98c11 -14 26 -24 50 -32v-17h-113c-58 0 -79 23 -103 86l-30 77c-17 43 -40 57 -91 57h-8v-182l68 -22v-16h-271v16l68 22v421l-68 22v16h310c122 0 172 -52 172 -122zM371 358
c0 72 -36 103 -98 106l-44 2v-216l42 2c57 2 100 35 100 106zM379 753c27 -17 32 -55 8 -86c-29 -38 -81 -80 -135 -123l-13 9c15 67 34 131 58 173c18 32 54 45 82 27z" />
    <glyph glyph-name="Rcaron" unicode="&#x158;" horiz-adv-x="683" 
d="M612 481c0 -76 -55 -147 -189 -168v-5c92 -14 130 -58 151 -120c21 -63 38 -103 61 -131c17 -20 35 -32 58 -40v-17h-121c-78 0 -102 29 -135 112l-41 103c-22 56 -55 72 -120 72h-11v-246l86 -24v-17h-323v17l87 24v555l-87 24v17h377c142 0 207 -77 207 -156zM459 460
c0 88 -58 138 -132 140l-62 2v-281l62 2c74 2 132 49 132 137zM328 817l128 74l15 -12l-136 -183h-21l-129 183l15 12z" />
    <glyph glyph-name="rcaron" unicode="&#x159;" horiz-adv-x="428" 
d="M420 396c0 -41 -26 -75 -68 -75c-38 0 -67 25 -76 68c-31 -2 -50 -15 -68 -37v-314l69 -24v-14h-257v14l60 24v335l-59 47v10l178 42l4 -3l-4 -92l4 -2c45 67 100 95 143 95c44 0 74 -29 74 -74zM233 631l128 74l15 -12l-136 -183h-21l-129 183l15 12z" />
    <glyph glyph-name="rcaron.sc" horiz-adv-x="565" 
d="M508 375c0 -64 -40 -116 -156 -132v-5c77 -10 109 -40 127 -91c15 -44 30 -79 45 -98c11 -14 26 -24 50 -32v-17h-113c-58 0 -79 23 -103 86l-30 77c-17 43 -40 57 -91 57h-8v-182l68 -22v-16h-271v16l68 22v421l-68 22v16h310c122 0 172 -52 172 -122zM371 358
c0 72 -36 103 -98 106l-44 2v-216l42 2c57 2 100 35 100 106zM274 671l128 74l15 -12l-136 -183h-21l-129 183l15 12z" />
    <glyph glyph-name="Rcommaaccent" unicode="&#x156;" horiz-adv-x="683" 
d="M612 481c0 -76 -55 -147 -189 -168v-5c92 -14 130 -58 151 -120c21 -63 38 -103 61 -131c17 -20 35 -32 58 -40v-17h-121c-78 0 -102 29 -135 112l-41 103c-22 56 -55 72 -120 72h-11v-246l86 -24v-17h-323v17l87 24v555l-87 24v17h377c142 0 207 -77 207 -156zM459 460
c0 88 -58 138 -132 140l-62 2v-281l62 2c74 2 132 49 132 137zM425 -160c0 -62 -47 -121 -128 -154l-9 12c63 46 84 86 88 115l-1 1l-11 -3c-8 -2 -16 -4 -24 -4c-30 0 -51 25 -51 56c0 35 27 65 63 65c45 0 73 -36 73 -88z" />
    <glyph glyph-name="rcommaaccent" unicode="&#x157;" horiz-adv-x="428" 
d="M420 396c0 -41 -26 -75 -68 -75c-38 0 -67 25 -76 68c-31 -2 -50 -15 -68 -37v-314l69 -24v-14h-257v14l60 24v335l-59 47v10l178 42l4 -3l-4 -92l4 -2c45 67 100 95 143 95c44 0 74 -29 74 -74zM219 -160c0 -62 -47 -121 -128 -154l-9 12c63 46 84 86 88 115l-1 1
l-11 -3c-8 -2 -16 -4 -24 -4c-30 0 -51 25 -51 56c0 35 27 65 63 65c45 0 73 -36 73 -88z" />
    <glyph glyph-name="rcommaaccent.sc" horiz-adv-x="565" 
d="M508 375c0 -64 -40 -116 -156 -132v-5c77 -10 109 -40 127 -91c15 -44 30 -79 45 -98c11 -14 26 -24 50 -32v-17h-113c-58 0 -79 23 -103 86l-30 77c-17 43 -40 57 -91 57h-8v-182l68 -22v-16h-271v16l68 22v421l-68 22v16h310c122 0 172 -52 172 -122zM371 358
c0 72 -36 103 -98 106l-44 2v-216l42 2c57 2 100 35 100 106zM357 -160c0 -62 -47 -121 -128 -154l-9 12c63 46 84 86 88 115l-1 1l-11 -3c-8 -2 -16 -4 -24 -4c-30 0 -51 25 -51 56c0 35 27 65 63 65c45 0 73 -36 73 -88z" />
    <glyph glyph-name="Sacute" unicode="&#x15a;" horiz-adv-x="544" 
d="M503 198c0 -125 -103 -213 -228 -213c-68 0 -116 18 -157 38l-37 -35h-20l-13 225l26 2c60 -140 142 -192 208 -192c71 0 106 46 106 99c0 58 -22 85 -114 123c-32 13 -70 26 -101 41c-70 35 -112 96 -112 169c0 111 101 197 209 197c59 0 93 -15 128 -34l38 34h20
l17 -201l-25 -3c-53 106 -114 166 -177 166c-59 0 -92 -36 -92 -87c0 -47 18 -81 89 -113c35 -16 77 -29 114 -47c81 -39 121 -95 121 -169zM373 906c27 -17 32 -55 8 -86c-29 -38 -81 -80 -135 -123l-13 9c15 67 34 131 58 173c18 32 54 45 82 27z" />
    <glyph glyph-name="sacute" unicode="&#x15b;" horiz-adv-x="415" 
d="M385 136c0 -93 -90 -152 -186 -152c-60 0 -111 9 -157 27l-3 137l20 2c73 -99 110 -132 162 -132c40 0 64 28 64 68c0 50 -53 70 -110 93c-65 27 -135 58 -135 146c0 79 78 144 186 144c39 0 97 -8 125 -18l3 -124l-20 -4c-60 81 -86 112 -134 112c-39 0 -61 -31 -61 -61
c0 -51 54 -71 111 -94c65 -26 135 -57 135 -144zM315 713c27 -17 32 -55 8 -86c-29 -38 -81 -80 -135 -123l-13 9c15 67 34 131 58 173c18 32 54 45 82 27z" />
    <glyph glyph-name="sacute.sc" horiz-adv-x="462" 
d="M425 158c0 -105 -86 -172 -187 -172c-54 0 -104 12 -138 26l-31 -29h-19l-10 188l22 2c67 -116 123 -154 177 -154s85 30 85 74c0 47 -24 64 -92 90c-26 10 -58 19 -85 32c-71 33 -96 73 -96 135c0 94 85 161 172 161c47 0 85 -10 117 -24l31 26h19l14 -173l-21 -2
c-63 100 -104 140 -160 140c-42 0 -67 -28 -67 -65c0 -41 19 -62 71 -85c29 -13 63 -22 94 -36c76 -33 104 -70 104 -134zM335 760c27 -17 32 -55 8 -86c-29 -38 -81 -80 -135 -123l-13 9c15 67 34 131 58 173c18 32 54 45 82 27z" />
    <glyph glyph-name="Scaron" unicode="&#x160;" horiz-adv-x="544" 
d="M503 198c0 -125 -103 -213 -228 -213c-68 0 -116 18 -157 38l-37 -35h-20l-13 225l26 2c60 -140 142 -192 208 -192c71 0 106 46 106 99c0 58 -22 85 -114 123c-32 13 -70 26 -101 41c-70 35 -112 96 -112 169c0 111 101 197 209 197c59 0 93 -15 128 -34l38 34h20
l17 -201l-25 -3c-53 106 -114 166 -177 166c-59 0 -92 -36 -92 -87c0 -47 18 -81 89 -113c35 -16 77 -29 114 -47c81 -39 121 -95 121 -169zM268 824l128 74l15 -12l-136 -183h-21l-129 183l15 12z" />
    <glyph glyph-name="scaron" unicode="&#x161;" horiz-adv-x="415" 
d="M385 136c0 -93 -90 -152 -186 -152c-60 0 -111 9 -157 27l-3 137l20 2c73 -99 110 -132 162 -132c40 0 64 28 64 68c0 50 -53 70 -110 93c-65 27 -135 58 -135 146c0 79 78 144 186 144c39 0 97 -8 125 -18l3 -124l-20 -4c-60 81 -86 112 -134 112c-39 0 -61 -31 -61 -61
c0 -51 54 -71 111 -94c65 -26 135 -57 135 -144zM210 631l128 74l15 -12l-136 -183h-21l-129 183l15 12z" />
    <glyph glyph-name="scaron.sc" horiz-adv-x="462" 
d="M425 158c0 -105 -86 -172 -187 -172c-54 0 -104 12 -138 26l-31 -29h-19l-10 188l22 2c67 -116 123 -154 177 -154s85 30 85 74c0 47 -24 64 -92 90c-26 10 -58 19 -85 32c-71 33 -96 73 -96 135c0 94 85 161 172 161c47 0 85 -10 117 -24l31 26h19l14 -173l-21 -2
c-63 100 -104 140 -160 140c-42 0 -67 -28 -67 -65c0 -41 19 -62 71 -85c29 -13 63 -22 94 -36c76 -33 104 -70 104 -134zM230 678l128 74l15 -12l-136 -183h-21l-129 183l15 12z" />
    <glyph glyph-name="Scedilla" unicode="&#x15e;" horiz-adv-x="544" 
d="M361 -162c0 -57 -50 -103 -120 -103c-51 0 -87 29 -87 60c0 23 16 40 37 40c24 0 36 -18 36 -39c0 -11 -5 -23 -14 -33c7 -2 12 -3 24 -3c27 0 49 22 49 58c0 38 -26 59 -55 59c-14 0 -23 -1 -32 -4l-12 12l115 102c-9 -1 -18 -2 -27 -2c-68 0 -116 18 -157 38l-37 -35
h-20l-13 225l26 2c60 -140 142 -192 208 -192c71 0 106 46 106 99c0 58 -22 85 -114 123c-32 13 -70 26 -101 41c-70 35 -112 96 -112 169c0 111 101 197 209 197c59 0 93 -15 128 -34l38 34h20l17 -201l-25 -3c-53 106 -114 166 -177 166c-59 0 -92 -36 -92 -87
c0 -47 18 -81 89 -113c35 -16 77 -29 114 -47c81 -39 121 -95 121 -169c0 -96 -61 -171 -146 -199l-76 -67c54 -13 80 -46 80 -94z" />
    <glyph glyph-name="scedilla" unicode="&#x15f;" horiz-adv-x="415" 
d="M295 -162c0 -57 -50 -103 -120 -103c-51 0 -87 29 -87 60c0 23 16 40 37 40c24 0 36 -18 36 -39c0 -11 -5 -23 -14 -33c7 -2 12 -3 24 -3c27 0 49 22 49 58c0 38 -26 59 -55 59c-14 0 -23 -1 -32 -4l-12 12l115 102c-12 -2 -25 -3 -37 -3c-60 0 -111 9 -157 27l-3 137
l20 2c73 -99 110 -132 162 -132c40 0 64 28 64 68c0 50 -53 70 -110 93c-65 27 -135 58 -135 146c0 79 78 144 186 144c39 0 97 -8 125 -18l3 -124l-20 -4c-60 81 -86 112 -134 112c-39 0 -61 -31 -61 -61c0 -51 54 -71 111 -94c65 -26 135 -57 135 -144
c0 -57 -34 -102 -82 -127l-88 -77c54 -13 80 -46 80 -94z" />
    <glyph glyph-name="scedilla.sc" horiz-adv-x="462" 
d="M318 -162c0 -57 -50 -103 -120 -103c-51 0 -87 29 -87 60c0 23 16 40 37 40c24 0 36 -18 36 -39c0 -11 -5 -23 -14 -33c7 -2 12 -3 24 -3c27 0 49 22 49 58c0 38 -26 59 -55 59c-14 0 -23 -1 -32 -4l-12 12l115 102c-7 0 -14 -1 -21 -1c-54 0 -104 12 -138 26l-31 -29
h-19l-10 188l22 2c67 -116 123 -154 177 -154s85 30 85 74c0 47 -24 64 -92 90c-26 10 -58 19 -85 32c-71 33 -96 73 -96 135c0 94 85 161 172 161c47 0 85 -10 117 -24l31 26h19l14 -173l-21 -2c-63 100 -104 140 -160 140c-42 0 -67 -28 -67 -65c0 -41 19 -62 71 -85
c29 -13 63 -22 94 -36c76 -33 104 -70 104 -134c0 -77 -46 -133 -109 -158l-78 -68c54 -13 80 -46 80 -94z" />
    <glyph glyph-name="Scommaaccent" unicode="&#x218;" horiz-adv-x="544" 
d="M503 198c0 -125 -103 -213 -228 -213c-68 0 -116 18 -157 38l-37 -35h-20l-13 225l26 2c60 -140 142 -192 208 -192c71 0 106 46 106 99c0 58 -22 85 -114 123c-32 13 -70 26 -101 41c-70 35 -112 96 -112 169c0 111 101 197 209 197c59 0 93 -15 128 -34l38 34h20
l17 -201l-25 -3c-53 106 -114 166 -177 166c-59 0 -92 -36 -92 -87c0 -47 18 -81 89 -113c35 -16 77 -29 114 -47c81 -39 121 -95 121 -169zM338 -160c0 -62 -47 -121 -128 -154l-9 12c63 46 84 86 88 115l-1 1l-11 -3c-8 -2 -16 -4 -24 -4c-30 0 -51 25 -51 56
c0 35 27 65 63 65c45 0 73 -36 73 -88z" />
    <glyph glyph-name="scommaaccent" unicode="&#x219;" horiz-adv-x="415" 
d="M385 136c0 -93 -90 -152 -186 -152c-60 0 -111 9 -157 27l-3 137l20 2c73 -99 110 -132 162 -132c40 0 64 28 64 68c0 50 -53 70 -110 93c-65 27 -135 58 -135 146c0 79 78 144 186 144c39 0 97 -8 125 -18l3 -124l-20 -4c-60 81 -86 112 -134 112c-39 0 -61 -31 -61 -61
c0 -51 54 -71 111 -94c65 -26 135 -57 135 -144zM273 -160c0 -62 -47 -121 -128 -154l-9 12c63 46 84 86 88 115l-1 1l-11 -3c-8 -2 -16 -4 -24 -4c-30 0 -51 25 -51 56c0 35 27 65 63 65c45 0 73 -36 73 -88z" />
    <glyph glyph-name="scommaaccent.sc" horiz-adv-x="462" 
d="M425 158c0 -105 -86 -172 -187 -172c-54 0 -104 12 -138 26l-31 -29h-19l-10 188l22 2c67 -116 123 -154 177 -154s85 30 85 74c0 47 -24 64 -92 90c-26 10 -58 19 -85 32c-71 33 -96 73 -96 135c0 94 85 161 172 161c47 0 85 -10 117 -24l31 26h19l14 -173l-21 -2
c-63 100 -104 140 -160 140c-42 0 -67 -28 -67 -65c0 -41 19 -62 71 -85c29 -13 63 -22 94 -36c76 -33 104 -70 104 -134zM295 -160c0 -62 -47 -121 -128 -154l-9 12c63 46 84 86 88 115l-1 1l-11 -3c-8 -2 -16 -4 -24 -4c-30 0 -51 25 -51 56c0 35 27 65 63 65
c45 0 73 -36 73 -88z" />
    <glyph glyph-name="Tcaron" unicode="&#x164;" horiz-adv-x="681" 
d="M657 414l-22 -5l-91 123c-39 53 -64 66 -114 70l-13 1v-562l90 -24v-17h-330v17l90 24v562l-17 -1c-50 -3 -74 -17 -113 -70l-92 -123l-21 5l28 223h577zM338 817l128 74l15 -12l-136 -183h-21l-129 183l15 12z" />
    <glyph glyph-name="tcaron" unicode="&#x165;" horiz-adv-x="363" 
d="M364 29c-34 -21 -112 -45 -174 -45c-80 0 -109 43 -109 116v293h-77v15l104 93l88 100h13v-147h152v-61h-152v-246c0 -45 8 -70 28 -84s40 -18 72 -18c16 0 37 1 53 1zM263 508l-3 34c-2 26 -3 55 -3 78c0 66 8 124 63 124c29 0 49 -24 49 -55c0 -43 -48 -118 -91 -185z
" />
    <glyph glyph-name="tcaron.sc" horiz-adv-x="555" 
d="M533 309l-18 -4l-77 103c-30 41 -51 56 -80 58l-14 1v-429l71 -22v-16h-277v16l71 22v429l-13 -1c-29 -2 -49 -17 -79 -58l-77 -103l-18 4l20 189h471zM275 671l128 74l15 -12l-136 -183h-21l-129 183l15 12z" />
    <glyph glyph-name="Tcommaaccent" unicode="&#x162;" horiz-adv-x="681" 
d="M657 414l-22 -5l-91 123c-39 53 -64 66 -114 70l-13 1v-562l90 -24v-17h-330v17l90 24v562l-17 -1c-50 -3 -74 -17 -113 -70l-92 -123l-21 5l28 223h577zM408 -160c0 -62 -47 -121 -128 -154l-9 12c63 46 84 86 88 115l-1 1l-11 -3c-8 -2 -16 -4 -24 -4
c-30 0 -51 25 -51 56c0 35 27 65 63 65c45 0 73 -36 73 -88z" />
    <glyph glyph-name="tcommaaccent" unicode="&#x163;" horiz-adv-x="363" 
d="M364 29c-34 -21 -112 -45 -174 -45c-80 0 -109 43 -109 116v293h-77v15l104 93l88 100h13v-147h152v-61h-152v-246c0 -45 8 -70 28 -84s40 -18 72 -18c16 0 37 1 53 1zM258 -160c0 -62 -47 -121 -128 -154l-9 12c63 46 84 86 88 115l-1 1l-11 -3c-8 -2 -16 -4 -24 -4
c-30 0 -51 25 -51 56c0 35 27 65 63 65c45 0 73 -36 73 -88z" />
    <glyph glyph-name="tcommaaccent.sc" horiz-adv-x="555" 
d="M533 309l-18 -4l-77 103c-30 41 -51 56 -80 58l-14 1v-429l71 -22v-16h-277v16l71 22v429l-13 -1c-29 -2 -49 -17 -79 -58l-77 -103l-18 4l20 189h471zM338 -160c0 -62 -47 -121 -128 -154l-9 12c63 46 84 86 88 115l-1 1l-11 -3c-8 -2 -16 -4 -24 -4
c-30 0 -51 25 -51 56c0 35 27 65 63 65c45 0 73 -36 73 -88z" />
    <glyph glyph-name="Thorn" unicode="&#xde;" horiz-adv-x="631" 
d="M602 324c0 -100 -87 -192 -232 -192c-33 0 -73 4 -105 9v-100l99 -24v-17h-335v17l86 24v555l-86 24v17h335v-17l-99 -24v-94c32 5 68 9 101 9c175 0 236 -89 236 -187zM447 325c0 88 -41 141 -119 143l-63 2v-294l63 2c78 2 119 58 119 147z" />
    <glyph glyph-name="thorn" unicode="&#xfe;" horiz-adv-x="552" 
d="M519 241c0 -135 -98 -257 -268 -257c-20 0 -41 2 -61 6v-160l70 -24v-13h-258v13l60 24v800l-66 47v10l190 54l4 -3v-332l4 -3c37 36 85 66 145 66c101 0 180 -90 180 -228zM382 209c0 125 -46 184 -124 184c-21 0 -43 -3 -68 -9v-313c23 -37 50 -55 93 -55
c52 0 99 52 99 193z" />
    <glyph glyph-name="thorn.sc" horiz-adv-x="522" 
d="M498 253c0 -90 -71 -151 -193 -151c-24 0 -53 2 -76 5v-70l83 -21v-16h-286v16l68 22v421l-68 22v16h286v-16l-83 -21v-65c23 3 52 5 76 5c122 0 193 -61 193 -147zM360 251c0 72 -36 113 -96 115l-35 1v-232l35 1c60 2 96 43 96 115z" />
    <glyph glyph-name="Uacute" unicode="&#xda;" horiz-adv-x="714" 
d="M575 587l-72 33v17h188v-17l-73 -33v-377c0 -145 -100 -225 -243 -225c-169 0 -270 77 -270 243v368l-86 24v17h323v-17l-87 -24v-388c0 -107 53 -162 160 -162c102 0 160 63 160 173v368zM479 899c27 -17 32 -55 8 -86c-29 -38 -81 -80 -135 -123l-13 9
c15 67 34 131 58 173c18 32 54 45 82 27z" />
    <glyph glyph-name="uacute" unicode="&#xfa;" horiz-adv-x="558" 
d="M488 66l60 -29v-10l-178 -44l-4 2l2 80l-4 3c-59 -56 -116 -84 -170 -84c-91 0 -124 68 -124 139v258l-57 39v10l181 42l4 -3v-306c0 -56 14 -97 72 -97c35 0 56 5 90 18v297l-57 39v10l181 42l4 -3v-403zM376 713c27 -17 32 -55 8 -86c-29 -38 -81 -80 -135 -123l-13 9
c15 67 34 131 58 173c18 32 54 45 82 27z" />
    <glyph glyph-name="uacute.sc" 
d="M476 450l-61 31v16h164v-16l-62 -31v-274c0 -127 -87 -191 -205 -191c-136 0 -222 61 -222 201v273l-68 22v16h271v-16l-68 -22v-286c0 -89 41 -134 127 -134c78 0 124 51 124 144v267zM419 753c27 -17 32 -55 8 -86c-29 -38 -81 -80 -135 -123l-13 9
c15 67 34 131 58 173c18 32 54 45 82 27z" />
    <glyph glyph-name="Ubreve" unicode="&#x16c;" horiz-adv-x="714" 
d="M575 587l-72 33v17h188v-17l-73 -33v-377c0 -145 -100 -225 -243 -225c-169 0 -270 77 -270 243v368l-86 24v17h323v-17l-87 -24v-388c0 -107 53 -162 160 -162c102 0 160 63 160 173v368zM375 803c57 0 108 28 128 71l22 -6c-12 -93 -62 -157 -150 -157
c-87 0 -139 64 -147 157l22 6c17 -43 68 -71 125 -71z" />
    <glyph glyph-name="ubreve" unicode="&#x16d;" horiz-adv-x="558" 
d="M488 66l60 -29v-10l-178 -44l-4 2l2 80l-4 3c-59 -56 -116 -84 -170 -84c-91 0 -124 68 -124 139v258l-57 39v10l181 42l4 -3v-306c0 -56 14 -97 72 -97c35 0 56 5 90 18v297l-57 39v10l181 42l4 -3v-403zM272 617c57 0 108 28 128 71l22 -6c-12 -93 -62 -157 -150 -157
c-87 0 -139 64 -147 157l22 6c17 -43 68 -71 125 -71z" />
    <glyph glyph-name="ubreve.sc" 
d="M476 450l-61 31v16h164v-16l-62 -31v-274c0 -127 -87 -191 -205 -191c-136 0 -222 61 -222 201v273l-68 22v16h271v-16l-68 -22v-286c0 -89 41 -134 127 -134c78 0 124 51 124 144v267zM315 657c57 0 108 28 128 71l22 -6c-12 -93 -62 -157 -150 -157
c-87 0 -139 64 -147 157l22 6c17 -43 68 -71 125 -71z" />
    <glyph glyph-name="Ucircumflex" unicode="&#xdb;" horiz-adv-x="714" 
d="M575 587l-72 33v17h188v-17l-73 -33v-377c0 -145 -100 -225 -243 -225c-169 0 -270 77 -270 243v368l-86 24v17h323v-17l-87 -24v-388c0 -107 53 -162 160 -162c102 0 160 63 160 173v368zM374 767l-128 -74l-15 13l136 183h21l129 -183l-15 -13z" />
    <glyph glyph-name="ucircumflex" unicode="&#xfb;" horiz-adv-x="558" 
d="M488 66l60 -29v-10l-178 -44l-4 2l2 80l-4 3c-59 -56 -116 -84 -170 -84c-91 0 -124 68 -124 139v258l-57 39v10l181 42l4 -3v-306c0 -56 14 -97 72 -97c35 0 56 5 90 18v297l-57 39v10l181 42l4 -3v-403zM271 581l-128 -74l-15 13l136 183h21l129 -183l-15 -13z" />
    <glyph glyph-name="ucircumflex.sc" 
d="M476 450l-61 31v16h164v-16l-62 -31v-274c0 -127 -87 -191 -205 -191c-136 0 -222 61 -222 201v273l-68 22v16h271v-16l-68 -22v-286c0 -89 41 -134 127 -134c78 0 124 51 124 144v267zM314 621l-128 -74l-15 13l136 183h21l129 -183l-15 -13z" />
    <glyph glyph-name="Udieresis" unicode="&#xdc;" horiz-adv-x="714" 
d="M575 587l-72 33v17h188v-17l-73 -33v-377c0 -145 -100 -225 -243 -225c-169 0 -270 77 -270 243v368l-86 24v17h323v-17l-87 -24v-388c0 -107 53 -162 160 -162c102 0 160 63 160 173v368zM467 714c-40 0 -69 31 -69 71s33 78 77 78c40 0 69 -30 69 -71
c0 -40 -33 -78 -77 -78zM276 714c-41 0 -69 31 -69 71s33 78 76 78c41 0 69 -30 69 -71c0 -40 -33 -78 -76 -78z" />
    <glyph glyph-name="udieresis" unicode="&#xfc;" horiz-adv-x="558" 
d="M488 66l60 -29v-10l-178 -44l-4 2l2 80l-4 3c-59 -56 -116 -84 -170 -84c-91 0 -124 68 -124 139v258l-57 39v10l181 42l4 -3v-306c0 -56 14 -97 72 -97c35 0 56 5 90 18v297l-57 39v10l181 42l4 -3v-403zM364 528c-40 0 -69 31 -69 71s33 78 77 78c40 0 69 -30 69 -71
c0 -40 -33 -78 -77 -78zM173 528c-41 0 -69 31 -69 71s33 78 76 78c41 0 69 -30 69 -71c0 -40 -33 -78 -76 -78z" />
    <glyph glyph-name="udieresis.sc" 
d="M476 450l-61 31v16h164v-16l-62 -31v-274c0 -127 -87 -191 -205 -191c-136 0 -222 61 -222 201v273l-68 22v16h271v-16l-68 -22v-286c0 -89 41 -134 127 -134c78 0 124 51 124 144v267zM407 568c-40 0 -69 31 -69 71s33 78 77 78c40 0 69 -30 69 -71
c0 -40 -33 -78 -77 -78zM216 568c-41 0 -69 31 -69 71s33 78 76 78c41 0 69 -30 69 -71c0 -40 -33 -78 -76 -78z" />
    <glyph glyph-name="Ugrave" unicode="&#xd9;" horiz-adv-x="714" 
d="M575 587l-72 33v17h188v-17l-73 -33v-377c0 -145 -100 -225 -243 -225c-169 0 -270 77 -270 243v368l-86 24v17h323v-17l-87 -24v-388c0 -107 53 -162 160 -162c102 0 160 63 160 173v368zM426 699l-13 -9c-54 43 -106 85 -135 123c-24 31 -19 68 9 86c27 17 65 5 82 -27
c23 -42 41 -104 57 -173z" />
    <glyph glyph-name="ugrave" unicode="&#xf9;" horiz-adv-x="558" 
d="M488 66l60 -29v-10l-178 -44l-4 2l2 80l-4 3c-59 -56 -116 -84 -170 -84c-91 0 -124 68 -124 139v258l-57 39v10l181 42l4 -3v-306c0 -56 14 -97 72 -97c35 0 56 5 90 18v297l-57 39v10l181 42l4 -3v-403zM323 513l-13 -9c-54 43 -106 85 -135 123c-24 31 -19 68 9 86
c27 17 65 5 82 -27c23 -42 41 -104 57 -173z" />
    <glyph glyph-name="ugrave.sc" 
d="M476 450l-61 31v16h164v-16l-62 -31v-274c0 -127 -87 -191 -205 -191c-136 0 -222 61 -222 201v273l-68 22v16h271v-16l-68 -22v-286c0 -89 41 -134 127 -134c78 0 124 51 124 144v267zM366 553l-13 -9c-54 43 -106 85 -135 123c-24 31 -19 68 9 86c27 17 65 5 82 -27
c23 -42 41 -104 57 -173z" />
    <glyph glyph-name="Uhungarumlaut" unicode="&#x170;" horiz-adv-x="714" 
d="M575 587l-72 33v17h188v-17l-73 -33v-377c0 -145 -100 -225 -243 -225c-169 0 -270 77 -270 243v368l-86 24v17h323v-17l-87 -24v-388c0 -107 53 -162 160 -162c102 0 160 63 160 173v368zM565 814c-29 -37 -78 -78 -135 -120l-13 9c17 65 41 128 66 169
c19 31 54 43 80 26s26 -53 2 -84zM413 817c-29 -37 -77 -81 -132 -124l-14 8c17 69 38 130 61 171c18 32 53 46 79 29s30 -53 6 -84z" />
    <glyph glyph-name="uhungarumlaut" unicode="&#x171;" horiz-adv-x="558" 
d="M488 66l60 -29v-10l-178 -44l-4 2l2 80l-4 3c-59 -56 -116 -84 -170 -84c-91 0 -124 68 -124 139v258l-57 39v10l181 42l4 -3v-306c0 -56 14 -97 72 -97c35 0 56 5 90 18v297l-57 39v10l181 42l4 -3v-403zM462 628c-29 -37 -78 -78 -135 -120l-13 9c17 65 41 128 66 169
c19 31 54 43 80 26s26 -53 2 -84zM310 631c-29 -37 -77 -81 -132 -124l-14 8c17 69 38 130 61 171c18 32 53 46 79 29s30 -53 6 -84z" />
    <glyph glyph-name="uhungarumlaut.sc" 
d="M476 450l-61 31v16h164v-16l-62 -31v-274c0 -127 -87 -191 -205 -191c-136 0 -222 61 -222 201v273l-68 22v16h271v-16l-68 -22v-286c0 -89 41 -134 127 -134c78 0 124 51 124 144v267zM505 668c-29 -37 -78 -78 -135 -120l-13 9c17 65 41 128 66 169c19 31 54 43 80 26
s26 -53 2 -84zM353 671c-29 -37 -77 -81 -132 -124l-14 8c17 69 38 130 61 171c18 32 53 46 79 29s30 -53 6 -84z" />
    <glyph glyph-name="Umacron" unicode="&#x16a;" horiz-adv-x="714" 
d="M575 587l-72 33v17h188v-17l-73 -33v-377c0 -145 -100 -225 -243 -225c-169 0 -270 77 -270 243v368l-86 24v17h323v-17l-87 -24v-388c0 -107 53 -162 160 -162c102 0 160 63 160 173v368zM513 792v-67h-276v67h276z" />
    <glyph glyph-name="umacron" unicode="&#x16b;" horiz-adv-x="558" 
d="M488 66l60 -29v-10l-178 -44l-4 2l2 80l-4 3c-59 -56 -116 -84 -170 -84c-91 0 -124 68 -124 139v258l-57 39v10l181 42l4 -3v-306c0 -56 14 -97 72 -97c35 0 56 5 90 18v297l-57 39v10l181 42l4 -3v-403zM410 606v-67h-276v67h276z" />
    <glyph glyph-name="umacron.sc" 
d="M476 450l-61 31v16h164v-16l-62 -31v-274c0 -127 -87 -191 -205 -191c-136 0 -222 61 -222 201v273l-68 22v16h271v-16l-68 -22v-286c0 -89 41 -134 127 -134c78 0 124 51 124 144v267zM453 646v-67h-276v67h276z" />
    <glyph glyph-name="Uogonek" unicode="&#x172;" horiz-adv-x="714" 
d="M575 587l-72 33v17h188v-17l-73 -33v-377c0 -122 -71 -198 -178 -218c-55 -55 -61 -102 -61 -123c0 -37 17 -68 54 -68c22 0 36 7 43 15l11 -8c-17 -35 -52 -61 -95 -61c-61 0 -99 43 -99 95c0 45 33 99 96 143h-14c-169 0 -270 77 -270 243v368l-86 24v17h323v-17
l-87 -24v-388c0 -107 53 -162 160 -162c102 0 160 63 160 173v368z" />
    <glyph glyph-name="uogonek" unicode="&#x173;" horiz-adv-x="558" 
d="M488 66l60 -29v-10c-76 -36 -128 -103 -128 -158c0 -37 17 -68 54 -68c22 0 36 7 43 15l11 -8c-17 -35 -52 -61 -95 -61c-61 0 -99 43 -99 95c0 53 44 120 129 164l-93 -23l-4 2l2 80l-4 3c-59 -56 -116 -84 -170 -84c-91 0 -124 68 -124 139v258l-57 39v10l181 42l4 -3
v-306c0 -56 14 -97 72 -97c35 0 56 5 90 18v297l-57 39v10l181 42l4 -3v-403z" />
    <glyph glyph-name="uogonek.sc" 
d="M476 450l-61 31v16h164v-16l-62 -31v-274c0 -104 -59 -166 -145 -184c-55 -55 -61 -102 -61 -123c0 -37 17 -68 54 -68c22 0 36 7 43 15l11 -8c-17 -35 -52 -61 -95 -61c-61 0 -99 43 -99 95c0 45 32 99 96 143h-9c-136 0 -222 61 -222 201v273l-68 22v16h271v-16
l-68 -22v-286c0 -89 41 -134 127 -134c78 0 124 51 124 144v267z" />
    <glyph glyph-name="Uring" unicode="&#x16e;" horiz-adv-x="714" 
d="M575 587l-72 33v17h188v-17l-73 -33v-377c0 -145 -100 -225 -243 -225c-169 0 -270 77 -270 243v368l-86 24v17h323v-17l-87 -24v-388c0 -107 53 -162 160 -162c102 0 160 63 160 173v368zM477 784c0 -48 -37 -98 -104 -98c-66 0 -100 46 -100 97c0 48 38 96 105 96
c66 0 99 -44 99 -95zM411 784c0 44 -9 69 -37 69c-26 0 -35 -26 -35 -71c0 -44 11 -69 37 -69c28 0 35 26 35 71z" />
    <glyph glyph-name="uring" unicode="&#x16f;" horiz-adv-x="558" 
d="M488 66l60 -29v-10l-178 -44l-4 2l2 80l-4 3c-59 -56 -116 -84 -170 -84c-91 0 -124 68 -124 139v258l-57 39v10l181 42l4 -3v-306c0 -56 14 -97 72 -97c35 0 56 5 90 18v297l-57 39v10l181 42l4 -3v-403zM374 598c0 -48 -37 -98 -104 -98c-66 0 -100 46 -100 97
c0 48 38 96 105 96c66 0 99 -44 99 -95zM308 598c0 44 -9 69 -37 69c-26 0 -35 -26 -35 -71c0 -44 11 -69 37 -69c28 0 35 26 35 71z" />
    <glyph glyph-name="uring.sc" 
d="M476 450l-61 31v16h164v-16l-62 -31v-274c0 -127 -87 -191 -205 -191c-136 0 -222 61 -222 201v273l-68 22v16h271v-16l-68 -22v-286c0 -89 41 -134 127 -134c78 0 124 51 124 144v267zM417 638c0 -48 -37 -98 -104 -98c-66 0 -100 46 -100 97c0 48 38 96 105 96
c66 0 99 -44 99 -95zM351 638c0 44 -9 69 -37 69c-26 0 -35 -26 -35 -71c0 -44 11 -69 37 -69c28 0 35 26 35 71z" />
    <glyph glyph-name="Wacute" unicode="&#x1e82;" horiz-adv-x="939" 
d="M585 596l120 -399h2l105 384l-66 39v17h196v-17l-61 -33l-205 -593h-35l-159 444h-2l-175 -444h-35l-189 597l-80 29v17h307v-17l-69 -24l103 -404h2l116 310l-27 89l-61 29v17h286v-17zM597 899c27 -17 32 -55 8 -86c-29 -38 -81 -80 -135 -123l-13 9
c15 67 34 131 58 173c18 32 54 45 82 27z" />
    <glyph glyph-name="wacute" unicode="&#x1e83;" horiz-adv-x="738" 
d="M474 414l65 -265h5l86 258l-52 33v14h181v-14l-65 -35l-181 -416h-28l-99 280l-140 -280h-28l-159 425l-60 26v14h244v-14l-44 -26l81 -270h5l82 176c1 0 -33 94 -33 94l-48 26v14h244v-14zM491 713c27 -17 32 -55 8 -86c-29 -38 -81 -80 -135 -123l-13 9
c15 67 34 131 58 173c18 32 54 45 82 27z" />
    <glyph glyph-name="wacute.sc" horiz-adv-x="792" 
d="M383 386l-25 71l-48 24v16h244v-16l-59 -22l95 -294h2l82 280l-65 35v17h185v-17l-61 -32l-163 -455h-46l-121 338h-2l-132 -338h-44l-157 464l-63 24v16h261v-16l-55 -22l84 -294h2zM522 753c27 -17 32 -55 8 -86c-29 -38 -81 -80 -135 -123l-13 9c15 67 34 131 58 173
c18 32 54 45 82 27z" />
    <glyph glyph-name="Wcircumflex" unicode="&#x174;" horiz-adv-x="939" 
d="M585 596l120 -399h2l105 384l-66 39v17h196v-17l-61 -33l-205 -593h-35l-159 444h-2l-175 -444h-35l-189 597l-80 29v17h307v-17l-69 -24l103 -404h2l116 310l-27 89l-61 29v17h286v-17zM492 767l-128 -74l-15 13l136 183h21l129 -183l-15 -13z" />
    <glyph glyph-name="wcircumflex" unicode="&#x175;" horiz-adv-x="738" 
d="M474 414l65 -265h5l86 258l-52 33v14h181v-14l-65 -35l-181 -416h-28l-99 280l-140 -280h-28l-159 425l-60 26v14h244v-14l-44 -26l81 -270h5l82 176c1 0 -33 94 -33 94l-48 26v14h244v-14zM386 581l-128 -74l-15 13l136 183h21l129 -183l-15 -13z" />
    <glyph glyph-name="wcircumflex.sc" horiz-adv-x="792" 
d="M383 386l-25 71l-48 24v16h244v-16l-59 -22l95 -294h2l82 280l-65 35v17h185v-17l-61 -32l-163 -455h-46l-121 338h-2l-132 -338h-44l-157 464l-63 24v16h261v-16l-55 -22l84 -294h2zM417 621l-128 -74l-15 13l136 183h21l129 -183l-15 -13z" />
    <glyph glyph-name="Wdieresis" unicode="&#x1e84;" horiz-adv-x="939" 
d="M585 596l120 -399h2l105 384l-66 39v17h196v-17l-61 -33l-205 -593h-35l-159 444h-2l-175 -444h-35l-189 597l-80 29v17h307v-17l-69 -24l103 -404h2l116 310l-27 89l-61 29v17h286v-17zM585 714c-40 0 -69 31 -69 71s33 78 77 78c40 0 69 -30 69 -71
c0 -40 -33 -78 -77 -78zM394 714c-41 0 -69 31 -69 71s33 78 76 78c41 0 69 -30 69 -71c0 -40 -33 -78 -76 -78z" />
    <glyph glyph-name="wdieresis" unicode="&#x1e85;" horiz-adv-x="738" 
d="M474 414l65 -265h5l86 258l-52 33v14h181v-14l-65 -35l-181 -416h-28l-99 280l-140 -280h-28l-159 425l-60 26v14h244v-14l-44 -26l81 -270h5l82 176c1 0 -33 94 -33 94l-48 26v14h244v-14zM479 528c-40 0 -69 31 -69 71s33 78 77 78c40 0 69 -30 69 -71
c0 -40 -33 -78 -77 -78zM288 528c-41 0 -69 31 -69 71s33 78 76 78c41 0 69 -30 69 -71c0 -40 -33 -78 -76 -78z" />
    <glyph glyph-name="wdieresis.sc" horiz-adv-x="792" 
d="M383 386l-25 71l-48 24v16h244v-16l-59 -22l95 -294h2l82 280l-65 35v17h185v-17l-61 -32l-163 -455h-46l-121 338h-2l-132 -338h-44l-157 464l-63 24v16h261v-16l-55 -22l84 -294h2zM510 568c-40 0 -69 31 -69 71s33 78 77 78c40 0 69 -30 69 -71c0 -40 -33 -78 -77 -78
zM319 568c-41 0 -69 31 -69 71s33 78 76 78c41 0 69 -30 69 -71c0 -40 -33 -78 -76 -78z" />
    <glyph glyph-name="Wgrave" unicode="&#x1e80;" horiz-adv-x="939" 
d="M585 596l120 -399h2l105 384l-66 39v17h196v-17l-61 -33l-205 -593h-35l-159 444h-2l-175 -444h-35l-189 597l-80 29v17h307v-17l-69 -24l103 -404h2l116 310l-27 89l-61 29v17h286v-17zM544 699l-13 -9c-54 43 -106 85 -135 123c-24 31 -19 68 9 86c27 17 65 5 82 -27
c23 -42 41 -104 57 -173z" />
    <glyph glyph-name="wgrave" unicode="&#x1e81;" horiz-adv-x="738" 
d="M474 414l65 -265h5l86 258l-52 33v14h181v-14l-65 -35l-181 -416h-28l-99 280l-140 -280h-28l-159 425l-60 26v14h244v-14l-44 -26l81 -270h5l82 176c1 0 -33 94 -33 94l-48 26v14h244v-14zM438 513l-13 -9c-54 43 -106 85 -135 123c-24 31 -19 68 9 86
c27 17 65 5 82 -27c23 -42 41 -104 57 -173z" />
    <glyph glyph-name="wgrave.sc" horiz-adv-x="792" 
d="M383 386l-25 71l-48 24v16h244v-16l-59 -22l95 -294h2l82 280l-65 35v17h185v-17l-61 -32l-163 -455h-46l-121 338h-2l-132 -338h-44l-157 464l-63 24v16h261v-16l-55 -22l84 -294h2zM469 553l-13 -9c-54 43 -106 85 -135 123c-24 31 -19 68 9 86c27 17 65 5 82 -27
c23 -42 41 -104 57 -173z" />
    <glyph glyph-name="Yacute" unicode="&#xdd;" horiz-adv-x="637" 
d="M583 587l-179 -284v-255l90 -31v-17h-329v17l89 31v223l-182 314l-75 35v17h316v-17l-74 -30l139 -249l121 243l-60 36v17h211v-17zM445 899c27 -17 32 -55 8 -86c-29 -38 -81 -80 -135 -123l-13 9c15 67 34 131 58 173c18 32 54 45 82 27z" />
    <glyph glyph-name="yacute" unicode="&#xfd;" horiz-adv-x="494" 
d="M451 405l-154 -379c-67 -164 -118 -233 -186 -233c-59 0 -88 33 -88 71c0 34 32 65 67 65c38 0 60 -17 86 -48c19 24 48 69 58 91l5 11l-179 431l-60 26v14h259v-14l-59 -26l99 -275h5l89 268l-53 33v14h173v-14zM370 713c27 -17 32 -55 8 -86c-29 -38 -81 -80 -135 -123
l-13 9c15 67 34 131 58 173c18 32 54 45 82 27z" />
    <glyph glyph-name="yacute.sc" horiz-adv-x="536" 
d="M479 452l-135 -229v-179l71 -28v-16h-276v16l70 28v156l-143 250l-61 31v16h270v-16l-61 -26l107 -200l96 195l-59 31v16h184v-16zM387 753c27 -17 32 -55 8 -86c-29 -38 -81 -80 -135 -123l-13 9c15 67 34 131 58 173c18 32 54 45 82 27z" />
    <glyph glyph-name="Ycircumflex" unicode="&#x176;" horiz-adv-x="637" 
d="M583 587l-179 -284v-255l90 -31v-17h-329v17l89 31v223l-182 314l-75 35v17h316v-17l-74 -30l139 -249l121 243l-60 36v17h211v-17zM340 767l-128 -74l-15 13l136 183h21l129 -183l-15 -13z" />
    <glyph glyph-name="ycircumflex" unicode="&#x177;" horiz-adv-x="494" 
d="M451 405l-154 -379c-67 -164 -118 -233 -186 -233c-59 0 -88 33 -88 71c0 34 32 65 67 65c38 0 60 -17 86 -48c19 24 48 69 58 91l5 11l-179 431l-60 26v14h259v-14l-59 -26l99 -275h5l89 268l-53 33v14h173v-14zM265 581l-128 -74l-15 13l136 183h21l129 -183l-15 -13z
" />
    <glyph glyph-name="ycircumflex.sc" horiz-adv-x="536" 
d="M479 452l-135 -229v-179l71 -28v-16h-276v16l70 28v156l-143 250l-61 31v16h270v-16l-61 -26l107 -200l96 195l-59 31v16h184v-16zM282 621l-128 -74l-15 13l136 183h21l129 -183l-15 -13z" />
    <glyph glyph-name="Ydieresis" unicode="&#x178;" horiz-adv-x="637" 
d="M583 587l-179 -284v-255l90 -31v-17h-329v17l89 31v223l-182 314l-75 35v17h316v-17l-74 -30l139 -249l121 243l-60 36v17h211v-17zM433 714c-40 0 -69 31 -69 71s33 78 77 78c40 0 69 -30 69 -71c0 -40 -33 -78 -77 -78zM242 714c-41 0 -69 31 -69 71s33 78 76 78
c41 0 69 -30 69 -71c0 -40 -33 -78 -76 -78z" />
    <glyph glyph-name="ydieresis" unicode="&#xff;" horiz-adv-x="494" 
d="M451 405l-154 -379c-67 -164 -118 -233 -186 -233c-59 0 -88 33 -88 71c0 34 32 65 67 65c38 0 60 -17 86 -48c19 24 48 69 58 91l5 11l-179 431l-60 26v14h259v-14l-59 -26l99 -275h5l89 268l-53 33v14h173v-14zM358 528c-40 0 -69 31 -69 71s33 78 77 78
c40 0 69 -30 69 -71c0 -40 -33 -78 -77 -78zM167 528c-41 0 -69 31 -69 71s33 78 76 78c41 0 69 -30 69 -71c0 -40 -33 -78 -76 -78z" />
    <glyph glyph-name="ydieresis.sc" horiz-adv-x="536" 
d="M479 452l-135 -229v-179l71 -28v-16h-276v16l70 28v156l-143 250l-61 31v16h270v-16l-61 -26l107 -200l96 195l-59 31v16h184v-16zM375 568c-40 0 -69 31 -69 71s33 78 77 78c40 0 69 -30 69 -71c0 -40 -33 -78 -77 -78zM184 568c-41 0 -69 31 -69 71s33 78 76 78
c41 0 69 -30 69 -71c0 -40 -33 -78 -76 -78z" />
    <glyph glyph-name="Ygrave" unicode="&#x1ef2;" horiz-adv-x="637" 
d="M583 587l-179 -284v-255l90 -31v-17h-329v17l89 31v223l-182 314l-75 35v17h316v-17l-74 -30l139 -249l121 243l-60 36v17h211v-17zM392 699l-13 -9c-54 43 -106 85 -135 123c-24 31 -19 68 9 86c27 17 65 5 82 -27c23 -42 41 -104 57 -173z" />
    <glyph glyph-name="ygrave" unicode="&#x1ef3;" horiz-adv-x="494" 
d="M451 405l-154 -379c-67 -164 -118 -233 -186 -233c-59 0 -88 33 -88 71c0 34 32 65 67 65c38 0 60 -17 86 -48c19 24 48 69 58 91l5 11l-179 431l-60 26v14h259v-14l-59 -26l99 -275h5l89 268l-53 33v14h173v-14zM317 513l-13 -9c-54 43 -106 85 -135 123
c-24 31 -19 68 9 86c27 17 65 5 82 -27c23 -42 41 -104 57 -173z" />
    <glyph glyph-name="ygrave.sc" horiz-adv-x="536" 
d="M479 452l-135 -229v-179l71 -28v-16h-276v16l70 28v156l-143 250l-61 31v16h270v-16l-61 -26l107 -200l96 195l-59 31v16h184v-16zM334 553l-13 -9c-54 43 -106 85 -135 123c-24 31 -19 68 9 86c27 17 65 5 82 -27c23 -42 41 -104 57 -173z" />
    <glyph glyph-name="Zacute" unicode="&#x179;" horiz-adv-x="630" 
d="M590 223l-16 -223h-544l-4 10l391 585l-138 -3c-52 -1 -84 -20 -135 -82l-64 -77l-18 5l17 199h514l4 -10l-387 -587l170 3c55 1 85 29 120 78l75 106zM434 899c27 -17 32 -55 8 -86c-29 -38 -81 -80 -135 -123l-13 9c15 67 34 131 58 173c18 32 54 45 82 27z" />
    <glyph glyph-name="zacute" unicode="&#x17a;" horiz-adv-x="471" 
d="M457 441l-290 -403h147l114 133l18 -6l-12 -165h-412l-9 14l290 402h-139l-106 -133l-18 6l9 165h399zM350 713c27 -17 32 -55 8 -86c-29 -38 -81 -80 -135 -123l-13 9c15 67 34 131 58 173c18 32 54 45 82 27z" />
    <glyph glyph-name="zacute.sc" horiz-adv-x="523" 
d="M487 191l-12 -191h-452l-4 9l316 450l-104 -1c-45 0 -65 -13 -108 -66l-59 -73l-13 3l14 175h430l4 -9l-314 -451l128 2c48 1 67 22 96 63l65 92zM372 753c27 -17 32 -55 8 -86c-29 -38 -81 -80 -135 -123l-13 9c15 67 34 131 58 173c18 32 54 45 82 27z" />
    <glyph glyph-name="Zcaron" unicode="&#x17d;" horiz-adv-x="630" 
d="M590 223l-16 -223h-544l-4 10l391 585l-138 -3c-52 -1 -84 -20 -135 -82l-64 -77l-18 5l17 199h514l4 -10l-387 -587l170 3c55 1 85 29 120 78l75 106zM329 817l128 74l15 -12l-136 -183h-21l-129 183l15 12z" />
    <glyph glyph-name="zcaron" unicode="&#x17e;" horiz-adv-x="471" 
d="M457 441l-290 -403h147l114 133l18 -6l-12 -165h-412l-9 14l290 402h-139l-106 -133l-18 6l9 165h399zM245 631l128 74l15 -12l-136 -183h-21l-129 183l15 12z" />
    <glyph glyph-name="zcaron.sc" horiz-adv-x="523" 
d="M487 191l-12 -191h-452l-4 9l316 450l-104 -1c-45 0 -65 -13 -108 -66l-59 -73l-13 3l14 175h430l4 -9l-314 -451l128 2c48 1 67 22 96 63l65 92zM267 671l128 74l15 -12l-136 -183h-21l-129 183l15 12z" />
    <glyph glyph-name="Zdotaccent" unicode="&#x17b;" horiz-adv-x="630" 
d="M590 223l-16 -223h-544l-4 10l391 585l-138 -3c-52 -1 -84 -20 -135 -82l-64 -77l-18 5l17 199h514l4 -10l-387 -587l170 3c55 1 85 29 120 78l75 106zM404 792c0 -40 -33 -78 -76 -78c-41 0 -69 31 -69 71s33 78 76 78c41 0 69 -30 69 -71z" />
    <glyph glyph-name="zdotaccent" unicode="&#x17c;" horiz-adv-x="471" 
d="M457 441l-290 -403h147l114 133l18 -6l-12 -165h-412l-9 14l290 402h-139l-106 -133l-18 6l9 165h399zM320 606c0 -40 -33 -78 -76 -78c-41 0 -69 31 -69 71s33 78 76 78c41 0 69 -30 69 -71z" />
    <glyph glyph-name="zdotaccent.sc" horiz-adv-x="523" 
d="M487 191l-12 -191h-452l-4 9l316 450l-104 -1c-45 0 -65 -13 -108 -66l-59 -73l-13 3l14 175h430l4 -9l-314 -451l128 2c48 1 67 22 96 63l65 92zM342 646c0 -40 -33 -78 -76 -78c-41 0 -69 31 -69 71s33 78 76 78c41 0 69 -30 69 -71z" />
    <glyph glyph-name="schwa" unicode="&#x259;" horiz-adv-x="499" 
d="M28 202h306c-1 122 -27 198 -141 198c-50 0 -92 -9 -154 -26l-6 13c60 47 139 82 203 82c145 0 233 -94 233 -233c0 -145 -118 -252 -238 -252c-140 0 -206 93 -203 218zM333 173l-179 -11c2 -100 29 -146 84 -146c53 0 90 62 95 157z" />
    <glyph glyph-name="germandbls" unicode="&#xdf;" horiz-adv-x="599" 
d="M589 158c0 -95 -68 -173 -170 -173c-95 0 -137 45 -137 98c0 36 25 67 61 67c69 0 81 -73 42 -129c9 -1 19 -2 32 -2c35 0 65 26 65 72c0 61 -48 124 -195 221v7c101 101 122 156 122 231c0 80 -46 139 -112 139c-42 0 -75 -28 -75 -116v-542l41 -17v-14h-229v14l60 24
v358h-90v17l90 45v20c0 101 42 155 106 206c37 29 89 57 163 57c105 0 177 -69 177 -145c0 -62 -36 -118 -137 -199v-7c131 -83 186 -166 186 -232z" />
    <glyph glyph-name="zero" unicode="0" horiz-adv-x="569" 
d="M540 306c0 -180 -92 -321 -260 -321c-175 0 -252 141 -252 321c0 181 92 322 259 322c176 0 253 -141 253 -322zM397 306c0 209 -56 289 -121 289c-57 0 -105 -55 -105 -289s56 -288 121 -288c57 0 105 80 105 288z" />
    <glyph glyph-name="one" unicode="1" horiz-adv-x="389" 
d="M265 61l105 -45v-16h-337v16l105 45v462l-106 53v12l229 33l4 -3v-557z" />
    <glyph glyph-name="two" unicode="2" horiz-adv-x="506" 
d="M305 406c0 74 -45 122 -116 122c-54 0 -97 -20 -140 -54l-10 12c45 86 113 142 205 142c131 0 193 -90 193 -186c0 -100 -82 -196 -281 -323l2 -6h226l71 90l13 -3l-33 -200h-422l-5 28c85 68 147 125 191 174c69 76 106 144 106 204z" />
    <glyph glyph-name="three" unicode="3" horiz-adv-x="494" 
d="M449 176c0 -122 -104 -191 -225 -191c-124 0 -203 52 -203 117c0 47 35 75 73 75c72 0 86 -66 73 -132c16 -15 40 -23 64 -23c54 0 99 43 99 106s-40 148 -204 171v12c138 47 180 93 180 143c0 40 -33 77 -103 77c-50 0 -92 -14 -142 -36l-9 11c51 75 131 122 214 122
c109 0 160 -61 160 -125c0 -62 -34 -109 -128 -144v-7c112 -28 151 -100 151 -176z" />
    <glyph glyph-name="four" unicode="4" horiz-adv-x="535" 
d="M497 161h-95v-100l104 -45v-16h-340v16l106 45v100h-252l-8 18l373 448l17 -6v-371h95v-89zM272 250v195h-2l-160 -195h162z" />
    <glyph glyph-name="five" unicode="5" horiz-adv-x="504" 
d="M458 201c0 -119 -91 -216 -229 -216c-123 0 -194 52 -194 117c0 47 35 75 73 75c72 0 86 -66 72 -132c13 -14 35 -23 59 -23c49 0 100 46 100 131c0 79 -52 137 -161 137c-31 0 -62 -5 -96 -15l-17 4l34 333h283l38 49l14 -4l-15 -160h-288l-11 -108l4 -2c32 4 62 7 94 7
c176 0 240 -84 240 -193z" />
    <glyph glyph-name="six" unicode="6" horiz-adv-x="538" 
d="M498 215c0 -128 -91 -230 -230 -230c-120 0 -231 74 -231 240c0 100 38 202 121 282c74 71 165 107 275 132l5 -23c-62 -27 -115 -59 -155 -96c-47 -44 -69 -89 -91 -152l4 -2c33 21 73 33 115 33c123 0 187 -91 187 -184zM370 172c0 100 -30 175 -121 175
c-24 0 -42 -5 -68 -18c-8 -26 -13 -70 -13 -111c0 -105 39 -200 112 -200c64 0 90 58 90 154z" />
    <glyph glyph-name="seven" unicode="7" horiz-adv-x="486" 
d="M376 494h-276l-50 -59l-11 3l27 203l11 4l21 -33h364l8 -10l-267 -617h-129l147 244z" />
    <glyph glyph-name="eight" unicode="8" horiz-adv-x="508" 
d="M447 490c0 -60 -38 -106 -128 -141c100 -51 149 -106 149 -186c0 -92 -85 -178 -221 -178c-134 0 -204 67 -204 149c0 68 47 125 130 157c-74 43 -113 96 -113 171c0 97 82 166 202 166c124 0 185 -70 185 -138zM175 506c0 -58 48 -103 119 -143c37 45 52 76 52 126
c0 57 -32 106 -90 106c-46 0 -81 -30 -81 -89zM343 113c0 54 -41 118 -148 166c-26 -38 -43 -80 -43 -130c0 -72 38 -131 109 -131c50 0 82 42 82 95z" />
    <glyph glyph-name="nine" unicode="9" horiz-adv-x="533" 
d="M496 388c0 -101 -38 -203 -121 -282c-74 -71 -165 -108 -284 -132l-5 22c71 27 125 60 164 96c47 44 72 99 94 162l-4 2c-28 -21 -64 -33 -107 -33c-115 0 -197 72 -197 182c0 121 90 223 229 223c135 0 231 -87 231 -240zM364 395c0 113 -39 200 -106 200
c-64 0 -94 -58 -94 -154c0 -100 36 -166 127 -166c24 0 37 5 62 18c9 26 11 60 11 102z" />
    <glyph glyph-name="period" unicode="." horiz-adv-x="208" 
d="M175 55c0 -39 -31 -71 -70 -71s-71 32 -71 71s32 70 71 70s70 -31 70 -70z" />
    <glyph glyph-name="comma" unicode="," horiz-adv-x="232" 
d="M197 28c0 -59 -32 -124 -141 -171l-11 14c65 56 87 94 97 128l-2 2l-13 -4c-10 -3 -16 -4 -25 -4c-33 0 -57 26 -57 60c0 39 31 72 71 72c50 0 81 -40 81 -97z" />
    <glyph glyph-name="colon" unicode=":" horiz-adv-x="208" 
d="M175 361c0 -40 -31 -71 -70 -71s-71 31 -71 71c0 39 32 70 71 70s70 -31 70 -70zM175 55c0 -39 -31 -71 -70 -71s-71 32 -71 71s32 70 71 70s70 -31 70 -70z" />
    <glyph glyph-name="semicolon" unicode=";" horiz-adv-x="232" 
d="M196 361c0 -40 -32 -71 -71 -71s-71 31 -71 71c0 39 32 70 71 70s71 -31 71 -70zM197 28c0 -59 -32 -124 -141 -171l-11 14c65 56 87 94 97 128l-2 2l-13 -4c-10 -3 -16 -4 -25 -4c-33 0 -57 26 -57 60c0 39 31 72 71 72c50 0 81 -40 81 -97z" />
    <glyph glyph-name="ellipsis" unicode="&#x2026;" horiz-adv-x="644" 
d="M611 55c0 -39 -31 -71 -70 -71s-71 32 -71 71s32 70 71 70s70 -31 70 -70zM393 55c0 -39 -31 -71 -70 -71s-71 32 -71 71s32 70 71 70s70 -31 70 -70zM175 55c0 -39 -31 -71 -70 -71s-71 32 -71 71s32 70 71 70s70 -31 70 -70z" />
    <glyph glyph-name="periodcentered" unicode="&#xb7;" horiz-adv-x="231" 
d="M186 318c0 -40 -31 -71 -70 -71s-71 31 -71 71c0 39 32 70 71 70s70 -31 70 -70z" />
    <glyph glyph-name="bullet" unicode="&#x2022;" horiz-adv-x="470" 
d="M395 319c0 -90 -72 -162 -161 -162c-90 0 -162 72 -162 162c0 89 72 161 162 161c89 0 161 -72 161 -161z" />
    <glyph glyph-name="ampersand" unicode="&#x26;" horiz-adv-x="683" 
d="M678 353v-14l-61 -25l-136 -184c50 -66 87 -95 133 -95c19 0 31 1 42 3l1 -16c-32 -25 -68 -37 -117 -37c-61 0 -116 29 -163 83c-39 -43 -87 -83 -170 -83c-96 0 -186 69 -186 169c0 83 68 140 135 168l21 10c-41 49 -61 99 -61 137c0 88 75 159 191 159
c113 0 164 -70 164 -128c0 -54 -41 -97 -120 -141l-29 -16l131 -180l71 150l-60 27v13h214zM364 508c0 56 -29 91 -72 91c-41 0 -67 -37 -67 -82c0 -33 14 -61 47 -107l34 -48c40 43 58 98 58 146zM361 86l-170 224l-8 -8c-27 -27 -43 -60 -43 -103c0 -68 52 -129 143 -129
c31 0 64 9 78 16z" />
    <glyph glyph-name="exclam" unicode="!" horiz-adv-x="266" 
d="M205 564c0 -67 -39 -232 -58 -373h-34c-19 141 -58 306 -58 373c0 54 22 88 75 88s75 -34 75 -88zM201 56c0 -39 -32 -71 -71 -71s-71 32 -71 71s32 70 71 70s71 -31 71 -70z" />
    <glyph glyph-name="exclamdown" unicode="&#xa1;" horiz-adv-x="266" 
d="M201 360c0 -39 -32 -70 -71 -70s-71 31 -71 70s32 71 71 71s71 -32 71 -71zM113 225h34c19 -141 58 -306 58 -373c0 -54 -22 -88 -75 -88s-75 34 -75 88c0 67 39 232 58 373z" />
    <glyph glyph-name="question" unicode="?" horiz-adv-x="429" 
d="M397 499c0 -64 -38 -110 -112 -149c-69 -36 -93 -59 -93 -89c0 -26 24 -47 54 -47c21 0 29 1 45 3l3 -10c-21 -18 -51 -31 -91 -31c-68 0 -115 42 -115 101c0 57 41 99 118 147c58 36 82 65 82 113c0 46 -37 79 -84 79c-24 0 -46 -8 -62 -19c11 -22 18 -48 18 -67
c0 -42 -27 -73 -68 -73c-39 0 -72 30 -72 74c0 74 91 121 191 121c110 0 186 -65 186 -153zM263 56c0 -39 -32 -71 -71 -71s-71 32 -71 71s32 70 71 70s71 -31 71 -70z" />
    <glyph glyph-name="questiondown" unicode="&#xbf;" horiz-adv-x="392" 
d="M291 360c0 -39 -32 -70 -71 -70s-71 31 -71 70s32 71 71 71s71 -32 71 -71zM392 -115c0 -74 -91 -121 -191 -121c-110 0 -186 65 -186 153c0 64 38 110 112 149c69 36 93 59 93 89c0 26 -24 47 -54 47c-21 0 -29 -1 -45 -3l-3 10c21 18 51 31 91 31
c68 0 115 -42 115 -101c0 -57 -41 -99 -118 -147c-58 -36 -82 -65 -82 -113c0 -46 37 -79 84 -79c24 0 46 8 62 19c-11 22 -18 48 -18 67c0 42 27 73 68 73c39 0 72 -30 72 -74z" />
    <glyph glyph-name="quotedblleft" unicode="&#x201c;" horiz-adv-x="384" 
d="M349 472c0 -37 -29 -69 -68 -69c-47 0 -77 38 -77 93c0 56 31 118 135 163l10 -13c-62 -54 -83 -90 -92 -123l1 -2l17 5c7 2 14 3 20 3c31 0 54 -25 54 -57zM175 472c0 -37 -29 -69 -68 -69c-47 0 -77 38 -77 93c0 56 31 118 135 163l10 -13c-62 -54 -83 -90 -92 -123
l1 -2l17 5c7 2 14 3 20 3c31 0 54 -25 54 -57z" />
    <glyph glyph-name="quotedblright" unicode="&#x201d;" horiz-adv-x="385" 
d="M354 559c0 -56 -31 -118 -135 -163l-10 13c62 54 83 90 92 123l-1 2l-14 -4c-7 -2 -14 -4 -23 -4c-31 0 -54 25 -54 57c0 37 29 69 68 69c47 0 77 -38 77 -93zM180 559c0 -56 -31 -118 -135 -163l-10 13c62 54 83 90 92 123l-1 2l-14 -4c-7 -2 -15 -4 -23 -4
c-31 0 -54 25 -54 57c0 37 29 69 68 69c47 0 77 -38 77 -93z" />
    <glyph glyph-name="quoteleft" unicode="&#x2018;" horiz-adv-x="218" 
d="M183 463c0 -39 -31 -72 -71 -72c-50 0 -81 40 -81 97c0 59 32 124 141 171l11 -14c-65 -56 -87 -94 -97 -128l2 -2l17 5c7 2 15 3 21 3c33 0 57 -26 57 -60z" />
    <glyph glyph-name="quoteright" unicode="&#x2019;" horiz-adv-x="219" 
d="M187 555c0 -59 -32 -124 -141 -171l-11 14c65 56 87 94 97 128l-2 2l-15 -4c-8 -2 -14 -4 -23 -4c-33 0 -57 26 -57 60c0 39 31 72 71 72c50 0 81 -40 81 -97z" />
    <glyph glyph-name="quotedblbase" unicode="&#x201e;" horiz-adv-x="385" 
d="M354 32c0 -56 -31 -118 -135 -163l-10 13c62 54 83 90 92 123l-1 2l-14 -4c-7 -2 -14 -4 -23 -4c-31 0 -54 25 -54 57c0 37 29 69 68 69c47 0 77 -38 77 -93zM180 32c0 -56 -31 -118 -135 -163l-10 13c62 54 83 90 92 123l-1 2l-14 -4c-7 -2 -15 -4 -23 -4
c-31 0 -54 25 -54 57c0 37 29 69 68 69c47 0 77 -38 77 -93z" />
    <glyph glyph-name="quotesinglbase" unicode="&#x201a;" horiz-adv-x="232" 
d="M187 28c0 -59 -32 -124 -141 -171l-11 14c65 56 87 94 97 128l-2 2l-15 -4c-8 -2 -14 -4 -23 -4c-33 0 -57 26 -57 60c0 39 31 72 71 72c50 0 81 -40 81 -97z" />
    <glyph glyph-name="guillemotleft" unicode="&#xab;" horiz-adv-x="483" 
d="M314 224l113 -174l-23 -20l-197 189v10l197 189l23 -21zM137 224l113 -174l-23 -20l-197 189v10l197 189l23 -21z" />
    <glyph glyph-name="guillemotright" unicode="&#xbb;" horiz-adv-x="483" 
d="M453 219l-197 -189l-23 20l113 174l-113 173l23 21l197 -189v-10zM276 219l-197 -189l-23 20l113 174l-113 173l23 21l197 -189v-10z" />
    <glyph glyph-name="guilsinglleft" unicode="&#x2039;" horiz-adv-x="306" 
d="M137 224l113 -174l-23 -20l-197 189v10l197 189l23 -21z" />
    <glyph glyph-name="guilsinglright" unicode="&#x203a;" horiz-adv-x="306" 
d="M276 229v-10l-197 -189l-23 20l113 174l-113 173l23 21z" />
    <glyph glyph-name="hyphen" unicode="-" horiz-adv-x="325" 
d="M287 200h-249v81h249v-81z" />
    <glyph glyph-name="endash" unicode="&#x2013;" horiz-adv-x="533" 
d="M495 230h-457v45h457v-45z" />
    <glyph glyph-name="emdash" unicode="&#x2014;" horiz-adv-x="783" 
d="M745 230h-707v45h707v-45z" />
    <glyph glyph-name="underscore" unicode="_" horiz-adv-x="440" 
d="M440 45v-45h-440v45h440z" />
    <glyph glyph-name="slash" unicode="/" horiz-adv-x="357" 
d="M422 724l-205 -467l-199 -468l-39 17l205 466l199 469z" />
    <glyph glyph-name="backslash" unicode="\" horiz-adv-x="357" 
d="M29 741l199 -469l205 -466l-39 -17l-199 468l-205 467z" />
    <glyph glyph-name="bar" unicode="|" horiz-adv-x="270" 
d="M159 -241h-48l3 471l-3 471h48l-3 -471z" />
    <glyph glyph-name="brokenbar" unicode="&#xa6;" horiz-adv-x="270" 
d="M159 279h-48l3 211l-3 211h48l-3 -211zM159 -241h-48l3 211l-3 211h48l-3 -211z" />
    <glyph glyph-name="parenleft" unicode="(" horiz-adv-x="363" 
d="M167 282c0 -203 73 -375 212 -437l-9 -21c-170 57 -323 219 -323 458c0 240 153 402 323 459l9 -22c-139 -61 -212 -233 -212 -437z" />
    <glyph glyph-name="parenright" unicode=")" horiz-adv-x="364" 
d="M317 282c0 -239 -153 -401 -323 -458l-9 21c139 62 212 234 212 437c0 204 -73 376 -212 437l9 22c170 -57 323 -219 323 -459z" />
    <glyph glyph-name="bracketleft" unicode="[" horiz-adv-x="323" 
d="M381 703h-167v-841h167v-38h-280v917h280v-38z" />
    <glyph glyph-name="bracketright" unicode="]" horiz-adv-x="323" 
d="M109 703h-167v38h280v-917h-280v38h167v841z" />
    <glyph glyph-name="braceleft" unicode="{" horiz-adv-x="338" 
d="M249 470c0 -107 -46 -167 -138 -184v-2c92 -16 138 -76 138 -183v-105c0 -91 27 -126 113 -146v-26c-155 16 -231 51 -231 179v131c0 98 -23 129 -120 140v23c97 11 120 42 120 140v125c0 128 76 163 231 179v-26c-86 -20 -113 -55 -113 -147v-98z" />
    <glyph glyph-name="braceright" unicode="}" horiz-adv-x="338" 
d="M207 437c0 -98 23 -129 120 -140v-23c-97 -11 -120 -42 -120 -140v-131c0 -128 -76 -163 -231 -179v26c86 20 113 55 113 146v105c0 107 46 167 138 183v2c-92 17 -138 77 -138 184v98c0 92 -27 127 -113 147v26c155 -16 231 -51 231 -179v-125z" />
    <glyph glyph-name="at" unicode="@" horiz-adv-x="829" 
d="M709 291c0 147 -81 282 -272 282c-175 0 -312 -146 -312 -351c0 -222 153 -327 328 -327c76 0 155 19 227 59l11 -16c-76 -63 -176 -98 -276 -98c-194 0 -378 115 -378 351c0 234 199 418 428 418c211 0 327 -143 327 -293c0 -138 -91 -282 -246 -282
c-56 0 -92 21 -97 68l-5 2c-32 -43 -59 -64 -107 -64c-62 0 -104 47 -104 121c0 118 120 252 239 252c21 0 46 -5 64 -15l50 19l7 -2l-43 -259c-7 -39 0 -76 42 -76c63 0 117 83 117 211zM481 324c-19 31 -41 43 -61 43c-59 0 -84 -121 -84 -184c0 -55 21 -77 55 -77
c21 0 33 7 58 26z" />
    <glyph glyph-name="copyright" unicode="&#xa9;" horiz-adv-x="734" 
d="M701 319c0 -185 -150 -334 -334 -334s-334 149 -334 334c0 184 150 333 334 333s334 -149 334 -333zM660 319c0 163 -131 297 -293 297s-293 -134 -293 -297s131 -298 293 -298s293 135 293 298zM290 324c0 -95 33 -154 99 -154c14 0 20 0 34 4l64 87l13 -2l-12 -98
c-34 -13 -66 -19 -114 -19c-111 0 -183 65 -183 173c0 98 78 180 189 180c27 0 59 -6 79 -16l13 18h14l9 -135l-19 -1c-21 63 -62 109 -100 109c-46 0 -86 -36 -86 -146z" />
    <glyph glyph-name="published" unicode="&#x2117;" horiz-adv-x="734" 
d="M701 319c0 -185 -150 -334 -334 -334s-334 149 -334 334c0 184 150 333 334 333s334 -149 334 -333zM660 319c0 163 -131 297 -293 297s-293 -134 -293 -297s131 -298 293 -298s293 135 293 298zM533 385c0 -55 -51 -106 -128 -106c-17 0 -38 2 -55 5v-104l52 -14v-16
h-186v16l43 14v277l-43 15v15h186c98 0 131 -50 131 -102zM440 386c0 45 -20 71 -59 76c-12 2 -23 2 -31 2v-156l32 3c38 4 58 33 58 75z" />
    <glyph glyph-name="registered.alt" horiz-adv-x="734" 
d="M701 319c0 -185 -150 -334 -334 -334s-334 149 -334 334c0 184 150 333 334 333s334 -149 334 -333zM660 319c0 163 -131 297 -293 297s-293 -134 -293 -297s131 -298 293 -298s293 135 293 298zM519 406c0 -40 -27 -80 -102 -91v-2c58 -7 79 -30 89 -66
c8 -34 15 -48 25 -63c6 -9 17 -15 24 -18v-16h-65c-41 0 -56 15 -73 61l-19 51c-9 28 -24 34 -63 34h-3v-116l43 -14v-16h-177v16l43 14v277l-43 15v15h219c73 0 102 -43 102 -81zM429 391c0 45 -29 68 -65 71l-32 3v-146l32 1c41 1 65 31 65 71z" />
    <glyph glyph-name="registered" unicode="&#xae;" horiz-adv-x="376" 
d="M259 544c0 -20 -14 -33 -41 -38v-6c22 -3 31 -11 35 -28c3 -12 6 -19 10 -24c5 -6 11 -8 20 -9v-11h-38c-20 0 -29 10 -36 30l-7 21c-4 12 -11 15 -24 15h-3v-48l22 -7v-11h-92v11l26 7v117l-26 8v11h98c37 0 56 -17 56 -38zM215 537c0 20 -11 30 -27 31l-13 1v-62h13
c17 0 27 13 27 30zM188 350c-87 0 -152 65 -152 152s65 152 152 152s152 -65 152 -152s-65 -152 -152 -152zM188 366c76 0 133 58 133 136s-57 136 -133 136s-133 -58 -133 -136s57 -136 133 -136z" />
    <glyph glyph-name="servicemark" unicode="&#x2120;" horiz-adv-x="509" 
d="M184 508c0 -39 -31 -64 -71 -64c-20 0 -41 5 -55 11l-9 -11h-11l-3 71h13c25 -41 49 -59 71 -59c16 0 27 12 27 30c0 19 -15 26 -47 37c-34 12 -59 23 -59 58c0 36 31 60 67 60c17 0 34 -4 45 -9l8 9h11l5 -62l-13 -1c-33 43 -46 51 -60 51c-15 0 -24 -11 -24 -27
c0 -19 17 -27 48 -38c34 -12 57 -22 57 -56zM457 616v-146l25 -9v-11h-97v11l20 9v143h-4l-61 -163h-16l-65 163h-4v-140l27 -12v-11h-70v11l26 12v143l-26 9v12h95l9 -31l32 -86h2l31 86l10 31h91v-12z" />
    <glyph glyph-name="trademark" unicode="&#x2122;" horiz-adv-x="545" 
d="M493 616v-146l25 -9v-11h-97v11l20 9v143h-4l-61 -163h-16l-65 163h-4v-140l27 -12v-11h-70v11l26 12v143l-26 9v12h95l9 -31l32 -86h2l31 86l10 31h91v-12zM218 566l-8 -2l-28 40c-9 13 -17 18 -28 20l-6 1v-155l25 -9v-11h-103v11l26 9v155l-6 -1
c-10 -2 -19 -6 -29 -20l-29 -40l-8 2l8 71h180z" />
    <glyph glyph-name="asterisk" unicode="*" horiz-adv-x="336" 
d="M313 414l-7 -13c-19 -12 -41 -8 -60 2c-23 14 -40 33 -62 63l-4 -3c15 -34 23 -58 23 -85c0 -21 -9 -42 -28 -53h-15c-19 11 -27 32 -27 53c0 27 8 51 23 85l-4 3c-22 -30 -39 -49 -63 -63c-18 -10 -40 -14 -59 -2l-7 13c-1 21 13 39 31 50c24 13 49 18 85 22v5
c-36 4 -61 10 -85 23c-18 11 -32 28 -31 50l7 13c19 11 41 8 59 -3c24 -13 41 -32 63 -62l4 3c-15 33 -23 58 -23 85c0 21 8 42 27 52h15c19 -10 28 -31 28 -52c0 -27 -8 -52 -23 -85l4 -3c22 30 39 49 62 62c19 11 41 14 60 3l7 -13c0 -22 -14 -39 -32 -50
c-23 -13 -48 -19 -85 -23v-5c37 -4 62 -9 85 -22c18 -11 32 -29 32 -50z" />
    <glyph glyph-name="dagger" unicode="&#x2020;" horiz-adv-x="444" 
d="M426 394l-183 4l4 -481h-50l4 481l-183 -4v47l183 -4l-4 233h50l-4 -233l183 4v-47z" />
    <glyph glyph-name="daggerdbl" unicode="&#x2021;" horiz-adv-x="444" 
d="M426 146l-183 4l4 -233h-50l4 233l-183 -4v47l183 -4v209l-183 -4v47l183 -4l-4 233h50l-4 -233l183 4v-47l-183 4v-209l183 4v-47z" />
    <glyph glyph-name="asciicircum" unicode="^" horiz-adv-x="319" 
d="M159 581l-128 -74l-15 13l136 183h21l129 -183l-15 -13z" />
    <glyph glyph-name="asciitilde" unicode="~" horiz-adv-x="361" 
d="M127 377c50 0 93 -35 131 -35c20 0 35 11 47 41l19 -5c-5 -78 -35 -112 -86 -112s-96 36 -135 36c-20 0 -34 -11 -46 -42l-20 6c12 74 40 111 90 111z" />
    <glyph glyph-name="dollar" unicode="$" horiz-adv-x="538" 
d="M488 190c0 -118 -96 -200 -224 -205l-6 -84l-37 4s7 80 7 81c-59 2 -130 14 -169 30l-5 188l22 2c48 -105 103 -157 155 -176c1 0 18 210 18 210c-88 36 -190 70 -190 198c0 118 109 189 216 190l5 71l38 -5s-6 -67 -6 -68c52 -4 97 -19 131 -38l9 -154l-22 -3
c-40 76 -79 127 -122 148l-17 -195c89 -36 197 -67 197 -194zM273 589c-60 6 -98 -28 -98 -86c0 -54 37 -83 85 -105c0 0 13 192 13 191zM375 117c0 59 -42 87 -96 111l-13 -205c72 -3 109 39 109 94z" />
    <glyph glyph-name="sterling" unicode="&#xa3;" horiz-adv-x="562" 
d="M441 336v-47h-135c0 -6 1 -13 1 -19c0 -68 -40 -119 -116 -155l2 -7c65 7 158 -5 213 -5c56 0 77 34 91 96l22 -2c-4 -140 -54 -212 -138 -212c-70 0 -137 36 -203 87c-18 -48 -57 -87 -101 -87c-42 0 -60 24 -60 54c0 37 46 84 132 82c17 26 26 64 26 107
c0 20 -4 41 -12 61h-131v47h112c-15 30 -21 54 -21 83c0 118 117 209 233 209c115 0 151 -52 151 -91c0 -33 -20 -67 -65 -67c-54 0 -91 50 -101 122c-49 -17 -82 -64 -82 -137c0 -41 14 -78 36 -119h146z" />
    <glyph glyph-name="Euro" unicode="&#x20ac;" horiz-adv-x="606" 
d="M98 331h-76v45h82c31 154 142 252 291 252c117 0 173 -55 173 -113c0 -45 -25 -76 -71 -76c-75 0 -92 92 -54 138c-14 9 -30 14 -52 14c-59 0 -137 -53 -152 -215h235v-45h-237v-13c0 -19 1 -37 3 -54h234v-45h-225c25 -92 87 -144 174 -144c45 0 102 7 143 25l5 -13
c-43 -57 -114 -102 -201 -102c-131 0 -244 80 -269 234h-79v45h74v22c0 15 1 30 2 45z" />
    <glyph glyph-name="yen" unicode="&#xa5;" horiz-adv-x="641" 
d="M77 318h150l-143 242l-75 35v17h308v-17l-87 -30l120 -234l131 228l-73 36v17h223v-17l-79 -39l-160 -238h169v-45h-175v-67h175v-45h-175v-113l103 -31v-17h-339v17l102 31v113h-175v45h175v67h-175v45z" />
    <glyph glyph-name="cent" unicode="&#xa2;" horiz-adv-x="506" 
d="M283 60c13 -4 25 -6 38 -6c49 0 94 19 143 36l6 -13c-56 -51 -116 -87 -190 -91l-4 -82l-35 3l5 79c-120 8 -211 100 -211 232c0 133 96 244 238 252l4 66l34 -3l-4 -64c96 -5 166 -52 166 -107c0 -41 -27 -75 -67 -75c-72 0 -92 82 -46 146c-15 3 -34 3 -55 1l-14 -216z
M169 247c0 -82 35 -143 83 -173l9 146l10 207c-58 -20 -102 -76 -102 -180z" />
    <glyph glyph-name="florin" unicode="&#x192;" horiz-adv-x="505" 
d="M516 554c0 -33 -21 -62 -65 -62c-34 0 -77 26 -102 86c-28 -27 -48 -57 -69 -214l-1 -12h128l-10 -58h-126l-22 -161c-16 -119 -53 -208 -110 -266c-36 -37 -81 -52 -120 -52c-58 0 -97 30 -97 69c0 33 27 63 62 63c39 0 74 -26 96 -79c11 17 22 59 36 161l37 265h-104
l2 16l113 48l1 5c15 85 49 147 95 195c45 47 104 70 159 70c53 0 97 -32 97 -74z" />
    <glyph glyph-name="numbersign" unicode="#" horiz-adv-x="582" 
d="M537 365h-120l-20 -68l-16 -60h125v-46h-138l-40 -146l-49 15l39 131h-121l-40 -146l-48 15l39 131h-103v46h116c1 0 23 76 23 76l14 52h-122v46h135l43 156l49 -15l-43 -141h121c1 0 44 156 44 156l48 -15l-42 -141h106v-46zM368 365h-122l-20 -68s-16 -60 -17 -60h123
l22 76s15 52 14 52z" />
    <glyph glyph-name="paragraph" unicode="&#xb6;" horiz-adv-x="731" 
d="M607 -48l111 -18v-17h-250c-278 0 -420 155 -420 380c0 226 157 380 426 380h244v-16l-111 -19v-690zM459 644v-694l102 2v690z" />
    <glyph glyph-name="section" unicode="&#xa7;" horiz-adv-x="522" 
d="M474 172c0 -153 -113 -270 -250 -270c-108 0 -178 63 -178 118c0 41 26 70 62 70c39 0 68 -29 68 -63c0 -17 -5 -36 -15 -56c20 -22 54 -32 84 -32c57 0 109 41 130 103c-201 103 -327 222 -327 359c0 153 113 270 250 270c108 0 177 -63 177 -119c0 -40 -26 -69 -62 -69
c-38 0 -68 28 -68 63c0 17 5 36 16 56c-20 22 -54 32 -84 32c-57 0 -109 -41 -130 -104c202 -104 327 -222 327 -358zM137 469c0 -131 73 -239 246 -392c1 9 2 18 2 27c0 130 -73 239 -246 391c-2 -8 -2 -17 -2 -26z" />
    <glyph glyph-name="ordfeminine" unicode="&#xaa;" horiz-adv-x="381" 
d="M48 557c0 64 102 95 170 95c64 0 106 -33 106 -96v-171c0 -28 4 -47 49 -51l1 -11c-29 -8 -54 -13 -84 -13c-27 0 -56 9 -64 41l-4 1c-26 -23 -59 -41 -95 -41c-56 0 -91 32 -91 75c0 65 75 104 186 101v63c0 38 -12 65 -77 65h-29c21 -17 31 -40 31 -59
c0 -25 -18 -48 -48 -48c-32 0 -51 23 -51 49zM143 404c0 -31 20 -49 44 -49c13 0 24 4 35 12v102c-59 -5 -79 -26 -79 -65z" />
    <glyph glyph-name="ordmasculine" unicode="&#xba;" horiz-adv-x="386" 
d="M367 481c0 -86 -59 -170 -179 -170s-169 79 -169 171c0 86 58 170 178 170s170 -79 170 -171zM259 481c0 87 -14 146 -66 146s-67 -59 -67 -144c0 -87 13 -146 66 -146c52 0 67 58 67 144z" />
    <glyph glyph-name="degree" unicode="&#xb0;" horiz-adv-x="384" 
d="M346 503c0 -73 -50 -151 -157 -151c-105 0 -151 73 -151 150c0 73 51 150 158 150c106 0 150 -72 150 -149zM258 503c0 74 -23 123 -67 123c-42 0 -65 -50 -65 -125c0 -74 25 -123 67 -123c45 0 65 50 65 125z" />
    <glyph glyph-name="percent" unicode="%" horiz-adv-x="746" 
d="M360 460c0 -93 -65 -170 -170 -170c-102 0 -161 70 -161 168c0 93 67 169 171 169c102 0 160 -69 160 -167zM717 154c0 -93 -65 -170 -170 -170c-102 0 -161 70 -161 168c0 93 66 169 171 169c102 0 160 -69 160 -167zM488 151c0 -99 22 -142 65 -142c45 0 62 44 62 145
c0 98 -20 142 -65 142c-43 0 -62 -45 -62 -145zM258 460c0 98 -20 142 -65 142c-43 0 -62 -45 -62 -145c0 -99 22 -142 65 -142c46 0 62 44 62 145zM114 -4l244 318l243 324l31 -24l-244 -317l-244 -325z" />
    <glyph glyph-name="quotedbl" unicode="&#x22;" horiz-adv-x="315" 
d="M297 608c0 -9 -3 -18 -8 -29c-15 -29 -36 -59 -56 -85l-47 -62l-15 7l12 78c2 16 12 68 23 98c8 22 27 37 47 37c24 0 44 -18 44 -44zM166 608c0 -9 -2 -19 -7 -29c-16 -29 -37 -59 -57 -85l-47 -62l-15 7l12 78c2 16 13 68 23 98c7 22 28 37 48 37c23 0 43 -18 43 -44z
" />
    <glyph glyph-name="quotesingle" unicode="'" horiz-adv-x="185" 
d="M166 608c0 -9 -2 -19 -7 -29c-16 -29 -37 -59 -57 -85l-47 -62l-15 7l12 78c2 16 13 68 23 98c7 22 28 37 48 37c23 0 43 -18 43 -44z" />
    <glyph glyph-name="plus" unicode="+" horiz-adv-x="505" 
d="M464 278h-182v-184h-58v184h-183v57h183v181h58v-181h182v-57z" />
    <glyph glyph-name="minus" unicode="&#x2212;" horiz-adv-x="505" 
d="M464 276h-423v61h423v-61z" />
    <glyph glyph-name="divide" unicode="&#xf7;" horiz-adv-x="505" 
d="M464 278h-423v57h423v-57zM253 530c35 0 63 -28 63 -63c0 -36 -28 -63 -63 -63c-36 0 -64 27 -64 63c0 35 28 63 64 63zM253 209c35 0 63 -28 63 -63c0 -36 -28 -63 -63 -63c-36 0 -64 27 -64 63c0 35 28 63 64 63z" />
    <glyph glyph-name="equal" unicode="=" horiz-adv-x="505" 
d="M464 426v-56h-423v56h423zM464 185h-423v57h423v-57z" />
    <glyph glyph-name="multiply" unicode="&#xd7;" horiz-adv-x="505" 
d="M290 306l138 -141l-41 -39l-135 140l-135 -140l-41 39l138 141l-138 141l41 39l135 -140l135 140l41 -39z" />
    <glyph glyph-name="less" unicode="&#x3c;" horiz-adv-x="505" 
d="M425 166l-12 -53l-338 175v37l338 177l12 -54l-280 -142z" />
    <glyph glyph-name="greater" unicode="&#x3e;" horiz-adv-x="505" 
d="M80 448l12 53l338 -175v-37l-338 -177l-12 54l280 142z" />
    <glyph glyph-name="plusminus" unicode="&#xb1;" horiz-adv-x="505" 
d="M464 304h-182v-184h-58v184h-183v57h183v181h58v-181h182v-57zM464 0h-423v55h423v-55z" />
    <glyph glyph-name="space" unicode=" " horiz-adv-x="210" 
 />
    <glyph glyph-name="uni00A0" unicode="&#xa0;" horiz-adv-x="210" 
 />
    <glyph glyph-name="emspace" unicode="&#x2003;" horiz-adv-x="1000" 
 />
    <glyph glyph-name="enspace" unicode="&#x2002;" horiz-adv-x="500" 
 />
    <glyph glyph-name="threeperemspace" unicode="&#x2004;" horiz-adv-x="333" 
 />
    <glyph glyph-name="fourperemspace" unicode="&#x2005;" horiz-adv-x="250" 
 />
    <glyph glyph-name="thinspace" unicode="&#x2009;" horiz-adv-x="133" 
 />
    <glyph glyph-name="hairspace" unicode="&#x200a;" horiz-adv-x="75" 
 />
    <glyph glyph-name="NUL" horiz-adv-x="0" 
 />
    <glyph glyph-name="hfjslug" horiz-adv-x="694" 
d="M644 -200h-208l-8 14h-163l-8 -14h-207v303c18 0 32 14 32 32c0 17 -14 32 -32 32v554h100l30 79h334l29 -79h101v-921zM400 563v-172h15v78h38v14h-38v66h43v14h-58zM184 563v-172h15v79h47v-79h15v172h-15v-79h-47v79h-15zM460 394c5 -2 14 -4 21 -4c20 0 31 11 31 36
v137h-16v-137c0 -16 -5 -22 -16 -22c-6 0 -15 3 -20 5v-15zM371 465l-13 3c-2 -9 -5 -21 -8 -30h-1l-16 31c13 12 23 26 23 42c0 17 -9 31 -27 31c-17 0 -28 -14 -28 -31c0 -15 6 -24 14 -39c-15 -12 -23 -28 -23 -47c0 -22 12 -37 29 -37c13 0 23 9 29 24h1l12 -24l12 6
l-17 32c5 12 9 25 13 39zM523 323v-46h8v12l8 8l15 -20h10l-20 26l18 20h-10l-20 -24h-1v24h-8zM488 292l10 -15h9l-12 17c5 2 10 6 10 14c0 9 -7 15 -17 15h-20v-46h8v15h12zM426 276c14 0 24 11 24 24c0 12 -10 24 -24 24s-24 -12 -24 -24c0 -13 10 -24 24 -24zM370 301
l-13 22h-9l18 -29v-17h8v17l18 29h-9zM193 323v-46h34v7h-26v13h23v7h-23v12h26v7h-34zM132 323v-46h8v32l25 -32h7v46h-8v-32l-25 32h-7zM241 323l14 -47h8l11 34h1l11 -34h8l14 47h-8l-10 -35h-1l-11 35h-7l-11 -35h-1l-10 35h-8zM327 479c-7 13 -12 22 -12 32
c0 11 6 19 14 19s13 -8 13 -19c0 -12 -5 -21 -15 -32zM342 423c-5 -13 -12 -21 -20 -21c-9 0 -16 10 -16 25c0 13 7 26 16 35zM487 299h-11v17h11c6 0 10 -3 10 -8s-4 -9 -10 -9zM426 283c-10 0 -16 8 -16 17c0 8 6 17 16 17s16 -9 16 -17c0 -9 -6 -17 -16 -17z" />
    <glyph glyph-name="A.sc" horiz-adv-x="537" 
d="M289 182l-68 182h-2l-64 -182h134zM143 147l-36 -102l61 -30v-15h-183v15l66 33l188 456h63l182 -465l58 -24v-15h-258v13l59 24l-41 110h-159z" />
    <glyph glyph-name="B.sc" horiz-adv-x="551" 
d="M515 135c0 -71 -58 -135 -197 -135h-292v16l68 22v421l-68 22v16h274c144 0 195 -47 195 -112s-42 -107 -152 -121v-5c111 -4 172 -62 172 -124zM229 270l40 2c60 3 95 38 95 99c0 66 -36 91 -91 94l-44 2v-197zM372 134c0 66 -42 107 -110 107h-33v-208
c17 -2 34 -3 50 -3c60 0 93 27 93 104z" />
    <glyph glyph-name="C.sc" horiz-adv-x="548" 
d="M508 167l-19 -153c-37 -17 -93 -29 -149 -29c-153 0 -304 58 -304 257c0 149 116 270 284 270c43 0 92 -12 124 -29l28 30h12l15 -198l-21 -2c-60 109 -111 164 -170 164c-66 0 -126 -64 -126 -220c0 -168 75 -235 173 -235c9 0 24 2 31 4l107 145z" />
    <glyph glyph-name="D.sc" 
d="M94 459l-68 22v16h253c188 0 288 -99 288 -246c0 -150 -109 -251 -292 -251h-249v16l68 22v421zM420 249c0 147 -63 208 -150 214l-41 3v-434l56 3c80 4 135 66 135 214z" />
    <glyph glyph-name="E.sc" horiz-adv-x="544" 
d="M481 497l11 -171l-17 -5l-61 83c-27 37 -52 57 -105 59l-80 3v-198h38c41 0 60 14 78 62l9 24h19v-211h-19l-10 24c-20 47 -36 61 -77 61h-38v-196l100 5c41 2 74 21 98 52l64 82l17 -5l-15 -166h-467v16l68 22v421l-68 22v16h455z" />
    <glyph glyph-name="F.sc" horiz-adv-x="513" 
d="M491 321l-17 -5l-62 88c-26 37 -52 57 -105 59l-78 3v-209h41c41 0 61 17 78 62l9 24h19v-211h-19l-10 24c-20 47 -36 61 -77 61h-41v-179l74 -22v-16h-277v16l68 22v421l-68 22v16h454z" />
    <glyph glyph-name="G.sc" horiz-adv-x="574" 
d="M502 321l-21 -2c-57 101 -111 158 -173 158c-66 0 -126 -57 -126 -218c0 -173 78 -228 163 -228c13 0 25 2 38 4v160l-66 23v15h238v-15l-46 -23v-202l-14 -4l-75 40c-43 -30 -92 -44 -141 -44c-124 0 -243 89 -243 254c0 157 116 273 284 273c47 0 95 -12 127 -29l29 30
h16z" />
    <glyph glyph-name="H.sc" horiz-adv-x="653" 
d="M424 277v183l-63 21v16h266v-16l-68 -22v-421l68 -22v-16h-266v16l63 21v201h-195v-201l63 -21v-16h-266v16l68 22v421l-68 22v16h266v-16l-63 -21v-183h195z" />
    <glyph glyph-name="I.sc" horiz-adv-x="339" 
d="M237 38l68 -22v-16h-271v16l68 22v421l-68 22v16h271v-16l-68 -22v-421z" />
    <glyph glyph-name="J.sc" horiz-adv-x="450" 
d="M366 192c0 -70 -12 -113 -48 -151c-29 -31 -86 -57 -173 -57c-94 0 -139 44 -139 93c0 41 31 73 70 73c53 0 81 -51 73 -134c57 9 84 47 84 123v316l-73 20v22h271v-22l-65 -20v-263z" />
    <glyph glyph-name="K.sc" horiz-adv-x="599" 
d="M358 307l189 -264l53 -27v-16h-254v16l49 19l-127 193h-39v-191l61 -21v-16h-264v16l68 22v421l-68 22v16h264v-16l-61 -21v-193h47l142 177l-65 37v16h222v-22l-76 -26z" />
    <glyph glyph-name="L.sc" horiz-adv-x="504" 
d="M480 186l-20 -186h-434v16l68 22v421l-68 22v16h278v-16l-75 -21v-428l62 2c47 2 74 21 99 54l75 100z" />
    <glyph glyph-name="M.sc" horiz-adv-x="758" 
d="M664 38l68 -22v-16h-265v16l63 21v393h-7l-168 -431h-30l-180 431h-7v-384l69 -30v-16h-179v16l69 30v411l-69 24v16h235l32 -78l90 -234h5l88 234l28 78h226v-16l-68 -22v-421z" />
    <glyph glyph-name="N.sc" horiz-adv-x="620" 
d="M100 49v402l-66 30v16h177l67 -82l200 -241h6v274l-70 33v16h178v-16l-70 -33v-454h-62l-74 90l-242 283h-6v-318l69 -34v-15h-177v15z" />
    <glyph glyph-name="O.sc" 
d="M562 249c0 -142 -88 -264 -264 -264c-185 0 -262 122 -262 264c0 141 89 263 266 263c184 0 260 -122 260 -263zM416 249c0 158 -49 233 -123 233c-67 0 -111 -58 -111 -233c0 -177 50 -233 123 -233c67 0 111 76 111 233z" />
    <glyph glyph-name="P.sc" horiz-adv-x="518" 
d="M497 349c0 -91 -74 -154 -192 -154c-24 0 -53 2 -76 5v-163l83 -21v-16h-286v16l68 22v421l-68 22v16h275c132 0 196 -63 196 -148zM358 347c0 76 -31 115 -91 118l-38 2v-239l35 1c61 2 94 46 94 118z" />
    <glyph glyph-name="Q.sc" 
d="M562 249c0 -118 -61 -222 -182 -254c22 -36 40 -58 62 -72c27 -19 57 -30 94 -37l-4 -16h-105c-61 0 -96 5 -121 26c-14 11 -27 27 -47 67l-13 25c-148 21 -210 133 -210 261c0 141 89 263 266 263c184 0 260 -122 260 -263zM416 249c0 158 -49 233 -123 233
c-67 0 -111 -58 -111 -233c0 -177 50 -233 123 -233c67 0 111 76 111 233z" />
    <glyph glyph-name="R.sc" horiz-adv-x="565" 
d="M508 375c0 -64 -40 -116 -156 -132v-5c77 -10 109 -40 127 -91c15 -44 30 -79 45 -98c11 -14 26 -24 50 -32v-17h-113c-58 0 -79 23 -103 86l-30 77c-17 43 -40 57 -91 57h-8v-182l68 -22v-16h-271v16l68 22v421l-68 22v16h310c122 0 172 -52 172 -122zM371 358
c0 72 -36 103 -98 106l-44 2v-216l42 2c57 2 100 35 100 106z" />
    <glyph glyph-name="S.sc" horiz-adv-x="462" 
d="M425 158c0 -105 -86 -172 -187 -172c-54 0 -104 12 -138 26l-31 -29h-19l-10 188l22 2c67 -116 123 -154 177 -154s85 30 85 74c0 47 -24 64 -92 90c-26 10 -58 19 -85 32c-71 33 -96 73 -96 135c0 94 85 161 172 161c47 0 85 -10 117 -24l31 26h19l14 -173l-21 -2
c-63 100 -104 140 -160 140c-42 0 -67 -28 -67 -65c0 -41 19 -62 71 -85c29 -13 63 -22 94 -36c76 -33 104 -70 104 -134z" />
    <glyph glyph-name="T.sc" horiz-adv-x="555" 
d="M533 309l-18 -4l-77 103c-30 41 -51 56 -80 58l-14 1v-429l71 -22v-16h-277v16l71 22v429l-13 -1c-29 -2 -49 -17 -79 -58l-77 -103l-18 4l20 189h471z" />
    <glyph glyph-name="U.sc" 
d="M476 450l-61 31v16h164v-16l-62 -31v-274c0 -127 -87 -191 -205 -191c-136 0 -222 61 -222 201v273l-68 22v16h271v-16l-68 -22v-286c0 -89 41 -134 127 -134c78 0 124 51 124 144v267z" />
    <glyph glyph-name="V.sc" horiz-adv-x="560" 
d="M501 448l-197 -455h-42l-198 464l-63 24v16h271v-16l-63 -22l124 -310l112 296l-64 35v17h185v-17z" />
    <glyph glyph-name="W.sc" horiz-adv-x="792" 
d="M383 386l-25 71l-48 24v16h244v-16l-59 -22l95 -294h2l82 280l-65 35v17h185v-17l-61 -32l-163 -455h-46l-121 338h-2l-132 -338h-44l-157 464l-63 24v16h261v-16l-55 -22l84 -294h2z" />
    <glyph glyph-name="X.sc" horiz-adv-x="569" 
d="M315 308l99 150l-56 23v16h194v-16l-71 -23l-140 -180l165 -242l58 -20v-16h-269v16l59 18l-99 163l-105 -158l56 -23v-16h-192v16l69 23l146 184l-157 238l-58 20v16h268v-16l-58 -17z" />
    <glyph glyph-name="Y.sc" horiz-adv-x="536" 
d="M479 452l-135 -229v-179l71 -28v-16h-276v16l70 28v156l-143 250l-61 31v16h270v-16l-61 -26l107 -200l96 195l-59 31v16h184v-16z" />
    <glyph glyph-name="Z.sc" horiz-adv-x="523" 
d="M487 191l-12 -191h-452l-4 9l316 450l-104 -1c-45 0 -65 -13 -108 -66l-59 -73l-13 3l14 175h430l4 -9l-314 -451l128 2c48 1 67 22 96 63l65 92z" />
    <glyph glyph-name="Aacute.sc" horiz-adv-x="537" 
d="M289 182l-68 182h-2l-64 -182h134zM143 147l-36 -102l61 -30v-15h-183v15l66 33l188 456h63l182 -465l58 -24v-15h-258v13l59 24l-41 110h-159zM375 753c27 -17 32 -55 8 -86c-29 -38 -81 -80 -135 -123l-13 9c15 67 34 131 58 173c18 32 54 45 82 27z" />
    <glyph glyph-name="Abreve.sc" horiz-adv-x="537" 
d="M289 182l-68 182h-2l-64 -182h134zM143 147l-36 -102l61 -30v-15h-183v15l66 33l188 456h63l182 -465l58 -24v-15h-258v13l59 24l-41 110h-159zM271 657c57 0 108 28 128 71l22 -6c-12 -93 -62 -157 -150 -157c-87 0 -139 64 -147 157l22 6c17 -43 68 -71 125 -71z" />
    <glyph glyph-name="Acircumflex.sc" horiz-adv-x="537" 
d="M289 182l-68 182h-2l-64 -182h134zM143 147l-36 -102l61 -30v-15h-183v15l66 33l188 456h63l182 -465l58 -24v-15h-258v13l59 24l-41 110h-159zM270 621l-128 -74l-15 13l136 183h21l129 -183l-15 -13z" />
    <glyph glyph-name="Adieresis.sc" horiz-adv-x="537" 
d="M289 182l-68 182h-2l-64 -182h134zM143 147l-36 -102l61 -30v-15h-183v15l66 33l188 456h63l182 -465l58 -24v-15h-258v13l59 24l-41 110h-159zM363 568c-40 0 -69 31 -69 71s33 78 77 78c40 0 69 -30 69 -71c0 -40 -33 -78 -77 -78zM172 568c-41 0 -69 31 -69 71
s33 78 76 78c41 0 69 -30 69 -71c0 -40 -33 -78 -76 -78z" />
    <glyph glyph-name="AE.sc" horiz-adv-x="794" 
d="M758 166l-15 -166h-467v16l68 22v142h-159l-91 -138l60 -27v-15h-182v15l61 30l294 410l-75 27v15h479l11 -171l-17 -5l-61 83c-27 37 -52 57 -105 59l-80 3v-198h38c41 0 60 14 78 62l9 24h19v-211h-19l-10 24c-20 47 -36 61 -77 61h-38v-196l100 5c41 2 74 21 98 52
l64 82zM344 215v203h-2l-134 -203h136z" />
    <glyph glyph-name="AEacute.sc" horiz-adv-x="794" 
d="M758 166l-15 -166h-467v16l68 22v142h-159l-91 -138l60 -27v-15h-182v15l61 30l294 410l-75 27v15h479l11 -171l-17 -5l-61 83c-27 37 -52 57 -105 59l-80 3v-198h38c41 0 60 14 78 62l9 24h19v-211h-19l-10 24c-20 47 -36 61 -77 61h-38v-196l100 5c41 2 74 21 98 52
l64 82zM344 215v203h-2l-134 -203h136zM558 753c27 -17 32 -55 8 -86c-29 -38 -81 -80 -135 -123l-13 9c15 67 34 131 58 173c18 32 54 45 82 27z" />
    <glyph glyph-name="Agrave.sc" horiz-adv-x="537" 
d="M289 182l-68 182h-2l-64 -182h134zM143 147l-36 -102l61 -30v-15h-183v15l66 33l188 456h63l182 -465l58 -24v-15h-258v13l59 24l-41 110h-159zM322 553l-13 -9c-54 43 -106 85 -135 123c-24 31 -19 68 9 86c27 17 65 5 82 -27c23 -42 41 -104 57 -173z" />
    <glyph glyph-name="Amacron.sc" horiz-adv-x="537" 
d="M289 182l-68 182h-2l-64 -182h134zM143 147l-36 -102l61 -30v-15h-183v15l66 33l188 456h63l182 -465l58 -24v-15h-258v13l59 24l-41 110h-159zM409 646v-67h-276v67h276z" />
    <glyph glyph-name="Aogonek.sc" horiz-adv-x="537" 
d="M143 147l-36 -102l61 -30v-15h-183v15l66 33l188 456h63l182 -465l58 -24v-15h-43c-64 -58 -70 -109 -70 -131c0 -37 17 -68 54 -68c22 0 36 7 43 15l11 -8c-17 -35 -52 -61 -95 -61c-61 0 -99 43 -99 95c0 51 40 112 119 158h-178v13l59 24l-41 110h-159zM289 182
l-68 182h-2l-64 -182h134z" />
    <glyph glyph-name="Aring.sc" horiz-adv-x="537" 
d="M289 182l-68 182h-2l-64 -182h134zM306 583c0 44 -9 69 -37 69c-26 0 -35 -26 -35 -71c0 -44 11 -69 37 -69c28 0 35 26 35 71zM233 490c-43 13 -65 51 -65 92c0 48 38 96 105 96c66 0 99 -44 99 -95c0 -38 -23 -77 -65 -92l177 -452l58 -24v-15h-258v13l59 24l-41 110
h-159l-36 -102l61 -30v-15h-183v15l66 33z" />
    <glyph glyph-name="Aringacute.sc" horiz-adv-x="537" 
d="M289 182l-68 182h-2l-64 -182h134zM306 583c0 44 -9 69 -37 69c-26 0 -35 -26 -35 -71c0 -44 11 -69 37 -69c28 0 35 26 35 71zM233 490c-43 13 -65 51 -65 92c0 48 38 96 105 96c66 0 99 -44 99 -95c0 -38 -23 -77 -65 -92l177 -452l58 -24v-15h-258v13l59 24l-41 110
h-159l-36 -102l61 -30v-15h-183v15l66 33zM379 911c27 -17 32 -55 8 -86c-29 -38 -81 -80 -135 -123l-13 9c15 67 34 131 58 173c18 32 54 45 82 27z" />
    <glyph glyph-name="Atilde.sc" horiz-adv-x="537" 
d="M289 182l-68 182h-2l-64 -182h134zM143 147l-36 -102l61 -30v-15h-183v15l66 33l188 456h63l182 -465l58 -24v-15h-258v13l59 24l-41 110h-159zM121 564c13 85 37 128 100 128c57 0 97 -40 142 -40c22 0 39 12 53 47l22 -6c-6 -89 -30 -131 -93 -131
c-58 0 -104 43 -149 43c-22 0 -39 -12 -53 -47z" />
    <glyph glyph-name="Cacute.sc" horiz-adv-x="548" 
d="M508 167l-19 -153c-37 -17 -93 -29 -149 -29c-153 0 -304 58 -304 257c0 149 116 270 284 270c43 0 92 -12 124 -29l28 30h12l15 -198l-21 -2c-60 109 -111 164 -170 164c-66 0 -126 -64 -126 -220c0 -168 75 -235 173 -235c9 0 24 2 31 4l107 145zM407 753
c27 -17 32 -55 8 -86c-29 -38 -81 -80 -135 -123l-13 9c15 67 34 131 58 173c18 32 54 45 82 27z" />
    <glyph glyph-name="Ccaron.sc" horiz-adv-x="548" 
d="M508 167l-19 -153c-37 -17 -93 -29 -149 -29c-153 0 -304 58 -304 257c0 149 116 270 284 270c43 0 92 -12 124 -29l28 30h12l15 -198l-21 -2c-60 109 -111 164 -170 164c-66 0 -126 -64 -126 -220c0 -168 75 -235 173 -235c9 0 24 2 31 4l107 145zM302 671l128 74
l15 -12l-136 -183h-21l-129 183l15 12z" />
    <glyph glyph-name="Ccedilla.sc" horiz-adv-x="548" 
d="M315 -14h-4c-143 7 -275 70 -275 256c0 149 116 270 284 270c43 0 92 -12 124 -29l28 30h12l15 -198l-21 -2c-60 109 -111 164 -170 164c-66 0 -126 -64 -126 -220c0 -168 75 -235 168 -235c12 0 27 2 40 5l103 144l15 -4l-19 -153c-33 -15 -82 -27 -133 -29l-61 -53
c54 -13 80 -46 80 -94c0 -57 -50 -103 -120 -103c-51 0 -87 29 -87 60c0 23 16 40 37 40c24 0 36 -18 36 -39c0 -11 -5 -23 -14 -33c7 -2 12 -3 24 -3c27 0 49 22 49 58c0 38 -26 59 -55 59c-14 0 -23 -1 -32 -4l-12 12z" />
    <glyph glyph-name="Cdotaccent.sc" horiz-adv-x="548" 
d="M508 167l-19 -153c-37 -17 -93 -29 -149 -29c-153 0 -304 58 -304 257c0 149 116 270 284 270c43 0 92 -12 124 -29l28 30h12l15 -198l-21 -2c-60 109 -111 164 -170 164c-66 0 -126 -64 -126 -220c0 -168 75 -235 173 -235c9 0 24 2 31 4l107 145zM377 646
c0 -40 -33 -78 -76 -78c-41 0 -69 31 -69 71s33 78 76 78c41 0 69 -30 69 -71z" />
    <glyph glyph-name="Dcaron.sc" 
d="M94 459l-68 22v16h253c188 0 288 -99 288 -246c0 -150 -109 -251 -292 -251h-249v16l68 22v421zM420 249c0 147 -63 208 -150 214l-41 3v-434l56 3c80 4 135 66 135 214zM296 671l128 74l15 -12l-136 -183h-21l-129 183l15 12z" />
    <glyph glyph-name="Dcroat.sc" 
d="M229 278h97v-45h-97v-201l56 3c80 4 135 66 135 214c0 147 -63 208 -150 214l-41 3v-188zM94 233h-68v45h68v181l-68 22v16h253c188 0 288 -99 288 -246c0 -150 -109 -251 -292 -251h-249v16l68 22v195z" />
    <glyph glyph-name="Eacute.sc" horiz-adv-x="544" 
d="M481 497l11 -171l-17 -5l-61 83c-27 37 -52 57 -105 59l-80 3v-198h38c41 0 60 14 78 62l9 24h19v-211h-19l-10 24c-20 47 -36 61 -77 61h-38v-196l100 5c41 2 74 21 98 52l64 82l17 -5l-15 -166h-467v16l68 22v421l-68 22v16h455zM368 753c27 -17 32 -55 8 -86
c-29 -38 -81 -80 -135 -123l-13 9c15 67 34 131 58 173c18 32 54 45 82 27z" />
    <glyph glyph-name="Ebreve.sc" horiz-adv-x="544" 
d="M481 497l11 -171l-17 -5l-61 83c-27 37 -52 57 -105 59l-80 3v-198h38c41 0 60 14 78 62l9 24h19v-211h-19l-10 24c-20 47 -36 61 -77 61h-38v-196l100 5c41 2 74 21 98 52l64 82l17 -5l-15 -166h-467v16l68 22v421l-68 22v16h455zM264 657c57 0 108 28 128 71l22 -6
c-12 -93 -62 -157 -150 -157c-87 0 -139 64 -147 157l22 6c17 -43 68 -71 125 -71z" />
    <glyph glyph-name="Ecaron.sc" horiz-adv-x="544" 
d="M481 497l11 -171l-17 -5l-61 83c-27 37 -52 57 -105 59l-80 3v-198h38c41 0 60 14 78 62l9 24h19v-211h-19l-10 24c-20 47 -36 61 -77 61h-38v-196l100 5c41 2 74 21 98 52l64 82l17 -5l-15 -166h-467v16l68 22v421l-68 22v16h455zM263 671l128 74l15 -12l-136 -183h-21
l-129 183l15 12z" />
    <glyph glyph-name="Ecircumflex.sc" horiz-adv-x="544" 
d="M481 497l11 -171l-17 -5l-61 83c-27 37 -52 57 -105 59l-80 3v-198h38c41 0 60 14 78 62l9 24h19v-211h-19l-10 24c-20 47 -36 61 -77 61h-38v-196l100 5c41 2 74 21 98 52l64 82l17 -5l-15 -166h-467v16l68 22v421l-68 22v16h455zM263 621l-128 -74l-15 13l136 183h21
l129 -183l-15 -13z" />
    <glyph glyph-name="Edieresis.sc" horiz-adv-x="544" 
d="M481 497l11 -171l-17 -5l-61 83c-27 37 -52 57 -105 59l-80 3v-198h38c41 0 60 14 78 62l9 24h19v-211h-19l-10 24c-20 47 -36 61 -77 61h-38v-196l100 5c41 2 74 21 98 52l64 82l17 -5l-15 -166h-467v16l68 22v421l-68 22v16h455zM356 568c-40 0 -69 31 -69 71
s33 78 77 78c40 0 69 -30 69 -71c0 -40 -33 -78 -77 -78zM165 568c-41 0 -69 31 -69 71s33 78 76 78c41 0 69 -30 69 -71c0 -40 -33 -78 -76 -78z" />
    <glyph glyph-name="Edotaccent.sc" horiz-adv-x="544" 
d="M481 497l11 -171l-17 -5l-61 83c-27 37 -52 57 -105 59l-80 3v-198h38c41 0 60 14 78 62l9 24h19v-211h-19l-10 24c-20 47 -36 61 -77 61h-38v-196l100 5c41 2 74 21 98 52l64 82l17 -5l-15 -166h-467v16l68 22v421l-68 22v16h455zM338 646c0 -40 -33 -78 -76 -78
c-41 0 -69 31 -69 71s33 78 76 78c41 0 69 -30 69 -71z" />
    <glyph glyph-name="Egrave.sc" horiz-adv-x="544" 
d="M481 497l11 -171l-17 -5l-61 83c-27 37 -52 57 -105 59l-80 3v-198h38c41 0 60 14 78 62l9 24h19v-211h-19l-10 24c-20 47 -36 61 -77 61h-38v-196l100 5c41 2 74 21 98 52l64 82l17 -5l-15 -166h-467v16l68 22v421l-68 22v16h455zM315 553l-13 -9
c-54 43 -106 85 -135 123c-24 31 -19 68 9 86c27 17 65 5 82 -27c23 -42 41 -104 57 -173z" />
    <glyph glyph-name="Emacron.sc" horiz-adv-x="544" 
d="M481 497l11 -171l-17 -5l-61 83c-27 37 -52 57 -105 59l-80 3v-198h38c41 0 60 14 78 62l9 24h19v-211h-19l-10 24c-20 47 -36 61 -77 61h-38v-196l100 5c41 2 74 21 98 52l64 82l17 -5l-15 -166h-467v16l68 22v421l-68 22v16h455zM402 646v-67h-276v67h276z" />
    <glyph glyph-name="Eogonek.sc" horiz-adv-x="544" 
d="M481 497l11 -171l-17 -5l-61 83c-27 37 -52 57 -105 59l-80 3v-198h38c41 0 60 14 78 62l9 24h19v-211h-19l-10 24c-20 47 -36 61 -77 61h-38v-196l100 5c41 2 74 21 98 52l64 82l17 -5l-15 -166h-48c-64 -58 -70 -109 -70 -131c0 -37 17 -68 54 -68c22 0 36 7 43 15
l11 -8c-17 -35 -52 -61 -95 -61c-61 0 -99 43 -99 95c0 51 40 112 119 158h-382v16l68 22v421l-68 22v16h455z" />
    <glyph glyph-name="Eth.sc" 
d="M229 278h97v-45h-97v-201l56 3c80 4 135 66 135 214c0 147 -63 208 -150 214l-41 3v-188zM94 233h-68v45h68v181l-68 22v16h253c188 0 288 -99 288 -246c0 -150 -109 -251 -292 -251h-249v16l68 22v195z" />
    <glyph glyph-name="Gbreve.sc" horiz-adv-x="574" 
d="M502 321l-21 -2c-57 101 -111 158 -173 158c-66 0 -126 -57 -126 -218c0 -173 78 -228 163 -228c13 0 25 2 38 4v160l-66 23v15h238v-15l-46 -23v-202l-14 -4l-75 40c-43 -30 -92 -44 -141 -44c-124 0 -243 89 -243 254c0 157 116 273 284 273c47 0 95 -12 127 -29l29 30
h16zM288 657c57 0 108 28 128 71l22 -6c-12 -93 -62 -157 -150 -157c-87 0 -139 64 -147 157l22 6c17 -43 68 -71 125 -71z" />
    <glyph glyph-name="Gcommaaccent.sc" horiz-adv-x="574" 
d="M502 321l-21 -2c-57 101 -111 158 -173 158c-66 0 -126 -57 -126 -218c0 -173 78 -228 163 -228c13 0 25 2 38 4v160l-66 23v15h238v-15l-46 -23v-202l-14 -4l-75 40c-43 -30 -92 -44 -141 -44c-124 0 -243 89 -243 254c0 157 116 273 284 273c47 0 95 -12 127 -29l29 30
h16zM357 -160c0 -62 -47 -121 -128 -154l-9 12c63 46 84 86 88 115l-1 1l-11 -3c-8 -2 -16 -4 -24 -4c-30 0 -51 25 -51 56c0 35 27 65 63 65c45 0 73 -36 73 -88z" />
    <glyph glyph-name="Gdotaccent.sc" horiz-adv-x="574" 
d="M502 321l-21 -2c-57 101 -111 158 -173 158c-66 0 -126 -57 -126 -218c0 -173 78 -228 163 -228c13 0 25 2 38 4v160l-66 23v15h238v-15l-46 -23v-202l-14 -4l-75 40c-43 -30 -92 -44 -141 -44c-124 0 -243 89 -243 254c0 157 116 273 284 273c47 0 95 -12 127 -29l29 30
h16zM362 646c0 -40 -33 -78 -76 -78c-41 0 -69 31 -69 71s33 78 76 78c41 0 69 -30 69 -71z" />
    <glyph glyph-name="Hbar.sc" horiz-adv-x="653" 
d="M609 391v-38h-50v-315l68 -22v-16h-266v16l63 21v201h-195v-201l63 -21v-16h-266v16l68 22v315h-51v38h51v68l-68 22v16h266v-16l-63 -21v-69h195v69l-63 21v16h266v-16l-68 -22v-68h50zM424 277v76h-195v-76h195z" />
    <glyph glyph-name="Iacute.sc" horiz-adv-x="339" 
d="M237 38l68 -22v-16h-271v16l68 22v421l-68 22v16h271v-16l-68 -22v-421zM273 753c27 -17 32 -55 8 -86c-29 -38 -81 -80 -135 -123l-13 9c15 67 34 131 58 173c18 32 54 45 82 27z" />
    <glyph glyph-name="Ibreve.sc" horiz-adv-x="339" 
d="M237 38l68 -22v-16h-271v16l68 22v421l-68 22v16h271v-16l-68 -22v-421zM169 657c57 0 108 28 128 71l22 -6c-12 -93 -62 -157 -150 -157c-87 0 -139 64 -147 157l22 6c17 -43 68 -71 125 -71z" />
    <glyph glyph-name="Icircumflex.sc" horiz-adv-x="339" 
d="M237 38l68 -22v-16h-271v16l68 22v421l-68 22v16h271v-16l-68 -22v-421zM168 621l-128 -74l-15 13l136 183h21l129 -183l-15 -13z" />
    <glyph glyph-name="Idieresis.sc" horiz-adv-x="339" 
d="M237 38l68 -22v-16h-271v16l68 22v421l-68 22v16h271v-16l-68 -22v-421zM261 568c-40 0 -69 31 -69 71s33 78 77 78c40 0 69 -30 69 -71c0 -40 -33 -78 -77 -78zM70 568c-41 0 -69 31 -69 71s33 78 76 78c41 0 69 -30 69 -71c0 -40 -33 -78 -76 -78z" />
    <glyph glyph-name="Idotaccent.sc" horiz-adv-x="339" 
d="M237 38l68 -22v-16h-271v16l68 22v421l-68 22v16h271v-16l-68 -22v-421zM243 646c0 -40 -33 -78 -76 -78c-41 0 -69 31 -69 71s33 78 76 78c41 0 69 -30 69 -71z" />
    <glyph glyph-name="Igrave.sc" horiz-adv-x="339" 
d="M237 38l68 -22v-16h-271v16l68 22v421l-68 22v16h271v-16l-68 -22v-421zM220 553l-13 -9c-54 43 -106 85 -135 123c-24 31 -19 68 9 86c27 17 65 5 82 -27c23 -42 41 -104 57 -173z" />
    <glyph glyph-name="Imacron.sc" horiz-adv-x="339" 
d="M237 38l68 -22v-16h-271v16l68 22v421l-68 22v16h271v-16l-68 -22v-421zM307 646v-67h-276v67h276z" />
    <glyph glyph-name="Iogonek.sc" horiz-adv-x="339" 
d="M237 38l68 -22v-16h-81c-64 -58 -70 -109 -70 -131c0 -37 17 -68 54 -68c22 0 36 7 43 15l11 -8c-17 -35 -52 -61 -95 -61c-61 0 -99 43 -99 95c0 51 40 112 119 158h-153v16l68 22v421l-68 22v16h271v-16l-68 -22v-421z" />
    <glyph glyph-name="Kcommaaccent.sc" horiz-adv-x="599" 
d="M358 307l189 -264l53 -27v-16h-254v16l49 19l-127 193h-39v-191l61 -21v-16h-264v16l68 22v421l-68 22v16h264v-16l-61 -21v-193h47l142 177l-65 37v16h222v-22l-76 -26zM377 -160c0 -62 -47 -121 -128 -154l-9 12c63 46 84 86 88 115l-1 1l-11 -3c-8 -2 -16 -4 -24 -4
c-30 0 -51 25 -51 56c0 35 27 65 63 65c45 0 73 -36 73 -88z" />
    <glyph glyph-name="Lacute.sc" horiz-adv-x="504" 
d="M480 186l-20 -186h-434v16l68 22v421l-68 22v16h278v-16l-75 -21v-428l62 2c47 2 74 21 99 54l75 100zM275 753c27 -17 32 -55 8 -86c-29 -38 -81 -80 -135 -123l-13 9c15 67 34 131 58 173c18 32 54 45 82 27z" />
    <glyph glyph-name="Lcaron.sc" horiz-adv-x="504" 
d="M480 186l-20 -186h-434v16l68 22v421l-68 22v16h278v-16l-75 -21v-428l62 2c47 2 74 21 99 54l75 100zM349 261l-3 34c-2 26 -3 55 -3 78c0 66 8 124 63 124c29 0 49 -24 49 -55c0 -43 -48 -118 -91 -185z" />
    <glyph glyph-name="Lcommaaccent.sc" horiz-adv-x="504" 
d="M480 186l-20 -186h-434v16l68 22v421l-68 22v16h278v-16l-75 -21v-428l62 2c47 2 74 21 99 54l75 100zM322 -160c0 -62 -47 -121 -128 -154l-9 12c63 46 84 86 88 115l-1 1l-11 -3c-8 -2 -16 -4 -24 -4c-30 0 -51 25 -51 56c0 35 27 65 63 65c45 0 73 -36 73 -88z" />
    <glyph glyph-name="Ldot.sc" horiz-adv-x="500" 
d="M479 177l-19 -177h-434v16l68 22v421l-68 22v16h278v-16l-75 -21v-428l62 2c47 2 75 20 99 50l74 95zM481 311c0 -40 -31 -71 -70 -71s-71 31 -71 71c0 39 32 70 71 70s70 -31 70 -70z" />
    <glyph glyph-name="Lslash.sc" horiz-adv-x="504" 
d="M94 201l-54 -14l-12 44l66 17v211l-68 22v16h278v-16l-75 -21v-175l97 27l13 -44l-110 -30v-206l62 2c47 2 74 21 99 54l75 100l15 -2l-20 -186h-434v16l68 22v163z" />
    <glyph glyph-name="Nacute.sc" horiz-adv-x="620" 
d="M100 49v402l-66 30v16h177l67 -82l200 -241h6v274l-70 33v16h178v-16l-70 -33v-454h-62l-74 90l-242 283h-6v-318l69 -34v-15h-177v15zM413 753c27 -17 32 -55 8 -86c-29 -38 -81 -80 -135 -123l-13 9c15 67 34 131 58 173c18 32 54 45 82 27z" />
    <glyph glyph-name="Ncaron.sc" horiz-adv-x="620" 
d="M100 49v402l-66 30v16h177l67 -82l200 -241h6v274l-70 33v16h178v-16l-70 -33v-454h-62l-74 90l-242 283h-6v-318l69 -34v-15h-177v15zM308 671l128 74l15 -12l-136 -183h-21l-129 183l15 12z" />
    <glyph glyph-name="Ncommaaccent.sc" horiz-adv-x="620" 
d="M100 49v402l-66 30v16h177l67 -82l200 -241h6v274l-70 33v16h178v-16l-70 -33v-454h-62l-74 90l-242 283h-6v-318l69 -34v-15h-177v15zM378 -146c0 -62 -47 -121 -128 -154l-9 12c63 46 84 86 88 115l-1 1l-11 -3c-8 -2 -16 -4 -24 -4c-30 0 -51 25 -51 56
c0 35 27 65 63 65c45 0 73 -36 73 -88z" />
    <glyph glyph-name="Ntilde.sc" horiz-adv-x="620" 
d="M100 49v402l-66 30v16h177l67 -82l200 -241h6v274l-70 33v16h178v-16l-70 -33v-454h-62l-74 90l-242 283h-6v-318l69 -34v-15h-177v15zM159 564c13 85 37 128 100 128c57 0 97 -40 142 -40c22 0 39 12 53 47l22 -6c-6 -89 -30 -131 -93 -131c-58 0 -104 43 -149 43
c-22 0 -39 -12 -53 -47z" />
    <glyph glyph-name="Oacute.sc" 
d="M562 249c0 -142 -88 -264 -264 -264c-185 0 -262 122 -262 264c0 141 89 263 266 263c184 0 260 -122 260 -263zM416 249c0 158 -49 233 -123 233c-67 0 -111 -58 -111 -233c0 -177 50 -233 123 -233c67 0 111 76 111 233zM405 753c27 -17 32 -55 8 -86
c-29 -38 -81 -80 -135 -123l-13 9c15 67 34 131 58 173c18 32 54 45 82 27z" />
    <glyph glyph-name="Obreve.sc" 
d="M562 249c0 -142 -88 -264 -264 -264c-185 0 -262 122 -262 264c0 141 89 263 266 263c184 0 260 -122 260 -263zM416 249c0 158 -49 233 -123 233c-67 0 -111 -58 -111 -233c0 -177 50 -233 123 -233c67 0 111 76 111 233zM301 657c57 0 108 28 128 71l22 -6
c-12 -93 -62 -157 -150 -157c-87 0 -139 64 -147 157l22 6c17 -43 68 -71 125 -71z" />
    <glyph glyph-name="Ocircumflex.sc" 
d="M562 249c0 -142 -88 -264 -264 -264c-185 0 -262 122 -262 264c0 141 89 263 266 263c184 0 260 -122 260 -263zM416 249c0 158 -49 233 -123 233c-67 0 -111 -58 -111 -233c0 -177 50 -233 123 -233c67 0 111 76 111 233zM300 621l-128 -74l-15 13l136 183h21l129 -183
l-15 -13z" />
    <glyph glyph-name="Odieresis.sc" 
d="M562 249c0 -142 -88 -264 -264 -264c-185 0 -262 122 -262 264c0 141 89 263 266 263c184 0 260 -122 260 -263zM416 249c0 158 -49 233 -123 233c-67 0 -111 -58 -111 -233c0 -177 50 -233 123 -233c67 0 111 76 111 233zM393 568c-40 0 -69 31 -69 71s33 78 77 78
c40 0 69 -30 69 -71c0 -40 -33 -78 -77 -78zM202 568c-41 0 -69 31 -69 71s33 78 76 78c41 0 69 -30 69 -71c0 -40 -33 -78 -76 -78z" />
    <glyph glyph-name="OE.sc" horiz-adv-x="819" 
d="M783 166l-15 -166h-449c-188 0 -288 99 -288 246c0 150 109 251 292 251h433l11 -171l-17 -5l-61 83c-27 37 -52 57 -105 59l-80 3v-198h38c41 0 60 14 78 62l9 24h19v-211h-19l-10 24c-20 47 -36 61 -77 61h-38v-196l100 5c41 2 74 21 98 52l64 82zM369 31v434l-56 -3
c-80 -4 -135 -66 -135 -214c0 -147 63 -208 150 -214z" />
    <glyph glyph-name="Ograve.sc" 
d="M562 249c0 -142 -88 -264 -264 -264c-185 0 -262 122 -262 264c0 141 89 263 266 263c184 0 260 -122 260 -263zM416 249c0 158 -49 233 -123 233c-67 0 -111 -58 -111 -233c0 -177 50 -233 123 -233c67 0 111 76 111 233zM352 553l-13 -9c-54 43 -106 85 -135 123
c-24 31 -19 68 9 86c27 17 65 5 82 -27c23 -42 41 -104 57 -173z" />
    <glyph glyph-name="Ohungarumlaut.sc" 
d="M562 249c0 -142 -88 -264 -264 -264c-185 0 -262 122 -262 264c0 141 89 263 266 263c184 0 260 -122 260 -263zM416 249c0 158 -49 233 -123 233c-67 0 -111 -58 -111 -233c0 -177 50 -233 123 -233c67 0 111 76 111 233zM491 668c-29 -37 -78 -78 -135 -120l-13 9
c17 65 41 128 66 169c19 31 54 43 80 26s26 -53 2 -84zM339 671c-29 -37 -77 -81 -132 -124l-14 8c17 69 38 130 61 171c18 32 53 46 79 29s30 -53 6 -84z" />
    <glyph glyph-name="Omacron.sc" 
d="M562 249c0 -142 -88 -264 -264 -264c-185 0 -262 122 -262 264c0 141 89 263 266 263c184 0 260 -122 260 -263zM416 249c0 158 -49 233 -123 233c-67 0 -111 -58 -111 -233c0 -177 50 -233 123 -233c67 0 111 76 111 233zM439 646v-67h-276v67h276z" />
    <glyph glyph-name="Oslash.sc" 
d="M105 55c-47 49 -69 119 -69 194c0 141 89 263 266 263c69 0 124 -17 164 -47l54 62l28 -26l-53 -61c46 -48 67 -117 67 -191c0 -142 -88 -264 -264 -264c-69 0 -123 17 -164 46l-54 -61l-28 25zM189 150l209 238c-21 63 -58 94 -105 94c-67 0 -111 -58 -111 -233
c0 -38 2 -71 7 -99zM409 343l-210 -238c21 -66 59 -89 106 -89c67 0 111 76 111 233c0 36 -2 67 -7 94z" />
    <glyph glyph-name="Oslashacute.sc" 
d="M105 55c-47 49 -69 119 -69 194c0 141 89 263 266 263c69 0 124 -17 164 -47l54 62l28 -26l-53 -61c46 -48 67 -117 67 -191c0 -142 -88 -264 -264 -264c-69 0 -123 17 -164 46l-54 -61l-28 25zM189 150l209 238c-21 63 -58 94 -105 94c-67 0 -111 -58 -111 -233
c0 -38 2 -71 7 -99zM409 343l-210 -238c21 -66 59 -89 106 -89c67 0 111 76 111 233c0 36 -2 67 -7 94zM411 753c27 -17 32 -55 8 -86c-29 -38 -81 -80 -135 -123l-13 9c15 67 34 131 58 173c18 32 54 45 82 27z" />
    <glyph glyph-name="Otilde.sc" 
d="M562 249c0 -142 -88 -264 -264 -264c-185 0 -262 122 -262 264c0 141 89 263 266 263c184 0 260 -122 260 -263zM416 249c0 158 -49 233 -123 233c-67 0 -111 -58 -111 -233c0 -177 50 -233 123 -233c67 0 111 76 111 233zM151 564c13 85 37 128 100 128
c57 0 97 -40 142 -40c22 0 39 12 53 47l22 -6c-6 -89 -30 -131 -93 -131c-58 0 -104 43 -149 43c-22 0 -39 -12 -53 -47z" />
    <glyph glyph-name="Racute.sc" horiz-adv-x="565" 
d="M508 375c0 -64 -40 -116 -156 -132v-5c77 -10 109 -40 127 -91c15 -44 30 -79 45 -98c11 -14 26 -24 50 -32v-17h-113c-58 0 -79 23 -103 86l-30 77c-17 43 -40 57 -91 57h-8v-182l68 -22v-16h-271v16l68 22v421l-68 22v16h310c122 0 172 -52 172 -122zM371 358
c0 72 -36 103 -98 106l-44 2v-216l42 2c57 2 100 35 100 106zM379 753c27 -17 32 -55 8 -86c-29 -38 -81 -80 -135 -123l-13 9c15 67 34 131 58 173c18 32 54 45 82 27z" />
    <glyph glyph-name="Rcaron.sc" horiz-adv-x="565" 
d="M508 375c0 -64 -40 -116 -156 -132v-5c77 -10 109 -40 127 -91c15 -44 30 -79 45 -98c11 -14 26 -24 50 -32v-17h-113c-58 0 -79 23 -103 86l-30 77c-17 43 -40 57 -91 57h-8v-182l68 -22v-16h-271v16l68 22v421l-68 22v16h310c122 0 172 -52 172 -122zM371 358
c0 72 -36 103 -98 106l-44 2v-216l42 2c57 2 100 35 100 106zM274 671l128 74l15 -12l-136 -183h-21l-129 183l15 12z" />
    <glyph glyph-name="Rcommaaccent.sc" horiz-adv-x="565" 
d="M508 375c0 -64 -40 -116 -156 -132v-5c77 -10 109 -40 127 -91c15 -44 30 -79 45 -98c11 -14 26 -24 50 -32v-17h-113c-58 0 -79 23 -103 86l-30 77c-17 43 -40 57 -91 57h-8v-182l68 -22v-16h-271v16l68 22v421l-68 22v16h310c122 0 172 -52 172 -122zM371 358
c0 72 -36 103 -98 106l-44 2v-216l42 2c57 2 100 35 100 106zM357 -160c0 -62 -47 -121 -128 -154l-9 12c63 46 84 86 88 115l-1 1l-11 -3c-8 -2 -16 -4 -24 -4c-30 0 -51 25 -51 56c0 35 27 65 63 65c45 0 73 -36 73 -88z" />
    <glyph glyph-name="Sacute.sc" horiz-adv-x="462" 
d="M425 158c0 -105 -86 -172 -187 -172c-54 0 -104 12 -138 26l-31 -29h-19l-10 188l22 2c67 -116 123 -154 177 -154s85 30 85 74c0 47 -24 64 -92 90c-26 10 -58 19 -85 32c-71 33 -96 73 -96 135c0 94 85 161 172 161c47 0 85 -10 117 -24l31 26h19l14 -173l-21 -2
c-63 100 -104 140 -160 140c-42 0 -67 -28 -67 -65c0 -41 19 -62 71 -85c29 -13 63 -22 94 -36c76 -33 104 -70 104 -134zM335 753c27 -17 32 -55 8 -86c-29 -38 -81 -80 -135 -123l-13 9c15 67 34 131 58 173c18 32 54 45 82 27z" />
    <glyph glyph-name="Scaron.sc" horiz-adv-x="462" 
d="M425 158c0 -105 -86 -172 -187 -172c-54 0 -104 12 -138 26l-31 -29h-19l-10 188l22 2c67 -116 123 -154 177 -154s85 30 85 74c0 47 -24 64 -92 90c-26 10 -58 19 -85 32c-71 33 -96 73 -96 135c0 94 85 161 172 161c47 0 85 -10 117 -24l31 26h19l14 -173l-21 -2
c-63 100 -104 140 -160 140c-42 0 -67 -28 -67 -65c0 -41 19 -62 71 -85c29 -13 63 -22 94 -36c76 -33 104 -70 104 -134zM230 671l128 74l15 -12l-136 -183h-21l-129 183l15 12z" />
    <glyph glyph-name="Scedilla.sc" horiz-adv-x="462" 
d="M318 -162c0 -57 -50 -103 -120 -103c-51 0 -87 29 -87 60c0 23 16 40 37 40c24 0 36 -18 36 -39c0 -11 -5 -23 -14 -33c7 -2 12 -3 24 -3c27 0 49 22 49 58c0 38 -26 59 -55 59c-14 0 -23 -1 -32 -4l-12 12l115 102c-7 0 -14 -1 -21 -1c-54 0 -104 12 -138 26l-31 -29
h-19l-10 188l22 2c67 -116 123 -154 177 -154s85 30 85 74c0 47 -24 64 -92 90c-26 10 -58 19 -85 32c-71 33 -96 73 -96 135c0 94 85 161 172 161c47 0 85 -10 117 -24l31 26h19l14 -173l-21 -2c-63 100 -104 140 -160 140c-42 0 -67 -28 -67 -65c0 -41 19 -62 71 -85
c29 -13 63 -22 94 -36c76 -33 104 -70 104 -134c0 -77 -46 -133 -109 -158l-78 -68c54 -13 80 -46 80 -94z" />
    <glyph glyph-name="Scommaaccent.sc" horiz-adv-x="462" 
d="M425 158c0 -105 -86 -172 -187 -172c-54 0 -104 12 -138 26l-31 -29h-19l-10 188l22 2c67 -116 123 -154 177 -154s85 30 85 74c0 47 -24 64 -92 90c-26 10 -58 19 -85 32c-71 33 -96 73 -96 135c0 94 85 161 172 161c47 0 85 -10 117 -24l31 26h19l14 -173l-21 -2
c-63 100 -104 140 -160 140c-42 0 -67 -28 -67 -65c0 -41 19 -62 71 -85c29 -13 63 -22 94 -36c76 -33 104 -70 104 -134zM295 -160c0 -62 -47 -121 -128 -154l-9 12c63 46 84 86 88 115l-1 1l-11 -3c-8 -2 -16 -4 -24 -4c-30 0 -51 25 -51 56c0 35 27 65 63 65
c45 0 73 -36 73 -88z" />
    <glyph glyph-name="Tcaron.sc" horiz-adv-x="555" 
d="M533 309l-18 -4l-77 103c-30 41 -51 56 -80 58l-14 1v-429l71 -22v-16h-277v16l71 22v429l-13 -1c-29 -2 -49 -17 -79 -58l-77 -103l-18 4l20 189h471zM275 671l128 74l15 -12l-136 -183h-21l-129 183l15 12z" />
    <glyph glyph-name="Tcommaaccent.sc" horiz-adv-x="555" 
d="M533 309l-18 -4l-77 103c-30 41 -51 56 -80 58l-14 1v-429l71 -22v-16h-277v16l71 22v429l-13 -1c-29 -2 -49 -17 -79 -58l-77 -103l-18 4l20 189h471zM338 -160c0 -62 -47 -121 -128 -154l-9 12c63 46 84 86 88 115l-1 1l-11 -3c-8 -2 -16 -4 -24 -4
c-30 0 -51 25 -51 56c0 35 27 65 63 65c45 0 73 -36 73 -88z" />
    <glyph glyph-name="Thorn.sc" horiz-adv-x="522" 
d="M498 253c0 -90 -71 -151 -193 -151c-24 0 -53 2 -76 5v-70l83 -21v-16h-286v16l68 22v421l-68 22v16h286v-16l-83 -21v-65c23 3 52 5 76 5c122 0 193 -61 193 -147zM360 251c0 72 -36 113 -96 115l-35 1v-232l35 1c60 2 96 43 96 115z" />
    <glyph glyph-name="Uacute.sc" 
d="M476 450l-61 31v16h164v-16l-62 -31v-274c0 -127 -87 -191 -205 -191c-136 0 -222 61 -222 201v273l-68 22v16h271v-16l-68 -22v-286c0 -89 41 -134 127 -134c78 0 124 51 124 144v267zM419 753c27 -17 32 -55 8 -86c-29 -38 -81 -80 -135 -123l-13 9
c15 67 34 131 58 173c18 32 54 45 82 27z" />
    <glyph glyph-name="Ubreve.sc" 
d="M476 450l-61 31v16h164v-16l-62 -31v-274c0 -127 -87 -191 -205 -191c-136 0 -222 61 -222 201v273l-68 22v16h271v-16l-68 -22v-286c0 -89 41 -134 127 -134c78 0 124 51 124 144v267zM315 657c57 0 108 28 128 71l22 -6c-12 -93 -62 -157 -150 -157
c-87 0 -139 64 -147 157l22 6c17 -43 68 -71 125 -71z" />
    <glyph glyph-name="Ucircumflex.sc" 
d="M476 450l-61 31v16h164v-16l-62 -31v-274c0 -127 -87 -191 -205 -191c-136 0 -222 61 -222 201v273l-68 22v16h271v-16l-68 -22v-286c0 -89 41 -134 127 -134c78 0 124 51 124 144v267zM314 621l-128 -74l-15 13l136 183h21l129 -183l-15 -13z" />
    <glyph glyph-name="Udieresis.sc" 
d="M476 450l-61 31v16h164v-16l-62 -31v-274c0 -127 -87 -191 -205 -191c-136 0 -222 61 -222 201v273l-68 22v16h271v-16l-68 -22v-286c0 -89 41 -134 127 -134c78 0 124 51 124 144v267zM407 568c-40 0 -69 31 -69 71s33 78 77 78c40 0 69 -30 69 -71
c0 -40 -33 -78 -77 -78zM216 568c-41 0 -69 31 -69 71s33 78 76 78c41 0 69 -30 69 -71c0 -40 -33 -78 -76 -78z" />
    <glyph glyph-name="Ugrave.sc" 
d="M476 450l-61 31v16h164v-16l-62 -31v-274c0 -127 -87 -191 -205 -191c-136 0 -222 61 -222 201v273l-68 22v16h271v-16l-68 -22v-286c0 -89 41 -134 127 -134c78 0 124 51 124 144v267zM366 553l-13 -9c-54 43 -106 85 -135 123c-24 31 -19 68 9 86c27 17 65 5 82 -27
c23 -42 41 -104 57 -173z" />
    <glyph glyph-name="Uhungarumlaut.sc" 
d="M476 450l-61 31v16h164v-16l-62 -31v-274c0 -127 -87 -191 -205 -191c-136 0 -222 61 -222 201v273l-68 22v16h271v-16l-68 -22v-286c0 -89 41 -134 127 -134c78 0 124 51 124 144v267zM505 668c-29 -37 -78 -78 -135 -120l-13 9c17 65 41 128 66 169c19 31 54 43 80 26
s26 -53 2 -84zM353 671c-29 -37 -77 -81 -132 -124l-14 8c17 69 38 130 61 171c18 32 53 46 79 29s30 -53 6 -84z" />
    <glyph glyph-name="Umacron.sc" 
d="M476 450l-61 31v16h164v-16l-62 -31v-274c0 -127 -87 -191 -205 -191c-136 0 -222 61 -222 201v273l-68 22v16h271v-16l-68 -22v-286c0 -89 41 -134 127 -134c78 0 124 51 124 144v267zM453 646v-67h-276v67h276z" />
    <glyph glyph-name="Uogonek.sc" 
d="M476 450l-61 31v16h164v-16l-62 -31v-274c0 -104 -59 -166 -145 -184c-55 -55 -61 -102 -61 -123c0 -37 17 -68 54 -68c22 0 36 7 43 15l11 -8c-17 -35 -52 -61 -95 -61c-61 0 -99 43 -99 95c0 45 32 99 96 143h-9c-136 0 -222 61 -222 201v273l-68 22v16h271v-16
l-68 -22v-286c0 -89 41 -134 127 -134c78 0 124 51 124 144v267z" />
    <glyph glyph-name="Uring.sc" 
d="M476 450l-61 31v16h164v-16l-62 -31v-274c0 -127 -87 -191 -205 -191c-136 0 -222 61 -222 201v273l-68 22v16h271v-16l-68 -22v-286c0 -89 41 -134 127 -134c78 0 124 51 124 144v267zM417 638c0 -48 -37 -98 -104 -98c-66 0 -100 46 -100 97c0 48 38 96 105 96
c66 0 99 -44 99 -95zM351 638c0 44 -9 69 -37 69c-26 0 -35 -26 -35 -71c0 -44 11 -69 37 -69c28 0 35 26 35 71z" />
    <glyph glyph-name="Wacute.sc" horiz-adv-x="792" 
d="M383 386l-25 71l-48 24v16h244v-16l-59 -22l95 -294h2l82 280l-65 35v17h185v-17l-61 -32l-163 -455h-46l-121 338h-2l-132 -338h-44l-157 464l-63 24v16h261v-16l-55 -22l84 -294h2zM522 753c27 -17 32 -55 8 -86c-29 -38 -81 -80 -135 -123l-13 9c15 67 34 131 58 173
c18 32 54 45 82 27z" />
    <glyph glyph-name="Wcircumflex.sc" horiz-adv-x="792" 
d="M383 386l-25 71l-48 24v16h244v-16l-59 -22l95 -294h2l82 280l-65 35v17h185v-17l-61 -32l-163 -455h-46l-121 338h-2l-132 -338h-44l-157 464l-63 24v16h261v-16l-55 -22l84 -294h2zM417 621l-128 -74l-15 13l136 183h21l129 -183l-15 -13z" />
    <glyph glyph-name="Wdieresis.sc" horiz-adv-x="792" 
d="M383 386l-25 71l-48 24v16h244v-16l-59 -22l95 -294h2l82 280l-65 35v17h185v-17l-61 -32l-163 -455h-46l-121 338h-2l-132 -338h-44l-157 464l-63 24v16h261v-16l-55 -22l84 -294h2zM510 568c-40 0 -69 31 -69 71s33 78 77 78c40 0 69 -30 69 -71c0 -40 -33 -78 -77 -78
zM319 568c-41 0 -69 31 -69 71s33 78 76 78c41 0 69 -30 69 -71c0 -40 -33 -78 -76 -78z" />
    <glyph glyph-name="Wgrave.sc" horiz-adv-x="792" 
d="M383 386l-25 71l-48 24v16h244v-16l-59 -22l95 -294h2l82 280l-65 35v17h185v-17l-61 -32l-163 -455h-46l-121 338h-2l-132 -338h-44l-157 464l-63 24v16h261v-16l-55 -22l84 -294h2zM469 553l-13 -9c-54 43 -106 85 -135 123c-24 31 -19 68 9 86c27 17 65 5 82 -27
c23 -42 41 -104 57 -173z" />
    <glyph glyph-name="Yacute.sc" horiz-adv-x="536" 
d="M479 452l-135 -229v-179l71 -28v-16h-276v16l70 28v156l-143 250l-61 31v16h270v-16l-61 -26l107 -200l96 195l-59 31v16h184v-16zM387 753c27 -17 32 -55 8 -86c-29 -38 -81 -80 -135 -123l-13 9c15 67 34 131 58 173c18 32 54 45 82 27z" />
    <glyph glyph-name="Ycircumflex.sc" horiz-adv-x="536" 
d="M479 452l-135 -229v-179l71 -28v-16h-276v16l70 28v156l-143 250l-61 31v16h270v-16l-61 -26l107 -200l96 195l-59 31v16h184v-16zM282 621l-128 -74l-15 13l136 183h21l129 -183l-15 -13z" />
    <glyph glyph-name="Ydieresis.sc" horiz-adv-x="536" 
d="M479 452l-135 -229v-179l71 -28v-16h-276v16l70 28v156l-143 250l-61 31v16h270v-16l-61 -26l107 -200l96 195l-59 31v16h184v-16zM375 568c-40 0 -69 31 -69 71s33 78 77 78c40 0 69 -30 69 -71c0 -40 -33 -78 -77 -78zM184 568c-41 0 -69 31 -69 71s33 78 76 78
c41 0 69 -30 69 -71c0 -40 -33 -78 -76 -78z" />
    <glyph glyph-name="Ygrave.sc" horiz-adv-x="536" 
d="M479 452l-135 -229v-179l71 -28v-16h-276v16l70 28v156l-143 250l-61 31v16h270v-16l-61 -26l107 -200l96 195l-59 31v16h184v-16zM334 553l-13 -9c-54 43 -106 85 -135 123c-24 31 -19 68 9 86c27 17 65 5 82 -27c23 -42 41 -104 57 -173z" />
    <glyph glyph-name="Zacute.sc" horiz-adv-x="523" 
d="M487 191l-12 -191h-452l-4 9l316 450l-104 -1c-45 0 -65 -13 -108 -66l-59 -73l-13 3l14 175h430l4 -9l-314 -451l128 2c48 1 67 22 96 63l65 92zM372 753c27 -17 32 -55 8 -86c-29 -38 -81 -80 -135 -123l-13 9c15 67 34 131 58 173c18 32 54 45 82 27z" />
    <glyph glyph-name="Zcaron.sc" horiz-adv-x="523" 
d="M487 191l-12 -191h-452l-4 9l316 450l-104 -1c-45 0 -65 -13 -108 -66l-59 -73l-13 3l14 175h430l4 -9l-314 -451l128 2c48 1 67 22 96 63l65 92zM267 671l128 74l15 -12l-136 -183h-21l-129 183l15 12z" />
    <glyph glyph-name="Zdotaccent.sc" horiz-adv-x="523" 
d="M487 191l-12 -191h-452l-4 9l316 450l-104 -1c-45 0 -65 -13 -108 -66l-59 -73l-13 3l14 175h430l4 -9l-314 -451l128 2c48 1 67 22 96 63l65 92zM342 646c0 -40 -33 -78 -76 -78c-41 0 -69 31 -69 71s33 78 76 78c41 0 69 -30 69 -71z" />
    <glyph glyph-name="f_f.sc" horiz-adv-x="1026" 
d="M491 321l-17 -5l-62 88c-26 37 -52 57 -105 59l-78 3v-209h41c41 0 61 17 78 62l9 24h19v-211h-19l-10 24c-20 47 -36 61 -77 61h-41v-179l74 -22v-16h-277v16l68 22v421l-68 22v16h454zM1004 321l-17 -5l-62 88c-26 37 -52 57 -105 59l-78 3v-209h41c41 0 61 17 78 62
l9 24h19v-211h-19l-10 24c-20 47 -36 61 -77 61h-41v-179l74 -22v-16h-277v16l68 22v421l-68 22v16h454z" />
    <glyph glyph-name="f_i.sc" horiz-adv-x="852" 
d="M491 321l-17 -5l-62 88c-26 37 -52 57 -105 59l-78 3v-209h41c41 0 61 17 78 62l9 24h19v-211h-19l-10 24c-20 47 -36 61 -77 61h-41v-179l74 -22v-16h-277v16l68 22v421l-68 22v16h454zM750 38l68 -22v-16h-271v16l68 22v421l-68 22v16h271v-16l-68 -22v-421z" />
    <glyph glyph-name="f_l.sc" horiz-adv-x="1017" 
d="M491 321l-17 -5l-62 88c-26 37 -52 57 -105 59l-78 3v-209h41c41 0 61 17 78 62l9 24h19v-211h-19l-10 24c-20 47 -36 61 -77 61h-41v-179l74 -22v-16h-277v16l68 22v421l-68 22v16h454zM993 186l-20 -186h-434v16l68 22v421l-68 22v16h278v-16l-75 -21v-428l62 2
c47 2 74 21 99 54l75 100z" />
    <glyph glyph-name="f_f_i.sc" horiz-adv-x="1365" 
d="M491 321l-17 -5l-62 88c-26 37 -52 57 -105 59l-78 3v-209h41c41 0 61 17 78 62l9 24h19v-211h-19l-10 24c-20 47 -36 61 -77 61h-41v-179l74 -22v-16h-277v16l68 22v421l-68 22v16h454zM1004 321l-17 -5l-62 88c-26 37 -52 57 -105 59l-78 3v-209h41c41 0 61 17 78 62
l9 24h19v-211h-19l-10 24c-20 47 -36 61 -77 61h-41v-179l74 -22v-16h-277v16l68 22v421l-68 22v16h454zM1263 38l68 -22v-16h-271v16l68 22v421l-68 22v16h271v-16l-68 -22v-421z" />
    <glyph glyph-name="f_f_l.sc" horiz-adv-x="1530" 
d="M491 321l-17 -5l-62 88c-26 37 -52 57 -105 59l-78 3v-209h41c41 0 61 17 78 62l9 24h19v-211h-19l-10 24c-20 47 -36 61 -77 61h-41v-179l74 -22v-16h-277v16l68 22v421l-68 22v16h454zM1004 321l-17 -5l-62 88c-26 37 -52 57 -105 59l-78 3v-209h41c41 0 61 17 78 62
l9 24h19v-211h-19l-10 24c-20 47 -36 61 -77 61h-41v-179l74 -22v-16h-277v16l68 22v421l-68 22v16h454zM1506 186l-20 -186h-434v16l68 22v421l-68 22v16h278v-16l-75 -21v-428l62 2c47 2 74 21 99 54l75 100z" />
    <glyph glyph-name="germandbls.sc" horiz-adv-x="924" 
d="M425 158c0 -105 -86 -172 -187 -172c-54 0 -104 12 -138 26l-31 -29h-19l-10 188l22 2c67 -116 123 -154 177 -154s85 30 85 74c0 47 -24 64 -92 90c-26 10 -58 19 -85 32c-71 33 -96 73 -96 135c0 94 85 161 172 161c47 0 85 -10 117 -24l31 26h19l14 -173l-21 -2
c-63 100 -104 140 -160 140c-42 0 -67 -28 -67 -65c0 -41 19 -62 71 -85c29 -13 63 -22 94 -36c76 -33 104 -70 104 -134zM887 158c0 -105 -86 -172 -187 -172c-54 0 -104 12 -138 26l-31 -29h-19l-10 188l22 2c67 -116 123 -154 177 -154s85 30 85 74c0 47 -24 64 -92 90
c-26 10 -58 19 -85 32c-71 33 -96 73 -96 135c0 94 85 161 172 161c47 0 85 -10 117 -24l31 26h19l14 -173l-21 -2c-63 100 -104 140 -160 140c-42 0 -67 -28 -67 -65c0 -41 19 -62 71 -85c29 -13 63 -22 94 -36c76 -33 104 -70 104 -134z" />
    <glyph glyph-name="i.dot" horiz-adv-x="279" 
d="M66 609c0 43 36 84 82 84c44 0 74 -33 74 -76s-35 -83 -82 -83c-43 0 -74 32 -74 75zM80 373l-59 47v10l183 42l4 -3v-431l60 -24v-14h-251v14l63 24v335z" />
    <glyph glyph-name="fraction" unicode="&#x2044;" horiz-adv-x="536" 
d="M518 619l-235 -325l-230 -329l-35 26l235 326l230 329z" />
    <glyph glyph-name="acute" unicode="&#xb4;" horiz-adv-x="238" 
d="M184 713c27 -17 32 -55 8 -86c-29 -38 -81 -80 -135 -123l-13 9c15 67 34 131 58 173c18 32 54 45 82 27z" />
    <glyph glyph-name="hungarumlaut" unicode="&#x2dd;" horiz-adv-x="334" 
d="M314 628c-29 -37 -78 -78 -135 -120l-13 9c17 65 41 128 66 169c19 31 54 43 80 26s26 -53 2 -84zM162 631c-29 -37 -77 -81 -132 -124l-14 8c17 69 38 130 61 171c18 32 53 46 79 29s30 -53 6 -84z" />
    <glyph glyph-name="caron.alt" horiz-adv-x="238" 
d="M73 501l-3 34c-2 26 -3 55 -3 78c0 66 8 124 63 124c29 0 49 -24 49 -55c0 -43 -48 -118 -91 -185z" />
    <glyph glyph-name="grave" unicode="`" horiz-adv-x="238" 
d="M202 513l-13 -9c-54 43 -106 85 -135 123c-24 31 -19 68 9 86c27 17 65 5 82 -27c23 -42 41 -104 57 -173z" />
    <glyph glyph-name="circumflex" unicode="&#x2c6;" horiz-adv-x="319" 
d="M159 581l-128 -74l-15 13l136 183h21l129 -183l-15 -13z" />
    <glyph glyph-name="caron" unicode="&#x2c7;" horiz-adv-x="319" 
d="M159 631l128 74l15 -12l-136 -183h-21l-129 183l15 12z" />
    <glyph glyph-name="breve" unicode="&#x2d8;" horiz-adv-x="336" 
d="M167 617c57 0 108 28 128 71l22 -6c-12 -93 -62 -157 -150 -157c-87 0 -139 64 -147 157l22 6c17 -43 68 -71 125 -71z" />
    <glyph glyph-name="tilde" unicode="&#x2dc;" horiz-adv-x="351" 
d="M19 524c13 85 37 128 100 128c57 0 97 -40 142 -40c22 0 39 12 53 47l22 -6c-6 -89 -30 -131 -93 -131c-58 0 -104 43 -149 43c-22 0 -39 -12 -53 -47z" />
    <glyph glyph-name="macron" unicode="&#xaf;" horiz-adv-x="320" 
d="M298 606v-67h-276v67h276z" />
    <glyph glyph-name="dieresis" unicode="&#xa8;" horiz-adv-x="361" 
d="M268 528c-40 0 -69 31 -69 71s33 78 77 78c40 0 69 -30 69 -71c0 -40 -33 -78 -77 -78zM77 528c-41 0 -69 31 -69 71s33 78 76 78c41 0 69 -30 69 -71c0 -40 -33 -78 -76 -78z" />
    <glyph glyph-name="dotaccent" unicode="&#x2d9;" horiz-adv-x="207" 
d="M176 606c0 -40 -33 -78 -76 -78c-41 0 -69 31 -69 71s33 78 76 78c41 0 69 -30 69 -71z" />
    <glyph glyph-name="ring" unicode="&#x2da;" horiz-adv-x="259" 
d="M230 598c0 -48 -37 -98 -104 -98c-66 0 -100 46 -100 97c0 48 38 96 105 96c66 0 99 -44 99 -95zM164 598c0 44 -9 69 -37 69c-26 0 -35 -26 -35 -71c0 -44 11 -69 37 -69c28 0 35 26 35 71z" />
    <glyph glyph-name="commaaccent" unicode="&#x326;" horiz-adv-x="210" 
d="M185 -160c0 -62 -47 -121 -128 -154l-9 12c63 46 84 86 88 115l-1 1l-11 -3c-8 -2 -16 -4 -24 -4c-30 0 -51 25 -51 56c0 35 27 65 63 65c45 0 73 -36 73 -88z" />
    <glyph glyph-name="cedilla" unicode="&#xb8;" horiz-adv-x="282" 
d="M182 -162c0 -57 -50 -103 -120 -103c-51 0 -87 29 -87 60c0 23 16 40 37 40c24 0 36 -18 36 -39c0 -11 -5 -23 -14 -33c7 -2 12 -3 24 -3c27 0 49 22 49 58c0 38 -26 59 -55 59c-14 0 -23 -1 -32 -4l-12 12l154 136l36 -5l-96 -84c54 -13 80 -46 80 -94z" />
    <glyph glyph-name="ogonek" unicode="&#x2db;" horiz-adv-x="269" 
d="M155 15l14 -11c-68 -60 -75 -113 -75 -135c0 -37 17 -68 54 -68c22 0 36 7 43 15l11 -8c-17 -35 -52 -61 -95 -61c-61 0 -99 43 -99 95c0 56 50 125 147 173z" />
    <glyph glyph-name="figurespace" unicode="&#x2007;" horiz-adv-x="520" 
 />
    </font>
</defs>
</svg>
